<svg width="291" height="281" viewBox="0 0 291 281" fill="none" xmlns="http://www.w3.org/2000/svg">
<path d="M248.292 57.532C242.956 53.7536 236.101 52.6874 229.867 54.6725C232.971 64.8493 234.944 74.6132 221.314 84.6943L222.14 85.8311C235.842 76.0535 244.493 80.8086 253.148 86.8374C258.298 79.7105 258.571 69.8105 253.122 62.3108C251.744 60.4134 250.105 58.8162 248.292 57.532ZM192.286 16.8523C190.607 15.6645 188.723 14.7055 186.664 14.0365C177.85 11.1728 168.524 14.4875 163.336 21.5816C171.785 27.9714 179.054 34.7208 173.971 50.8342L175.307 51.2678C180.665 35.2448 190.511 34.0561 201.108 33.8573C201.091 27.1202 197.796 20.7502 192.286 16.8523ZM269.706 123.379C268.045 122.197 266.2 121.257 264.227 120.599C260.758 130.629 256.6 139.657 239.677 139.801L239.674 141.209C256.516 141.353 260.719 150.292 264.179 160.263C272.501 157.506 278.51 149.676 278.51 140.429C278.51 133.393 275.034 127.168 269.706 123.379ZM123.052 16.8535C117.85 13.1832 111.046 11.9248 104.526 14.0433C95.7145 16.9064 90.1166 25.0673 90.0862 33.8535C100.678 34.0567 110.526 35.2456 115.885 51.2705L117.223 50.833C112.139 34.7193 119.409 27.9717 127.858 21.5818C126.508 19.7366 124.88 18.1439 123.052 16.8535ZM61.3809 54.7205C53.0148 52.032 43.5225 54.8324 38.076 62.3288C32.6308 69.8236 32.8979 79.7153 38.0366 86.8407C46.7266 80.7778 55.3927 75.9468 69.1495 85.7633L69.9776 84.6236C56.3995 74.5803 58.3037 64.8513 61.3809 54.7205ZM253.228 194.116C244.547 200.171 235.883 204.983 222.14 195.175L221.311 196.315C234.875 206.348 232.989 216.066 229.918 226.185C238.262 228.826 247.708 226.019 253.135 218.549C258.56 211.082 258.313 201.236 253.228 194.116ZM27.084 120.598C18.7339 123.339 12.6992 131.185 12.6992 140.452C12.6992 149.714 18.7295 157.559 27.0733 160.305C30.5405 150.289 34.7104 141.28 51.6143 141.135L51.6152 139.73C34.7307 139.586 30.5489 130.6 27.084 120.598ZM201.122 247.084C190.561 246.876 180.75 245.652 175.405 229.668L174.068 230.103C179.155 246.224 171.875 252.974 163.421 259.367C168.62 266.407 177.906 269.69 186.687 266.836C195.48 263.98 201.068 255.848 201.122 247.084ZM69.1516 195.105C55.4078 204.912 46.7433 200.102 38.0616 194.047C32.9144 201.173 32.6426 211.07 38.0898 218.569C43.5363 226.066 53.0293 228.867 61.3953 226.178C58.3066 216.033 56.3848 206.295 69.9758 196.242L69.1516 195.105ZM117.321 230.102L115.984 229.669C110.614 245.729 100.734 246.888 90.1087 247.083C90.1595 255.85 95.7503 263.986 104.546 266.844C113.359 269.708 122.687 266.394 127.875 259.301C119.459 252.928 112.252 246.167 117.321 230.102Z" stroke="#C4494B"/>
<path d="M244.831 62.41C240.944 59.6577 235.931 58.9268 231.409 60.4599C233.007 67.9478 232.445 75.2842 223.725 82.7707C223.858 82.9727 223.977 83.1808 224.12 83.3784C224.309 83.6389 224.516 83.8784 224.718 84.123C234.438 78.2038 241.547 79.8425 248.12 83.5968C251.977 78.4898 252.239 71.2684 248.282 65.8224C247.297 64.4671 246.126 63.3273 244.831 62.41ZM188.827 21.728C187.628 20.8795 186.281 20.1964 184.811 19.7185C178.413 17.6399 171.633 20.1138 167.967 25.3514C173.613 30.4532 177.421 36.7063 174.793 47.8216C175.055 47.9232 175.312 48.0327 175.582 48.1206C175.853 48.2086 176.126 48.2702 176.398 48.3421C180.804 37.8117 187.557 34.9902 195.122 34.1824C195.209 29.2573 192.845 24.5709 188.827 21.728ZM266.242 128.251C264.983 127.356 263.578 126.655 262.071 126.183C258.956 133.167 254.173 138.756 242.702 139.672C242.689 139.925 242.663 140.174 242.663 140.43C242.663 140.737 242.691 141.037 242.709 141.339C254.104 142.251 258.9 147.774 262.016 154.696C268.105 152.812 272.529 147.138 272.529 140.429C272.529 135.403 270.048 130.958 266.242 128.251ZM119.597 21.7326C115.882 19.1109 111.022 18.2121 106.365 19.7253C99.9703 21.803 95.938 27.7868 96.0457 34.1763C103.614 34.9849 110.374 37.8057 114.782 48.3477C115.052 48.2762 115.324 48.217 115.593 48.1295C115.865 48.041 116.123 47.9288 116.386 47.8263C113.759 36.7157 117.558 30.4597 123.199 25.3591C122.203 23.9362 120.984 22.7111 119.597 21.7326ZM59.8367 60.4934C53.7922 58.4134 46.8545 60.3994 42.9014 65.8401C38.9499 71.2791 39.2043 78.4873 43.0468 83.5929C49.647 79.7963 56.7761 78.1026 66.5422 84.0436C66.7174 83.8284 66.8987 83.6223 67.0638 83.3951C67.233 83.1623 67.3752 82.9194 67.529 82.6804C58.87 75.2348 58.2704 67.937 59.8367 60.4934ZM248.208 197.36C241.594 201.159 234.448 202.842 224.648 196.845C224.475 197.057 224.296 197.26 224.133 197.484C223.965 197.715 223.822 197.955 223.669 198.192C232.393 205.652 233.008 212.961 231.445 220.418C237.469 222.45 244.361 220.454 248.295 215.039C252.227 209.626 251.996 202.461 248.208 197.36ZM176.456 232.504C176.171 232.578 175.888 232.661 175.604 232.753C175.353 232.835 175.116 232.939 174.872 233.032C177.542 244.214 173.717 250.49 168.045 255.608C171.725 260.789 178.47 263.225 184.833 261.157C191.21 259.085 195.237 253.127 195.151 246.757C187.593 245.935 180.848 243.083 176.456 232.504ZM48.5105 139.592C37.1188 138.664 32.3415 133.115 29.2315 126.173C23.1168 128.042 18.666 133.726 18.666 140.452C18.666 147.174 23.1075 152.858 29.2153 154.732C32.323 147.776 37.0944 142.211 48.4912 141.276C48.5062 141.002 48.5341 140.731 48.5341 140.453C48.5341 140.164 48.5267 139.877 48.5105 139.592ZM116.491 233.081C116.202 232.967 115.913 232.855 115.615 232.758C115.376 232.68 115.135 232.628 114.895 232.563C110.472 243.165 103.673 245.971 96.0632 246.767C95.9787 253.137 100.01 259.092 106.387 261.164C112.787 263.244 119.57 260.767 123.236 255.524C117.623 250.428 113.857 244.173 116.491 233.081ZM66.5395 196.825C56.7873 202.757 49.6667 201.076 43.0743 197.291C39.2212 202.398 38.9598 209.616 42.9153 215.06C46.8675 220.5 53.8046 222.484 59.8483 220.405C58.2714 212.95 58.8598 205.645 67.5263 198.191C67.378 197.962 67.2397 197.728 67.0772 197.504C66.9059 197.269 66.7217 197.048 66.5395 196.825Z" stroke="#C4494B"/>
<path d="M0.747487 133.975C0.705157 136.275 3.88998 138.753 8.20823 139.671C9.81011 140.012 11.3563 140.092 12.7144 139.951C12.7762 137.385 13.3101 134.852 14.2894 132.479C13.1085 131.8 11.6686 131.246 10.072 130.906C5.46582 129.927 1.31441 131.097 0.8 133.517C0.768393 133.668 0.750309 133.821 0.747487 133.975ZM0.869962 146.916C0.872908 147.069 0.890282 147.222 0.922453 147.374C1.43685 149.794 5.5883 150.963 10.1945 149.984C11.7446 149.655 13.1457 149.122 14.3069 148.47C13.3161 146.076 12.7791 143.519 12.7232 140.928C11.3928 140.803 9.88802 140.888 8.3307 141.22C4.01242 142.138 0.827378 144.615 0.869962 146.916ZM5.83697 122.483C5.86914 124.56 7.6743 127.326 10.5911 129.445C11.9493 130.432 13.3656 131.144 14.6919 131.563C15.7756 129.255 17.2722 127.166 19.1077 125.397C18.301 124.28 17.1967 123.169 15.8556 122.195C12.0459 119.427 7.77837 118.807 6.32406 120.809C5.98322 121.278 5.82704 121.847 5.83697 122.483ZM6.18408 158.434C6.19537 159.019 6.35301 159.545 6.67116 159.982C8.12547 161.984 12.393 161.365 16.2027 158.597C17.4448 157.695 18.4837 156.676 19.271 155.642C17.3682 153.845 15.8198 151.706 14.7065 149.337C13.4764 149.766 12.182 150.44 10.9353 151.346C7.95894 153.509 6.14291 156.343 6.18408 158.434ZM15.039 114.871C15.038 116.672 15.6752 118.902 16.9261 121.069C17.7779 122.544 18.7997 123.784 19.8573 124.712C21.7705 123.039 23.9726 121.73 26.3555 120.847C26.0738 119.495 25.5152 118.028 24.6843 116.589C22.3297 112.511 18.6838 110.207 16.5411 111.444C15.5366 112.024 15.0398 113.281 15.039 114.871ZM15.5494 165.74C15.5502 167.329 16.047 168.584 17.0514 169.164C19.1943 170.401 22.8402 168.1 25.1947 164.022C25.9382 162.734 26.4629 161.422 26.7667 160.192C24.2686 159.327 21.9563 157.998 19.9535 156.272C19.0437 157.149 18.1746 158.255 17.4335 159.539C16.1826 161.706 15.5484 163.938 15.5494 165.74Z" stroke="#C4494B"/>
<path d="M24.615 220.359C25.9329 222.245 29.9659 222.377 33.999 220.582C35.4952 219.916 36.7933 219.072 37.8092 218.16C36.3506 216.047 35.2937 213.684 34.6912 211.189C33.3369 211.334 31.8465 211.732 30.3551 212.396C26.0531 214.311 23.3819 217.697 24.3883 219.957C24.4513 220.098 24.527 220.233 24.615 220.359ZM32.3207 230.756C32.4133 230.879 32.5172 230.992 32.6323 231.096C34.471 232.752 38.5168 231.258 41.6678 227.758C42.7281 226.58 43.5488 225.326 44.1051 224.116C41.8962 222.761 39.9585 221.008 38.3905 218.945C37.2409 219.626 36.0736 220.58 35.0084 221.763C32.0544 225.044 30.934 228.92 32.3207 230.756ZM21.9779 208.07C23.2249 209.732 26.3109 210.908 29.9162 210.908C31.595 210.908 33.159 210.652 34.4785 210.211C33.9991 207.707 33.9815 205.137 34.4265 202.627C33.1172 202.198 31.5709 201.948 29.9132 201.948C25.2041 201.948 21.3877 203.955 21.3877 206.43C21.3877 207.009 21.5961 207.562 21.9779 208.07ZM43.3899 236.951C43.743 237.418 44.1795 237.75 44.6943 237.918C47.0474 238.682 50.136 235.673 51.5911 231.194C52.0655 229.734 52.3072 228.299 52.3368 227C49.7407 226.665 47.2308 225.844 44.9376 224.582C44.1945 225.652 43.544 226.959 43.0678 228.424C41.9309 231.923 42.1278 235.284 43.3899 236.951ZM24.948 196.503C26.0062 197.961 27.8323 199.39 30.1177 200.408C31.6741 201.101 33.2297 201.504 34.6303 201.632C35.1951 199.155 36.2069 196.801 37.616 194.686C36.5937 193.758 35.2791 192.899 33.761 192.223C29.459 190.308 25.1552 190.587 24.1489 192.848C23.6771 193.907 24.0143 195.216 24.948 196.503ZM55.261 237.357C56.1961 238.642 57.3354 239.365 58.4888 239.244C60.9494 238.985 62.5467 234.981 62.0545 230.298C61.899 228.819 61.5524 227.449 61.0753 226.276C58.5458 227.044 55.8938 227.328 53.2592 227.109C53.0384 228.353 52.9857 229.759 53.1406 231.233C53.4021 233.721 54.2012 235.9 55.261 237.357Z" stroke="#C4494B"/>
<path d="M32.2121 50.0605C30.8257 51.8967 31.9458 55.7733 34.8998 59.0541C35.9955 60.2713 37.1993 61.2451 38.3808 61.9293C39.9393 59.8894 41.8601 58.1539 44.0472 56.8097C43.4907 55.5665 42.6515 54.2721 41.5593 53.0589C38.4084 49.5593 34.3625 48.0653 32.5238 49.7209C32.4092 49.8243 32.3045 49.938 32.2121 50.0605ZM24.7046 60.602C24.6168 60.7279 24.541 60.8618 24.4778 61.0034C23.4714 63.2637 26.1428 66.6498 30.4447 68.5651C31.8926 69.2096 33.339 69.6025 34.6615 69.7577C35.2673 67.2383 36.3361 64.8536 37.8136 62.7249C36.8107 61.8419 35.5431 61.0264 34.0885 60.3791C30.0554 58.5835 26.0223 58.7159 24.7046 60.602ZM43.0841 43.7552C41.8892 45.4545 41.724 48.753 42.8381 52.1819C43.357 53.7785 44.0845 55.1866 44.9111 56.3054C47.1441 55.0758 49.5831 54.2649 52.1077 53.9127C52.1119 52.5346 51.8713 50.9869 51.3591 49.4104C49.9039 44.9317 46.8154 41.9224 44.4623 42.687C43.9108 42.8662 43.4499 43.2349 43.0841 43.7552ZM22.2338 73.0437C21.899 73.5238 21.7175 74.0417 21.7176 74.5829C21.7175 77.0572 25.534 79.0647 30.2431 79.0646C31.7784 79.0646 33.2178 78.851 34.4621 78.4778C33.9792 75.905 33.9838 73.2645 34.4757 70.6934C33.2284 70.3174 31.7845 70.1025 30.2435 70.1025C26.5646 70.1025 23.4292 71.3283 22.2338 73.0437ZM55.0032 43.0054C53.9434 44.4623 53.1483 46.6408 52.8869 49.1287C52.7088 50.8231 52.8065 52.427 53.1171 53.7988C55.6479 53.5704 58.1992 53.8052 60.6457 54.4919C61.2123 53.2329 61.623 51.7172 61.7967 50.0646C62.2889 45.3812 60.6934 41.3744 58.2328 41.1157C57.0793 40.9945 55.9383 41.7198 55.0032 43.0054ZM25.5161 84.4593C24.5824 85.7458 24.2469 87.0528 24.7186 88.1123C25.7252 90.3725 30.0271 90.6542 34.329 88.7389C35.6875 88.134 36.8831 87.3811 37.8518 86.5647C36.3392 84.3964 35.2498 81.962 34.6438 79.3887C33.3926 79.563 32.0391 79.9474 30.6851 80.5502C28.3997 81.5677 26.5742 83.0012 25.5161 84.4593Z" stroke="#C4494B"/>
<path d="M94.6941 276.216C96.8689 276.967 100.21 274.704 102.417 270.881C103.236 269.463 103.79 268.017 104.076 266.682C101.654 265.83 99.41 264.539 97.4558 262.875C96.4454 263.788 95.4737 264.986 94.6574 266.4C92.3028 270.478 92.1321 274.788 94.2748 276.025C94.4087 276.102 94.5491 276.166 94.6941 276.216ZM107.04 280.099C107.187 280.144 107.337 280.174 107.491 280.19C109.952 280.449 112.347 276.862 112.839 272.179C113.005 270.603 112.931 269.106 112.67 267.8C110.087 268.002 107.489 267.722 105.008 266.975C104.478 268.202 104.094 269.659 103.928 271.243C103.467 275.634 104.839 279.428 107.04 280.099ZM85.3378 267.825C87.3232 268.436 90.5113 267.574 93.4281 265.455C94.7862 264.468 95.9006 263.341 96.7092 262.209C94.8498 260.465 93.3248 258.396 92.2097 256.104C90.8978 256.526 89.5002 257.233 88.1591 258.207C84.3494 260.975 82.4418 264.843 83.8961 266.844C84.2368 267.313 84.7299 267.638 85.3378 267.825ZM119.636 278.604C120.196 278.774 120.745 278.786 121.259 278.621C123.613 277.856 124.342 273.606 122.887 269.128C122.413 267.668 121.765 266.365 121.025 265.297C118.728 266.551 116.215 267.362 113.618 267.689C113.645 268.992 113.887 270.431 114.364 271.897C115.5 275.396 117.635 277.997 119.636 278.604ZM80.9415 256.721C82.6546 257.278 84.9722 257.362 87.4191 256.842C89.0856 256.487 90.5808 255.899 91.7895 255.18C90.7902 252.843 90.2252 250.344 90.1222 247.805C88.7497 247.656 87.1813 247.733 85.5559 248.079C80.9497 249.058 77.6319 251.814 78.1463 254.234C78.3875 255.368 79.4299 256.229 80.9415 256.721ZM129.479 271.955C130.991 272.445 132.337 272.361 133.199 271.585C135.038 269.929 133.976 265.75 130.825 262.251C129.83 261.146 128.745 260.241 127.669 259.572C126.074 261.681 124.096 263.469 121.835 264.841C122.388 265.977 123.172 267.145 124.163 268.247C125.837 270.106 127.765 271.399 129.479 271.955Z" stroke="#C4494B"/>
<path d="M184.23 280.212C186.43 279.541 187.803 275.747 187.341 271.356C187.17 269.727 186.769 268.232 186.215 266.984C183.755 267.718 181.181 267.993 178.622 267.795C178.341 269.128 178.259 270.668 178.43 272.292C178.922 276.975 181.317 280.562 183.778 280.303C183.931 280.286 184.083 280.258 184.23 280.212ZM196.499 276.096C196.644 276.046 196.784 275.982 196.919 275.905C199.062 274.668 198.891 270.358 196.536 266.28C195.744 264.908 194.804 263.74 193.826 262.837C191.855 264.519 189.588 265.82 187.142 266.674C187.434 267.978 187.98 269.382 188.777 270.761C190.984 274.584 194.325 276.848 196.499 276.096ZM171.728 278.923C173.693 278.25 175.766 275.679 176.88 272.25C177.399 270.653 177.638 269.086 177.626 267.695C175.097 267.378 172.647 266.6 170.398 265.401C169.585 266.513 168.869 267.907 168.357 269.483C166.902 273.962 167.632 278.212 169.985 278.977C170.536 279.156 171.126 279.131 171.728 278.923ZM205.811 267.483C206.364 267.292 206.816 266.979 207.134 266.541C208.588 264.54 206.681 260.672 202.871 257.904C201.629 257.002 200.339 256.329 199.113 255.899C197.991 258.264 196.435 260.398 194.526 262.189C195.314 263.226 196.356 264.249 197.603 265.155C200.579 267.317 203.836 268.168 205.811 267.483ZM161.644 272.523C163.358 271.967 165.282 270.672 166.956 268.813C168.096 267.547 168.959 266.192 169.514 264.9C167.333 263.597 165.407 261.907 163.831 259.914C162.633 260.599 161.409 261.584 160.298 262.819C157.147 266.319 156.082 270.498 157.921 272.154C158.783 272.93 160.132 273.014 161.644 272.523ZM209.866 256.318C211.377 255.826 212.417 254.966 212.658 253.832C213.172 251.412 209.858 248.655 205.252 247.676C203.797 247.367 202.387 247.273 201.124 247.365C201.073 250.008 200.523 252.618 199.501 255.056C200.616 255.65 201.937 256.135 203.386 256.443C205.833 256.963 208.153 256.876 209.866 256.318Z" stroke="#C4494B"/>
<path d="M259.007 230.82C260.393 228.984 259.273 225.107 256.319 221.826C255.223 220.609 254.02 219.635 252.838 218.951C251.279 220.991 249.359 222.726 247.172 224.07C247.728 225.314 248.567 226.608 249.659 227.821C252.81 231.321 256.856 232.815 258.695 231.159C258.81 231.056 258.914 230.942 259.007 230.82ZM266.514 220.278C266.602 220.152 266.678 220.019 266.741 219.877C267.747 217.617 265.076 214.231 260.774 212.315C259.326 211.671 257.88 211.278 256.557 211.123C255.952 213.642 254.883 216.027 253.405 218.155C254.408 219.038 255.676 219.854 257.13 220.501C261.163 222.297 265.196 222.164 266.514 220.278ZM248.135 237.125C249.33 235.426 249.495 232.127 248.381 228.698C247.862 227.102 247.134 225.694 246.308 224.575C244.075 225.804 241.636 226.615 239.111 226.968C239.107 228.346 239.347 229.893 239.86 231.47C241.315 235.948 244.403 238.958 246.757 238.193C247.308 238.014 247.769 237.645 248.135 237.125ZM268.985 207.837C269.32 207.356 269.501 206.839 269.501 206.297C269.501 203.823 265.685 201.816 260.976 201.816C259.44 201.816 258.001 202.029 256.757 202.402C257.24 204.975 257.235 207.616 256.743 210.187C257.991 210.563 259.434 210.778 260.975 210.778C264.654 210.778 267.79 209.552 268.985 207.837ZM236.216 237.875C237.275 236.418 238.07 234.239 238.332 231.752C238.51 230.057 238.412 228.453 238.102 227.081C235.571 227.31 233.02 227.076 230.573 226.388C230.006 227.647 229.596 229.163 229.422 230.816C228.93 235.499 230.525 239.506 232.986 239.765C234.139 239.886 235.281 239.16 236.216 237.875ZM265.703 196.421C266.636 195.134 266.972 193.827 266.5 192.768C265.494 190.508 261.192 190.226 256.89 192.141C255.531 192.746 254.336 193.499 253.367 194.316C254.88 196.484 255.969 198.918 256.575 201.492C257.826 201.317 259.18 200.933 260.534 200.33C262.819 199.313 264.645 197.879 265.703 196.421Z" stroke="#C4494B"/>
<path d="M290.479 146.906C290.522 144.605 287.337 142.127 283.018 141.209C281.417 140.869 279.87 140.788 278.512 140.929C278.45 143.496 277.917 146.029 276.937 148.402C278.118 149.08 279.558 149.634 281.155 149.974C285.761 150.953 289.912 149.784 290.427 147.363C290.458 147.212 290.476 147.059 290.479 146.906ZM290.357 133.964C290.354 133.811 290.336 133.658 290.304 133.506C289.79 131.086 285.638 129.917 281.032 130.896C279.482 131.226 278.081 131.758 276.92 132.41C277.911 134.804 278.448 137.362 278.504 139.952C279.834 140.077 281.339 139.992 282.896 139.66C287.214 138.743 290.399 136.265 290.357 133.964ZM285.39 158.397C285.358 156.32 283.552 153.554 280.636 151.435C279.277 150.448 277.861 149.737 276.535 149.318C275.451 151.625 273.955 153.715 272.119 155.483C272.926 156.601 274.03 157.711 275.371 158.686C279.181 161.454 283.448 162.073 284.903 160.071C285.243 159.602 285.4 159.033 285.39 158.397ZM285.043 122.447C285.031 121.861 284.874 121.336 284.556 120.898C283.101 118.896 278.834 119.515 275.024 122.283C273.782 123.186 272.743 124.205 271.956 125.238C273.859 127.036 275.407 129.175 276.52 131.544C277.75 131.115 279.045 130.44 280.291 129.534C283.268 127.372 285.084 124.537 285.043 122.447ZM276.188 166.01C276.189 164.208 275.552 161.978 274.301 159.812C273.449 158.336 272.427 157.096 271.369 156.169C269.456 157.841 267.254 159.151 264.871 160.033C265.153 161.385 265.712 162.852 266.542 164.292C268.897 168.37 272.543 170.674 274.686 169.437C275.69 168.857 276.187 167.599 276.188 166.01ZM275.677 115.141C275.676 113.551 275.18 112.296 274.175 111.716C272.032 110.48 268.387 112.78 266.032 116.858C265.289 118.146 264.764 119.458 264.46 120.688C266.958 121.553 269.27 122.882 271.273 124.608C272.183 123.731 273.052 122.625 273.793 121.341C275.044 119.175 275.678 116.942 275.677 115.141Z" stroke="#C4494B"/>
<path d="M266.609 60.5215C265.291 58.6355 261.258 58.5029 257.225 60.2985C255.728 60.9645 254.43 61.8083 253.414 62.7206C254.873 64.8332 255.93 67.1963 256.532 69.6917C257.887 69.5466 259.377 69.1484 260.869 68.4846C265.17 66.5694 267.842 63.1832 266.835 60.9229C266.772 60.7819 266.697 60.6472 266.609 60.5215ZM258.903 50.1239C258.81 50.0015 258.706 49.8881 258.591 49.7843C256.753 48.1287 252.707 49.6229 249.556 53.1224C248.496 54.3002 247.675 55.5545 247.119 56.7642C249.327 58.1189 251.265 59.8724 252.833 61.9353C253.983 61.2544 255.15 60.3009 256.215 59.1174C259.169 55.8366 260.29 51.96 258.903 50.1239ZM269.246 72.8099C267.999 71.1483 264.913 69.9719 261.307 69.9719C259.629 69.972 258.065 70.2287 256.745 70.6692C257.225 73.1728 257.242 75.743 256.797 78.253C258.106 78.6828 259.653 78.9323 261.31 78.9323C266.02 78.9323 269.836 76.9248 269.836 74.4506C269.836 73.8708 269.627 73.3185 269.246 72.8099ZM247.834 43.9294C247.481 43.4626 247.044 43.13 246.529 42.9627C244.176 42.1981 241.088 45.2074 239.632 49.6861C239.158 51.1463 238.916 52.5812 238.887 53.8799C241.483 54.2158 243.993 55.0361 246.286 56.2984C247.029 55.2283 247.68 53.9215 248.156 52.4559C249.293 48.957 249.096 45.5964 247.834 43.9294ZM266.276 84.3773C265.217 82.9192 263.391 81.4898 261.106 80.4723C259.549 79.7793 257.994 79.3766 256.593 79.2481C256.028 81.7256 255.017 84.0795 253.608 86.1941C254.63 87.122 255.944 87.9809 257.463 88.6568C261.765 90.5722 266.068 90.293 267.075 88.0327C267.547 86.9732 267.209 85.6638 266.276 84.3773ZM235.963 43.5234C235.028 42.2378 233.888 41.5148 232.735 41.6361C230.274 41.895 228.677 45.8993 229.169 50.5825C229.325 52.0614 229.671 53.4312 230.148 54.6048C232.678 53.8363 235.33 53.5525 237.964 53.7713C238.185 52.5274 238.238 51.1214 238.083 49.6474C237.822 47.1594 237.022 44.9803 235.963 43.5234Z" stroke="#C4494B"/>
<path d="M196.521 4.66351C194.346 3.91237 191.006 6.17563 188.798 9.99888C187.979 11.4171 187.425 12.8628 187.14 14.198C189.561 15.0498 191.805 16.3403 193.76 18.005C194.77 17.0916 195.742 15.8934 196.558 14.4798C198.913 10.4017 199.083 6.09206 196.941 4.85496C196.807 4.77797 196.666 4.71352 196.521 4.66351ZM184.176 0.780957C184.029 0.736369 183.878 0.705671 183.724 0.689303C181.263 0.430637 178.868 4.0176 178.376 8.70087C178.211 10.277 178.284 11.7741 178.545 13.0798C181.128 12.8774 183.727 13.157 186.208 13.9043C186.737 12.6777 187.121 11.2201 187.287 9.63666C187.749 5.24607 186.377 1.45136 184.176 0.780957ZM205.878 13.055C203.892 12.4437 200.704 13.3059 197.787 15.425C196.429 16.4118 195.315 17.5389 194.506 18.6708C196.366 20.4145 197.891 22.4835 199.006 24.7758C200.318 24.3539 201.715 23.6468 203.056 22.6725C206.866 19.9046 208.774 16.0373 207.319 14.0356C206.979 13.5665 206.485 13.242 205.878 13.055ZM171.579 2.2758C171.019 2.10569 170.471 2.09324 169.956 2.26058C167.603 3.02514 166.873 7.27511 168.328 11.7537C168.803 13.2139 169.451 14.5168 170.19 15.5849C172.488 14.3306 175 13.5191 177.598 13.1923C177.57 11.8899 177.328 10.4503 176.852 8.98468C175.715 5.48579 173.58 2.88263 171.579 2.2758ZM210.274 24.159C208.561 23.6013 206.243 23.5183 203.796 24.0384C202.13 24.3926 200.635 24.9812 199.426 25.7005C200.425 28.0369 200.99 30.5359 201.093 33.0749C202.466 33.2247 204.034 33.1469 205.659 32.8013C210.266 31.8222 213.583 29.0667 213.069 26.6465C212.828 25.5121 211.785 24.651 210.274 24.159ZM161.737 8.92504C160.225 8.43463 158.878 8.51939 158.016 9.29545C156.178 10.9512 157.239 15.1296 160.39 18.6291C161.385 19.7342 162.471 20.6386 163.546 21.3076C165.141 19.199 167.12 17.4106 169.38 16.0391C168.827 14.903 168.044 13.7345 167.052 12.6331C165.378 10.7739 163.451 9.48078 161.737 8.92504Z" stroke="#C4494B"/>
<path d="M106.999 0.66771C104.798 1.33833 103.426 5.133 103.887 9.52354C104.058 11.1523 104.459 12.6477 105.013 13.8957C107.473 13.1614 110.047 12.8864 112.607 13.0845C112.887 11.7516 112.969 10.2111 112.798 8.58766C112.306 3.90438 109.911 0.317498 107.451 0.576142C107.297 0.592509 107.146 0.622953 106.999 0.66771ZM94.729 4.78322C94.5839 4.83345 94.4439 4.89725 94.3096 4.97463C92.1668 6.21172 92.3377 10.5213 94.6923 14.5994C95.4848 15.9719 96.424 17.1399 97.4027 18.0429C99.3737 16.3607 101.64 15.0596 104.087 14.2059C103.794 12.9021 103.248 11.4973 102.452 10.1186C100.244 6.29532 96.9037 4.03182 94.729 4.78322ZM119.501 1.95705C117.535 2.62953 115.463 5.20097 114.349 8.62986C113.83 10.2265 113.591 11.7933 113.602 13.1842C116.131 13.5019 118.581 14.2795 120.83 15.4786C121.644 14.3662 122.359 12.9726 122.871 11.3961C124.326 6.9175 123.597 2.6675 121.243 1.90292C120.692 1.72373 120.102 1.7511 119.501 1.95705ZM85.417 13.3964C84.8639 13.5881 84.4127 13.9004 84.0947 14.3383C82.6403 16.34 84.5479 20.2073 88.3576 22.9752C89.5998 23.8776 90.8898 24.5509 92.1158 24.9803C93.2374 22.6151 94.7932 20.4815 96.7024 18.6906C95.9143 17.6533 94.8725 16.6308 93.6258 15.725C90.6495 13.5626 87.3925 12.7113 85.417 13.3964ZM129.584 8.3563C127.87 8.91207 125.947 10.2072 124.273 12.0663C123.133 13.3324 122.269 14.6873 121.714 15.9797C123.896 17.2825 125.822 18.9721 127.397 20.9657C128.596 20.2801 129.819 19.2953 130.931 18.0604C134.082 14.5608 135.146 10.3814 133.308 8.72584C132.446 7.94979 131.096 7.86588 129.584 8.3563ZM81.3625 24.5611C79.851 25.0531 78.8113 25.9133 78.5702 27.0478C78.056 29.4679 81.3707 32.2244 85.9769 33.2035C87.4314 33.5127 88.8412 33.6063 90.1048 33.5152C90.1556 30.8719 90.7052 28.2621 91.7275 25.8241C90.6127 25.2296 89.2918 24.745 87.8421 24.4369C85.395 23.9167 83.0756 24.0034 81.3625 24.5611Z" stroke="#C4494B"/>
</svg>