<svg width="301" height="316" viewBox="0 0 301 316" fill="none" xmlns="http://www.w3.org/2000/svg">
<path d="M150.432 242.838C197.398 242.838 235.472 204.765 235.472 157.798C235.472 110.832 197.398 72.7589 150.432 72.7589C103.466 72.7589 65.3926 110.832 65.3926 157.798C65.3926 204.765 103.466 242.838 150.432 242.838Z" stroke="#C4494B"/>
<path d="M156.406 6.97327C156.406 10.2722 153.732 12.9465 150.433 12.9465C147.134 12.9465 144.46 10.2722 144.46 6.97327C144.46 3.67433 147.134 1 150.433 1C153.732 1 156.406 3.67433 156.406 6.97327ZM66.613 32.2571C68.5521 34.926 67.9605 38.6615 65.2916 40.6005C62.6227 42.5396 58.8871 41.948 56.9481 39.2791C55.009 36.6102 55.6006 32.8747 58.2695 30.9356C60.9384 28.9965 64.6739 29.5882 66.613 32.2571ZM8.83034 105.491C11.9679 106.511 13.6848 109.88 12.6654 113.018C11.6459 116.155 8.27613 117.872 5.13867 116.853C2.00115 115.834 0.284132 112.464 1.30361 109.326C2.32304 106.189 5.69288 104.472 8.83034 105.491ZM5.12903 198.703C8.26649 197.683 11.6363 199.4 12.6558 202.538C13.6752 205.675 11.9582 209.045 8.82069 210.064C5.68323 211.084 2.31339 209.367 1.29397 206.229C0.274543 203.092 1.99151 199.722 5.12903 198.703ZM56.9229 276.288C58.862 273.619 62.5975 273.027 65.2664 274.966C67.9353 276.905 68.5269 280.641 66.5879 283.31C64.6488 285.979 60.9134 286.57 58.2445 284.631C55.5756 282.692 54.9839 278.957 56.9229 276.288ZM144.429 308.612C144.429 305.313 147.103 302.639 150.402 302.639C153.701 302.639 156.375 305.313 156.375 308.612C156.375 311.911 153.701 314.585 150.402 314.585C147.103 314.585 144.429 311.911 144.429 308.612ZM234.222 283.328C232.283 280.659 232.874 276.924 235.543 274.985C238.212 273.046 241.948 273.637 243.887 276.306C245.826 278.975 245.234 282.71 242.565 284.65C239.896 286.589 236.161 285.997 234.222 283.328ZM292.004 210.094C288.867 209.075 287.15 205.705 288.169 202.567C289.189 199.43 292.559 197.713 295.696 198.732C298.834 199.752 300.551 203.121 299.531 206.259C298.512 209.396 295.142 211.113 292.004 210.094ZM295.706 116.883C292.568 117.902 289.198 116.185 288.179 113.047C287.159 109.91 288.876 106.54 292.014 105.521C295.151 104.501 298.521 106.218 299.541 109.356C300.56 112.493 298.843 115.863 295.706 116.883ZM243.912 39.2973C241.973 41.9662 238.237 42.5579 235.568 40.6188C232.899 38.6797 232.308 34.9442 234.247 32.2753C236.186 29.6064 239.921 29.0148 242.59 30.9538C245.259 32.8929 245.851 36.6284 243.912 39.2973Z" stroke="#C4494B"/>
<path d="M169.9 66.8535C163.539 66.9312 157.42 69.0575 152.414 72.783C169.003 73.1729 185.115 78.4074 198.765 87.8416C195.975 78.9175 189.062 71.4291 179.492 68.3205C176.306 67.2854 173.074 66.8147 169.9 66.8535ZM202.015 90.2011C215.2 100.262 225.156 113.958 230.656 129.605C233.64 120.747 232.448 110.632 226.535 102.495C220.62 94.355 211.364 90.0961 202.015 90.2011ZM231.898 133.434C234.264 141.339 235.467 149.546 235.468 157.797C235.461 166.052 234.251 174.262 231.878 182.168C239.515 176.758 244.508 167.863 244.507 157.791C244.506 147.731 239.522 138.845 231.898 133.434ZM230.636 185.887C225.141 201.573 215.171 215.306 201.956 225.387C211.329 225.513 220.615 221.252 226.543 213.091C232.475 204.925 233.659 194.766 230.636 185.887ZM179.507 247.27C189.082 244.158 195.997 236.661 198.783 227.729C183.319 236.368 167.282 242.263 152.385 242.764C159.894 248.376 169.913 250.388 179.507 247.27ZM148.488 242.764C131.884 242.394 115.751 237.169 102.082 227.735C104.868 236.668 111.786 244.162 121.364 247.273C130.959 250.39 140.979 248.378 148.488 242.764ZM98.9143 225.396C85.6982 215.316 75.7256 201.585 70.2292 185.899C67.2064 194.778 68.3882 204.937 74.3214 213.102C80.251 221.262 89.5408 225.523 98.9143 225.396ZM68.9849 182.18C66.6093 174.269 65.3991 166.055 65.3917 157.796C65.3995 149.542 66.6089 141.334 68.982 133.428C61.3446 138.838 56.3493 147.734 56.3501 157.805C56.3509 167.877 61.3469 176.771 68.9849 182.18ZM70.2245 129.709C75.7191 114.021 85.6908 100.288 98.9067 90.2064C89.5324 90.08 80.2426 94.344 74.3137 102.506C68.3818 110.672 67.2 120.83 70.2245 129.709ZM102.074 87.8672C115.741 78.4321 131.872 73.2052 148.475 72.8317C140.965 67.2191 130.944 65.2074 121.35 68.3256C111.774 71.4378 104.86 78.9347 102.074 87.8672Z" stroke="#C4494B"/>
<path d="M150.436 63.231C146.511 63.231 143.148 65.6249 141.721 69.0321C144.134 70.0033 146.417 71.2778 148.505 72.8354C149.148 72.8028 149.792 72.7776 150.436 72.7596C151.097 72.7607 151.758 72.7696 152.419 72.7861C154.492 71.2451 156.754 69.9802 159.145 69.0178C157.715 65.6182 154.355 63.231 150.436 63.231ZM100.302 79.4795C98.4082 79.4987 96.5024 80.0841 94.8536 81.282C91.6758 83.5908 90.3616 87.5081 91.2137 91.1052C93.7337 90.4739 96.3287 90.1653 98.9311 90.1982C99.9541 89.4183 100.995 88.6617 102.052 87.929C102.825 85.4403 103.922 83.0635 105.304 80.8591C103.788 79.9398 102.053 79.4617 100.302 79.4795ZM200.339 79.497C198.668 79.5202 197.02 79.9989 195.571 80.8766C196.933 83.0531 198.021 85.3965 198.791 87.8502C199.881 88.6048 200.954 89.3847 202.008 90.1894C204.588 90.1634 207.16 90.4761 209.658 91.1023C210.5 87.5107 209.186 83.6033 206.015 81.2995C204.301 80.0537 202.307 79.4698 200.339 79.497ZM68.7002 122.062C65.0205 122.368 61.7051 124.826 60.4928 128.558C59.2783 132.295 60.521 136.238 63.3306 138.646C64.9965 136.658 66.9116 134.885 69.0326 133.385C69.4024 132.152 69.8002 130.928 70.2256 129.713C69.3866 127.238 68.8769 124.665 68.7002 122.062ZM232.163 122.095C231.986 124.657 231.489 127.193 230.67 129.631C231.111 130.885 231.524 132.149 231.906 133.423C234.006 134.917 235.901 136.679 237.553 138.652C240.339 136.241 241.569 132.311 240.359 128.587C239.148 124.86 235.838 122.405 232.163 122.095ZM63.3015 176.924C60.5075 179.334 59.2723 183.269 60.4841 186.998C61.6986 190.736 65.0216 193.201 68.7089 193.5C68.8884 190.912 69.3943 188.351 70.2285 185.89C69.8042 184.678 69.4075 183.457 69.0385 182.227C66.9024 180.716 64.976 178.929 63.3015 176.924ZM237.538 176.956C235.873 178.943 233.959 180.715 231.839 182.215C231.47 183.446 231.073 184.668 230.649 185.881C231.488 188.354 231.998 190.926 232.175 193.526C235.841 193.208 239.138 190.748 240.347 187.028C241.558 183.301 240.33 179.367 237.538 176.956ZM91.1816 224.486C90.3415 228.076 91.6574 231.98 94.8274 234.283C98.0051 236.592 102.137 236.63 105.295 234.709C103.923 232.514 102.831 230.15 102.061 227.674C101.002 226.941 99.9609 226.185 98.9369 225.405C96.3212 225.437 93.7145 225.124 91.1816 224.486ZM209.635 224.494C207.122 225.121 204.537 225.428 201.944 225.396C200.921 226.176 199.88 226.932 198.823 227.665C198.047 230.16 196.946 232.543 195.559 234.752C198.712 236.651 202.824 236.603 205.989 234.303C209.162 231.998 210.48 228.087 209.635 224.494ZM148.517 242.761C146.421 244.325 144.126 245.607 141.703 246.579C143.138 249.97 146.494 252.351 150.407 252.351C154.331 252.351 157.694 249.959 159.122 246.553C156.722 245.584 154.451 244.312 152.373 242.761C151.727 242.794 151.082 242.819 150.436 242.837C149.796 242.819 149.156 242.794 148.517 242.761Z" stroke="#C4494B"/>
<path opacity="0.98" d="M244.498 157.13V158.536C277.863 158.821 261.619 193.623 288.278 202.594C261.437 194.183 254.123 231.886 226.962 212.505L226.135 213.643C252.961 233.485 219.364 252.092 235.658 275.02C218.887 252.438 190.809 278.642 180.227 246.997L178.889 247.432C188.929 279.253 150.811 274.558 150.516 302.685C150.222 274.558 112.104 279.253 122.143 247.432L120.805 246.997C110.224 278.642 82.1453 252.439 65.3256 274.985C81.5708 252.021 47.9731 233.414 74.7991 213.572L73.9724 212.434C46.8114 231.815 39.4973 194.112 12.6562 202.523C39.3153 193.552 23.0711 158.75 56.4369 158.465V157.059C23.0711 156.774 39.3154 121.972 12.6562 113C39.4974 121.412 46.8114 83.7084 73.9724 103.09L74.7991 101.952C47.9731 82.1095 81.571 63.5024 65.2767 40.5744C82.0474 63.1563 110.126 36.9528 120.708 68.5975L122.045 68.1629C112.006 36.342 150.124 41.0369 150.418 12.9102C150.713 41.0369 188.831 36.342 178.791 68.1629L180.129 68.5975C190.711 36.9528 218.789 63.1563 235.609 40.6099C219.364 63.5734 252.961 82.1805 226.135 102.023L226.962 103.161C254.123 83.7795 261.437 121.483 288.278 113.071C261.619 122.043 277.863 156.845 244.498 157.13Z" stroke="#C4494B"/>
<path d="M253.128 74.8902C247.792 71.1117 240.937 70.0455 234.703 72.0307C237.806 82.2074 239.779 91.9713 226.15 102.052L226.976 103.189C240.678 93.4116 249.329 98.1667 257.984 104.196C263.134 97.0687 263.407 87.1687 257.958 79.6689C256.58 77.7715 254.941 76.1743 253.128 74.8902ZM197.122 34.2105C195.443 33.0227 193.559 32.0636 191.5 31.3946C182.686 28.5309 173.36 31.8457 168.172 38.9397C176.621 45.3296 183.89 52.079 178.807 68.1924L180.143 68.626C185.501 52.603 195.347 51.4143 205.944 51.2155C205.927 44.4783 202.632 38.1084 197.122 34.2105ZM274.542 140.737C272.881 139.555 271.036 138.616 269.063 137.957C265.594 147.987 261.436 157.015 244.513 157.159L244.51 158.567C261.351 158.711 265.555 167.65 269.014 177.621C277.337 174.864 283.346 167.034 283.346 157.787C283.346 150.751 279.87 144.526 274.542 140.737ZM127.888 34.2116C122.686 30.5413 115.882 29.283 109.362 31.4015C100.55 34.2645 94.9525 42.4255 94.9221 51.2117C105.514 51.4149 115.362 52.6038 120.721 68.6286L122.059 68.1912C116.975 52.0775 124.244 45.3299 132.694 38.9399C131.344 37.0947 129.716 35.502 127.888 34.2116ZM66.2168 72.0786C57.8508 69.3901 48.3584 72.1906 42.9119 79.6869C37.4667 87.1817 37.7339 97.0734 42.8725 104.199C51.5625 98.136 60.2286 93.3049 73.9855 103.121L74.8135 101.982C61.2354 91.9385 63.1396 82.2094 66.2168 72.0786ZM258.064 211.475C249.383 217.529 240.719 222.341 226.975 212.534L226.147 213.673C239.711 223.706 237.825 233.424 234.754 243.544C243.098 246.184 252.544 243.377 257.971 235.907C263.396 228.44 263.149 218.594 258.064 211.475ZM31.92 137.956C23.5698 140.698 17.5352 148.543 17.5352 157.81C17.5352 167.072 23.5655 174.917 31.9092 177.663C35.3764 167.647 39.5464 158.638 56.4503 158.493L56.4511 157.088C39.5667 156.944 35.3848 147.958 31.92 137.956ZM205.958 264.442C195.397 264.234 185.586 263.01 180.241 247.026L178.904 247.461C183.991 263.583 176.711 270.333 168.257 276.725C173.456 283.765 182.742 287.048 191.523 284.195C200.316 281.338 205.904 273.206 205.958 264.442ZM73.9875 212.463C60.2437 222.271 51.5792 217.46 42.8976 211.405C37.7504 218.531 37.4785 228.428 42.9257 235.927C48.3723 243.424 57.8653 246.225 66.2312 243.537C63.1426 233.391 61.2207 223.653 74.8117 213.6L73.9875 212.463ZM122.157 247.46L120.82 247.027C115.45 263.087 105.57 264.246 94.9447 264.441C94.9955 273.208 100.586 281.344 109.382 284.202C118.195 287.066 127.523 283.752 132.711 276.659C124.295 270.286 117.088 263.525 122.157 247.46Z" stroke="#C4494B"/>
<path d="M249.667 79.7682C245.78 77.0158 240.767 76.285 236.245 77.8181C237.843 85.3059 237.281 92.6424 228.561 100.129C228.694 100.331 228.813 100.539 228.956 100.737C229.145 100.997 229.352 101.237 229.554 101.481C239.274 95.5619 246.383 97.2007 252.956 100.955C256.813 95.848 257.075 88.6265 253.118 83.1806C252.133 81.8253 250.962 80.6854 249.667 79.7682ZM193.663 39.0861C192.463 38.2377 191.117 37.5545 189.647 37.0767C183.249 34.9981 176.469 37.472 172.803 42.7096C178.449 47.8114 182.257 54.0644 179.629 65.1797C179.891 65.2813 180.148 65.3909 180.418 65.4787C180.689 65.5668 180.962 65.6284 181.234 65.7003C185.64 55.1699 192.393 52.3484 199.958 51.5405C200.045 46.6155 197.681 41.9291 193.663 39.0861ZM271.078 145.609C269.819 144.714 268.414 144.013 266.907 143.541C263.791 150.525 259.009 156.114 247.538 157.03C247.525 157.283 247.499 157.532 247.499 157.788C247.499 158.095 247.527 158.395 247.545 158.697C258.94 159.609 263.736 165.132 266.852 172.054C272.941 170.17 277.365 164.496 277.365 157.787C277.365 152.762 274.884 148.316 271.078 145.609ZM124.433 39.0907C120.718 36.4691 115.858 35.5703 111.201 37.0835C104.806 39.1611 100.774 45.1449 100.882 51.5345C108.45 52.3431 115.21 55.1639 119.618 65.7059C119.888 65.6344 120.16 65.5752 120.429 65.4877C120.701 65.3991 120.959 65.2869 121.222 65.1845C118.595 54.0738 122.394 47.8178 128.035 42.7172C127.039 41.2943 125.82 40.0692 124.433 39.0907ZM64.6726 77.8516C58.6281 75.7716 51.6904 77.7575 47.7374 83.1983C43.7858 88.6372 44.0403 95.8454 47.8827 100.951C54.4829 97.1545 61.6121 95.4607 71.3781 101.402C71.5534 101.187 71.7347 100.98 71.8997 100.753C72.069 100.52 72.2111 100.278 72.365 100.039C63.7059 92.5929 63.1063 85.2952 64.6726 77.8516ZM253.044 214.718C246.43 218.517 239.284 220.2 229.484 214.203C229.311 214.415 229.132 214.618 228.969 214.842C228.801 215.073 228.658 215.313 228.505 215.55C237.229 223.01 237.844 230.319 236.28 237.776C242.305 239.808 249.197 237.812 253.131 232.397C257.063 226.985 256.832 219.819 253.044 214.718ZM181.292 249.862C181.007 249.936 180.724 250.019 180.44 250.111C180.189 250.193 179.952 250.297 179.708 250.39C182.378 261.572 178.553 267.848 172.881 272.966C176.561 278.147 183.306 280.583 189.669 278.516C196.046 276.444 200.073 270.485 199.987 264.115C192.429 263.293 185.684 260.441 181.292 249.862ZM53.3464 156.95C41.9547 156.022 37.1774 150.474 34.0675 143.531C27.9528 145.4 23.502 151.084 23.502 157.81C23.502 164.532 27.9435 170.217 34.0513 172.09C37.159 165.135 41.9304 159.57 53.3271 158.634C53.3422 158.36 53.37 158.089 53.37 157.811C53.37 157.522 53.3626 157.235 53.3464 156.95ZM121.327 250.439C121.038 250.325 120.749 250.213 120.451 250.116C120.212 250.039 119.971 249.986 119.731 249.921C115.308 260.523 108.509 263.329 100.899 264.125C100.815 270.495 104.846 276.451 111.223 278.522C117.623 280.602 124.406 278.125 128.072 272.882C122.459 267.787 118.692 261.531 121.327 250.439ZM71.3754 214.183C61.6232 220.115 54.5027 218.435 47.9102 214.649C44.0571 219.756 43.7957 226.974 47.7512 232.419C51.7034 237.858 58.6405 239.842 64.6843 237.763C63.1073 230.308 63.6957 223.004 72.3622 215.549C72.2139 215.32 72.0756 215.086 71.9131 214.863C71.7418 214.627 71.5576 214.406 71.3754 214.183Z" stroke="#C4494B"/>
<path d="M5.58245 151.333C5.54012 153.633 8.72494 156.111 13.0432 157.029C14.6451 157.37 16.1913 157.45 17.5494 157.309C17.6112 154.743 18.1451 152.21 19.1244 149.837C17.9434 149.158 16.5036 148.604 14.9069 148.265C10.3008 147.285 6.14937 148.455 5.63496 150.875C5.60335 151.026 5.58527 151.179 5.58245 151.333ZM5.70492 164.274C5.70787 164.428 5.72524 164.58 5.75741 164.732C6.27181 167.152 10.4233 168.321 15.0294 167.342C16.5796 167.013 17.9807 166.48 19.1419 165.829C18.1511 163.434 17.6141 160.877 17.5581 158.286C16.2278 158.161 14.723 158.247 13.1657 158.578C8.84738 159.496 5.66234 161.974 5.70492 164.274ZM10.6719 139.841C10.7041 141.919 12.5093 144.684 15.426 146.803C16.7842 147.79 18.2005 148.502 19.5268 148.921C20.6106 146.614 22.1071 144.524 23.9426 142.755C23.136 141.638 22.0316 140.527 20.6906 139.553C16.8808 136.785 12.6133 136.166 11.159 138.167C10.8182 138.636 10.662 139.206 10.6719 139.841ZM11.019 175.792C11.0303 176.377 11.188 176.903 11.5061 177.341C12.9604 179.342 17.228 178.723 21.0377 175.955C22.2798 175.053 23.3187 174.034 24.106 173.001C22.2031 171.203 20.6548 169.064 19.5415 166.695C18.3113 167.124 17.0169 167.799 15.7702 168.704C12.7939 170.867 10.9779 173.701 11.019 175.792ZM19.8739 132.229C19.8729 134.031 20.5102 136.26 21.761 138.427C22.6129 139.902 23.6346 141.142 24.6922 142.07C26.6055 140.397 28.8075 139.088 31.1905 138.205C30.9088 136.854 30.3502 135.386 29.5193 133.947C27.1647 129.869 23.5188 127.565 21.376 128.802C20.3716 129.382 19.8748 130.639 19.8739 132.229ZM20.3843 183.098C20.3852 184.688 20.882 185.942 21.8864 186.522C24.0292 187.759 27.6751 185.458 30.0296 181.38C30.7731 180.092 31.2979 178.78 31.6017 177.551C29.1035 176.685 26.7913 175.356 24.7884 173.631C23.8786 174.507 23.0096 175.614 22.2685 176.897C21.0176 179.064 20.3833 181.296 20.3843 183.098Z" stroke="#C4494B"/>
<path d="M29.4499 237.717C30.7679 239.603 34.8009 239.736 38.8339 237.94C40.3301 237.274 41.6283 236.43 42.6441 235.518C41.1856 233.405 40.1287 231.042 39.5261 228.547C38.1718 228.692 36.6814 229.09 35.1901 229.754C30.8881 231.669 28.2169 235.055 29.2233 237.316C29.2862 237.457 29.362 237.591 29.4499 237.717ZM37.1556 248.115C37.2482 248.237 37.3521 248.351 37.4672 248.454C39.3059 250.11 43.3518 248.616 46.5027 245.116C47.5631 243.938 48.3837 242.684 48.94 241.474C46.7312 240.12 44.7934 238.366 43.2255 236.303C42.0758 236.984 40.9085 237.938 39.8434 239.121C36.8894 242.402 35.769 246.278 37.1556 248.115ZM26.8129 225.429C28.0598 227.09 31.1459 228.267 34.7512 228.267C36.43 228.267 37.994 228.01 39.3134 227.569C38.834 225.066 38.8165 222.495 39.2615 219.986C37.9522 219.556 36.4058 219.306 34.7482 219.306C30.0391 219.306 26.2227 221.314 26.2227 223.788C26.2226 224.368 26.4311 224.92 26.8129 225.429ZM48.2248 254.309C48.578 254.776 49.0145 255.109 49.5292 255.276C51.8824 256.04 54.9709 253.031 56.4261 248.552C56.9005 247.092 57.1422 245.657 57.1717 244.359C54.5757 244.023 52.0658 243.202 49.7725 241.94C49.0295 243.01 48.3789 244.317 47.9028 245.783C46.7659 249.281 46.9628 252.642 48.2248 254.309ZM29.783 213.861C30.8411 215.319 32.6673 216.749 34.9527 217.766C36.5091 218.459 38.0646 218.862 39.4653 218.99C40.0301 216.513 41.0419 214.159 42.451 212.044C41.4286 211.116 40.1141 210.258 38.596 209.582C34.294 207.666 29.9902 207.945 28.9838 210.206C28.5121 211.265 28.8493 212.575 29.783 213.861ZM60.0959 254.715C61.031 256.001 62.1703 256.724 63.3238 256.602C65.7844 256.343 67.3817 252.339 66.8894 247.656C66.734 246.177 66.3874 244.807 65.9103 243.634C63.3807 244.402 60.7288 244.686 58.0942 244.467C57.8733 245.711 57.8206 247.117 57.9755 248.591C58.237 251.079 59.0362 253.258 60.0959 254.715Z" stroke="#C4494B"/>
<path d="M37.0471 67.4187C35.6606 69.2549 36.7808 73.1315 39.7348 76.4123C40.8305 77.6295 42.0342 78.6033 43.2158 79.2875C44.7743 77.2476 46.6951 75.5121 48.8822 74.168C48.3257 72.9248 47.4864 71.6304 46.3943 70.4171C43.2433 66.9176 39.1974 65.4235 37.3587 67.0791C37.2441 67.1825 37.1395 67.2962 37.0471 67.4187ZM29.5396 77.9603C29.4517 78.0862 29.376 78.22 29.3128 78.3616C28.3064 80.6219 30.9777 84.008 35.2797 85.9233C36.7275 86.5678 38.174 86.9607 39.4965 87.1159C40.1023 84.5965 41.1711 82.2118 42.6485 80.0831C41.6457 79.2001 40.3781 78.3846 38.9234 77.7374C34.8903 75.9418 30.8573 76.0741 29.5396 77.9603ZM47.9191 61.1134C46.7242 62.8127 46.559 66.1113 47.6731 69.5402C48.1919 71.1367 48.9195 72.5449 49.7461 73.6636C51.979 72.434 54.418 71.6231 56.9427 71.2709C56.9468 69.8929 56.7063 68.3451 56.1941 66.7686C54.7389 62.29 51.6503 59.2807 49.2972 60.0452C48.7458 60.2244 48.2848 60.5931 47.9191 61.1134ZM27.0688 90.4019C26.7339 90.882 26.5525 91.3999 26.5525 91.9411C26.5525 94.4154 30.3689 96.4229 35.078 96.4229C36.6134 96.4228 38.0528 96.2092 39.297 95.836C38.8142 93.2633 38.8188 90.6227 39.3106 88.0516C38.0633 87.6756 36.6195 87.4607 35.0785 87.4607C31.3995 87.4607 28.2642 88.6865 27.0688 90.4019ZM59.8382 60.3636C58.7784 61.8205 57.9833 63.999 57.7218 66.4869C57.5437 68.1813 57.6415 69.7852 57.952 71.157C60.4829 70.9286 63.0341 71.1635 65.4807 71.8501C66.0473 70.5911 66.458 69.0754 66.6316 67.4228C67.1239 62.7395 65.5284 58.7326 63.0677 58.474C61.9143 58.3527 60.7732 59.078 59.8382 60.3636ZM30.351 101.817C29.4174 103.104 29.0818 104.411 29.5536 105.471C30.5601 107.731 34.862 108.012 39.164 106.097C40.5224 105.492 41.7181 104.739 42.6868 103.923C41.1742 101.755 40.0848 99.3202 39.4788 96.7469C38.2275 96.9212 36.8741 97.3056 35.5201 97.9084C33.2346 98.9259 31.4091 100.359 30.351 101.817Z" stroke="#C4494B"/>
<path d="M99.5281 293.574C101.703 294.326 105.044 292.062 107.251 288.239C108.07 286.821 108.624 285.375 108.91 284.04C106.488 283.188 104.244 281.898 102.29 280.233C101.279 281.146 100.308 282.345 99.4914 283.758C97.1368 287.836 96.966 292.146 99.1088 293.383C99.2426 293.46 99.383 293.524 99.5281 293.574ZM111.874 297.457C112.021 297.502 112.171 297.532 112.325 297.548C114.786 297.807 117.181 294.22 117.673 289.537C117.839 287.961 117.765 286.464 117.504 285.158C114.921 285.361 112.323 285.081 109.842 284.333C109.312 285.56 108.928 287.018 108.762 288.601C108.301 292.992 109.673 296.787 111.874 297.457ZM90.1718 285.183C92.1572 285.794 95.3453 284.932 98.2621 282.813C99.6202 281.826 100.735 280.699 101.543 279.567C99.6837 277.823 98.1588 275.754 97.0437 273.462C95.7318 273.884 94.3342 274.591 92.9931 275.565C89.1833 278.333 87.2757 282.201 88.73 284.202C89.0708 284.671 89.5639 284.996 90.1718 285.183ZM124.47 295.962C125.03 296.132 125.579 296.144 126.093 295.979C128.447 295.215 129.176 290.965 127.721 286.486C127.247 285.026 126.599 283.723 125.859 282.655C123.562 283.909 121.049 284.721 118.452 285.047C118.479 286.35 118.721 287.789 119.198 289.255C120.334 292.754 122.469 295.355 124.47 295.962ZM85.7755 274.079C87.4886 274.637 89.8062 274.72 92.2531 274.2C93.9196 273.845 95.4148 273.257 96.6235 272.538C95.6242 270.201 95.0592 267.702 94.9562 265.163C93.5837 265.014 92.0153 265.092 90.3899 265.437C85.7837 266.416 82.4659 269.172 82.9803 271.592C83.2215 272.726 84.2639 273.587 85.7755 274.079ZM134.313 289.313C135.825 289.803 137.171 289.719 138.033 288.943C139.872 287.287 138.81 283.109 135.659 279.609C134.664 278.504 133.579 277.599 132.503 276.93C130.908 279.039 128.93 280.827 126.669 282.199C127.222 283.335 128.006 284.504 128.997 285.605C130.671 287.464 132.599 288.757 134.313 289.313Z" stroke="#C4494B"/>
<path d="M189.064 297.57C191.264 296.899 192.637 293.105 192.175 288.714C192.004 287.085 191.603 285.59 191.049 284.342C188.589 285.076 186.015 285.351 183.456 285.153C183.175 286.486 183.093 288.026 183.264 289.65C183.756 294.333 186.151 297.92 188.612 297.661C188.765 297.645 188.917 297.616 189.064 297.57ZM201.333 293.454C201.478 293.404 201.618 293.34 201.753 293.263C203.896 292.026 203.725 287.716 201.37 283.638C200.578 282.266 199.638 281.098 198.66 280.195C196.689 281.877 194.422 283.178 191.976 284.032C192.268 285.336 192.814 286.74 193.611 288.119C195.818 291.942 199.159 294.206 201.333 293.454ZM176.562 296.281C178.527 295.608 180.6 293.037 181.714 289.608C182.233 288.011 182.472 286.444 182.46 285.053C179.931 284.736 177.481 283.958 175.232 282.759C174.419 283.871 173.703 285.265 173.191 286.842C171.736 291.32 172.466 295.57 174.819 296.335C175.37 296.514 175.96 296.489 176.562 296.281ZM210.645 284.841C211.198 284.65 211.65 284.337 211.968 283.899C213.422 281.898 211.514 278.03 207.705 275.262C206.463 274.36 205.173 273.687 203.947 273.257C202.825 275.623 201.269 277.756 199.36 279.547C200.148 280.584 201.19 281.607 202.437 282.513C205.413 284.675 208.67 285.526 210.645 284.841ZM166.478 289.881C168.192 289.325 170.116 288.031 171.79 286.171C172.93 284.905 173.793 283.55 174.348 282.258C172.167 280.955 170.241 279.266 168.665 277.272C167.466 277.957 166.243 278.942 165.132 280.177C161.981 283.677 160.916 287.856 162.755 289.512C163.617 290.288 164.966 290.372 166.478 289.881ZM214.7 273.677C216.211 273.184 217.251 272.324 217.492 271.19C218.006 268.77 214.692 266.013 210.085 265.034C208.631 264.725 207.221 264.631 205.958 264.723C205.907 267.366 205.357 269.976 204.335 272.414C205.45 273.008 206.771 273.493 208.22 273.801C210.667 274.321 212.987 274.234 214.7 273.677Z" stroke="#C4494B"/>
<path d="M263.842 248.178C265.228 246.342 264.108 242.465 261.154 239.184C260.058 237.967 258.854 236.993 257.673 236.309C256.114 238.349 254.194 240.085 252.007 241.429C252.563 242.672 253.402 243.966 254.494 245.179C257.645 248.679 261.691 250.173 263.53 248.518C263.645 248.414 263.749 248.3 263.842 248.178ZM271.349 237.636C271.437 237.511 271.513 237.377 271.576 237.235C272.582 234.975 269.911 231.589 265.609 229.673C264.161 229.029 262.715 228.636 261.392 228.481C260.786 231 259.718 233.385 258.24 235.514C259.243 236.397 260.511 237.212 261.965 237.859C265.998 239.655 270.031 239.523 271.349 237.636ZM252.97 254.483C254.165 252.784 254.33 249.485 253.216 246.056C252.697 244.46 251.969 243.052 251.143 241.933C248.91 243.163 246.471 243.974 243.946 244.326C243.942 245.704 244.182 247.251 244.695 248.828C246.15 253.307 249.238 256.316 251.592 255.551C252.143 255.372 252.604 255.003 252.97 254.483ZM273.82 225.195C274.155 224.715 274.336 224.197 274.336 223.655C274.336 221.181 270.52 219.174 265.811 219.174C264.275 219.174 262.836 219.387 261.592 219.761C262.075 222.333 262.07 224.974 261.578 227.545C262.825 227.921 264.269 228.136 265.81 228.136C269.489 228.136 272.625 226.91 273.82 225.195ZM241.051 255.233C242.11 253.776 242.905 251.598 243.167 249.11C243.345 247.415 243.247 245.811 242.937 244.44C240.406 244.668 237.855 244.434 235.408 243.747C234.841 245.006 234.431 246.521 234.257 248.174C233.765 252.857 235.36 256.864 237.821 257.123C238.974 257.244 240.116 256.519 241.051 255.233ZM270.538 213.779C271.471 212.493 271.807 211.186 271.335 210.126C270.329 207.866 266.027 207.584 261.725 209.5C260.366 210.104 259.171 210.857 258.202 211.674C259.715 213.842 260.804 216.276 261.41 218.85C262.661 218.675 264.015 218.291 265.369 217.688C267.654 216.671 269.48 215.237 270.538 213.779Z" stroke="#C4494B"/>
<path d="M295.314 164.264C295.357 161.963 292.172 159.485 287.853 158.568C286.252 158.227 284.705 158.147 283.347 158.287C283.285 160.854 282.752 163.387 281.772 165.76C282.953 166.439 284.393 166.992 285.99 167.332C290.596 168.311 294.747 167.142 295.262 164.722C295.293 164.571 295.311 164.417 295.314 164.264ZM295.192 151.323C295.189 151.169 295.171 151.016 295.139 150.865C294.625 148.444 290.473 147.275 285.867 148.254C284.317 148.584 282.916 149.116 281.755 149.768C282.746 152.162 283.283 154.72 283.339 157.31C284.669 157.435 286.174 157.35 287.731 157.019C292.049 156.101 295.234 153.623 295.192 151.323ZM290.225 175.755C290.193 173.678 288.387 170.912 285.471 168.793C284.112 167.807 282.696 167.095 281.37 166.676C280.286 168.983 278.79 171.073 276.954 172.842C277.761 173.959 278.865 175.07 280.206 176.044C284.016 178.812 288.283 179.431 289.738 177.429C290.078 176.96 290.235 176.391 290.225 175.755ZM289.878 139.805C289.866 139.22 289.709 138.694 289.391 138.256C287.936 136.254 283.669 136.873 279.859 139.641C278.617 140.544 277.578 141.563 276.791 142.596C278.694 144.394 280.242 146.533 281.355 148.902C282.585 148.473 283.88 147.798 285.126 146.892C288.103 144.73 289.919 141.895 289.878 139.805ZM281.023 183.368C281.024 181.566 280.386 179.336 279.136 177.17C278.284 175.694 277.262 174.454 276.204 173.527C274.291 175.199 272.089 176.509 269.706 177.391C269.988 178.743 270.546 180.211 271.377 181.65C273.732 185.728 277.378 188.032 279.521 186.795C280.525 186.215 281.022 184.957 281.023 183.368ZM280.512 132.499C280.511 130.909 280.015 129.654 279.01 129.075C276.867 127.838 273.222 130.138 270.867 134.217C270.123 135.504 269.599 136.816 269.295 138.046C271.793 138.911 274.105 140.24 276.108 141.966C277.018 141.089 277.887 139.983 278.628 138.699C279.879 136.533 280.513 134.3 280.512 132.499Z" stroke="#C4494B"/>
<path d="M271.445 77.8796C270.127 75.9937 266.094 75.8611 262.061 77.6567C260.564 78.3226 259.266 79.1665 258.25 80.0788C259.709 82.1914 260.766 84.5545 261.368 87.0499C262.723 86.9048 264.213 86.5066 265.704 85.8428C270.006 83.9275 272.678 80.5413 271.671 78.281C271.608 78.1401 271.533 78.0054 271.445 77.8796ZM263.739 67.4821C263.646 67.3597 263.542 67.2462 263.427 67.1424C261.589 65.4868 257.543 66.981 254.392 70.4806C253.331 71.6584 252.511 72.9126 251.954 74.1224C254.163 75.4771 256.101 77.2305 257.669 79.2935C258.819 78.6126 259.986 77.659 261.051 76.4756C264.005 73.1947 265.126 69.3182 263.739 67.4821ZM274.082 90.168C272.835 88.5065 269.749 87.3301 266.143 87.3301C264.465 87.3301 262.901 87.5869 261.581 88.0274C262.061 90.531 262.078 93.1012 261.633 95.6111C262.942 96.0409 264.489 96.2904 266.146 96.2904C270.855 96.2904 274.672 94.283 274.672 91.8088C274.672 91.229 274.463 90.6766 274.082 90.168ZM252.67 61.2876C252.317 60.8207 251.88 60.4881 251.365 60.3209C249.012 59.5563 245.924 62.5656 244.468 67.0442C243.994 68.5044 243.752 69.9393 243.723 71.238C246.319 71.5739 248.829 72.3942 251.122 73.6565C251.865 72.5865 252.516 71.2797 252.992 69.8141C254.129 66.3152 253.932 62.9546 252.67 61.2876ZM271.112 101.735C270.053 100.277 268.227 98.8479 265.942 97.8305C264.385 97.1375 262.83 96.7348 261.429 96.6062C260.864 99.0838 259.853 101.438 258.444 103.552C259.466 104.48 260.78 105.339 262.299 106.015C266.601 107.93 270.904 107.651 271.911 105.391C272.382 104.331 272.045 103.022 271.112 101.735ZM240.799 60.8815C239.864 59.596 238.724 58.873 237.571 58.9942C235.11 59.2531 233.513 63.2574 234.005 67.9407C234.161 69.4195 234.507 70.7893 234.984 71.9629C237.514 71.1944 240.166 70.9106 242.8 71.1295C243.021 69.8856 243.074 68.4795 242.919 67.0055C242.657 64.5175 241.858 62.3384 240.799 60.8815Z" stroke="#C4494B"/>
<path d="M201.356 22.0217C199.181 21.2705 195.841 23.5338 193.633 27.357C192.814 28.7752 192.26 30.221 191.974 31.5561C194.396 32.4079 196.64 33.6985 198.594 35.3632C199.605 34.4497 200.577 33.2516 201.393 31.838C203.748 27.7598 203.918 23.4502 201.775 22.2131C201.642 22.1361 201.501 22.0717 201.356 22.0217ZM189.011 18.1391C188.864 18.0945 188.713 18.0638 188.559 18.0475C186.098 17.7888 183.703 21.3758 183.211 26.059C183.046 27.6352 183.119 29.1322 183.38 30.438C185.963 30.2356 188.562 30.5152 191.043 31.2625C191.572 30.0359 191.956 28.5783 192.122 26.9948C192.584 22.6042 191.212 18.8095 189.011 18.1391ZM210.713 30.4131C208.727 29.8019 205.539 30.664 202.622 32.7832C201.264 33.77 200.15 34.8971 199.341 36.029C201.201 37.7726 202.726 39.8417 203.841 42.1339C205.152 41.7121 206.55 41.005 207.891 40.0307C211.701 37.2627 213.609 33.3954 212.154 31.3937C211.813 30.9247 211.32 30.6002 210.713 30.4131ZM176.414 19.634C175.854 19.4638 175.306 19.4514 174.791 19.6187C172.438 20.3833 171.708 24.6333 173.163 29.1119C173.638 30.5721 174.286 31.875 175.025 32.943C177.323 31.6888 179.835 30.8772 182.433 30.5505C182.405 29.248 182.163 27.8084 181.687 26.3428C180.55 22.8439 178.415 20.2408 176.414 19.634ZM215.109 41.5171C213.396 40.9595 211.078 40.8764 208.631 41.3966C206.965 41.7507 205.47 42.3393 204.261 43.0586C205.26 45.395 205.825 47.894 205.928 50.433C207.301 50.5828 208.869 50.505 210.494 50.1595C215.101 49.1804 218.418 46.4248 217.904 44.0047C217.663 42.8702 216.62 42.0092 215.109 41.5171ZM166.572 26.2832C165.06 25.7928 163.713 25.8775 162.851 26.6536C161.013 28.3093 162.074 32.4877 165.225 35.9872C166.22 37.0923 167.306 37.9967 168.381 38.6658C169.976 36.5572 171.955 34.7688 174.215 33.3973C173.662 32.2611 172.879 31.0927 171.887 29.9912C170.213 28.1321 168.286 26.8389 166.572 26.2832Z" stroke="#C4494B"/>
<path d="M111.833 18.0259C109.632 18.6965 108.259 22.4912 108.721 26.8817C108.892 28.5104 109.293 30.0058 109.847 31.2538C112.307 30.5195 114.881 30.2445 117.441 30.4426C117.721 29.1098 117.803 27.5693 117.632 25.9458C117.14 21.2625 114.745 17.6757 112.285 17.9343C112.131 17.9507 111.98 17.9811 111.833 18.0259ZM99.5629 22.1414C99.4179 22.1916 99.2779 22.2554 99.1436 22.3328C97.0008 23.5699 97.1717 27.8794 99.5263 31.9576C100.319 33.33 101.258 34.4981 102.237 35.401C104.208 33.7189 106.474 32.4178 108.921 31.5641C108.628 30.2603 108.082 28.8554 107.286 27.4767C105.078 23.6535 101.738 21.39 99.5629 22.1414ZM124.335 19.3152C122.369 19.9877 120.297 22.5591 119.182 25.988C118.664 27.5846 118.425 29.1514 118.436 30.5424C120.965 30.8601 123.415 31.6377 125.664 32.8368C126.478 31.7243 127.193 30.3308 127.705 28.7543C129.16 24.2757 128.431 20.0257 126.077 19.2611C125.526 19.0819 124.936 19.1093 124.335 19.3152ZM90.251 30.7546C89.6979 30.9462 89.2467 31.2586 88.9286 31.6964C87.4743 33.6981 89.3819 37.5655 93.1916 40.3334C94.4338 41.2358 95.7238 41.9091 96.9498 42.3385C98.0714 39.9733 99.6272 37.8397 101.536 36.0488C100.748 35.0114 99.7065 33.9889 98.4598 33.0831C95.4834 30.9207 92.2264 30.0695 90.251 30.7546ZM134.418 25.7145C132.704 26.2702 130.781 27.5653 129.107 29.4244C127.967 30.6905 127.103 32.0455 126.548 33.3378C128.73 34.6406 130.656 36.3303 132.231 38.3239C133.43 37.6383 134.653 36.6535 135.765 35.4185C138.916 31.919 139.98 27.7396 138.142 26.084C137.28 25.3079 135.93 25.224 134.418 25.7145ZM86.1965 41.9193C84.6849 42.4113 83.6453 43.2715 83.4041 44.4059C82.89 46.8261 86.2047 49.5826 90.8109 50.5616C92.2654 50.8708 93.6752 50.9644 94.9388 50.8733C94.9896 48.2301 95.5392 45.6203 96.5615 43.1822C95.4467 42.5878 94.1258 42.1032 92.676 41.795C90.229 41.2749 87.9096 41.3616 86.1965 41.9193Z" stroke="#C4494B"/>
<path opacity="0.98" d="M150.406 63.2697C152.641 63.2697 154.453 57.353 154.453 50.0545C154.453 42.7559 152.641 36.8392 150.406 36.8392C148.171 36.8392 146.359 42.7559 146.359 50.0545C146.359 57.353 148.171 63.2697 150.406 63.2697Z" stroke="#C4494B"/>
<path opacity="0.98" d="M154.111 62.9722C156.169 63.954 160.866 61.0727 164.603 56.5366C168.34 52.0006 169.701 47.5275 167.644 46.5457C165.586 45.564 160.889 48.4452 157.152 52.9813C153.415 57.5173 152.054 61.9904 154.111 62.9722Z" stroke="#C4494B"/>
<path opacity="0.98" d="M146.744 62.9722C144.686 63.954 139.989 61.0727 136.252 56.5366C132.516 52.0006 131.154 47.5275 133.212 46.5457C135.27 45.5639 139.967 48.4453 143.704 52.9813C147.44 57.5174 148.802 61.9904 146.744 62.9722Z" stroke="#C4494B"/>
<path opacity="0.98" d="M90.3525 68.2649C94.6425 74.1696 96.6544 80.0212 94.8464 81.3348C93.0383 82.6485 88.0948 78.9267 83.8048 73.022C79.5148 67.1174 77.5028 61.2658 79.3109 59.9521C81.119 58.6385 86.0625 62.3602 90.3525 68.2649Z" stroke="#C4494B"/>
<path opacity="0.98" d="M102.38 67.5419C102.023 73.4081 99.9164 78.5001 97.6747 78.9152C95.433 79.3304 93.9051 74.9114 94.262 69.0452C94.6189 63.1791 96.7255 58.0871 98.9671 57.6719C101.209 57.2568 102.737 61.6757 102.38 67.5419Z" stroke="#C4494B"/>
<path opacity="0.98" d="M79.4452 84.2102C85.1345 85.6835 90.6283 85.2535 91.7158 83.2498C92.8034 81.2461 89.0728 78.4275 83.3835 76.9542C77.6942 75.4809 72.2004 75.9108 71.1129 77.9145C70.0253 79.9182 73.7558 82.7369 79.4452 84.2102Z" stroke="#C4494B"/>
<path opacity="0.98" d="M49.2042 120.674C56.1455 122.929 61.2128 126.481 60.5221 128.606C59.8315 130.732 53.6446 130.626 46.7032 128.371C39.7618 126.116 34.6946 122.564 35.3853 120.439C36.0759 118.313 42.2628 118.418 49.2042 120.674Z" stroke="#C4494B"/>
<path opacity="0.98" d="M58.5 113.022C61.6593 117.978 62.9481 123.336 61.3785 124.989C59.809 126.643 55.9755 123.966 52.8161 119.01C49.6568 114.055 48.3681 108.697 49.9376 107.043C51.5072 105.39 55.3407 108.067 58.5 113.022Z" stroke="#C4494B"/>
<path opacity="0.98" d="M49.7426 139.992C55.2114 137.84 59.4032 134.263 59.1053 132.002C58.8074 129.742 54.1326 129.654 48.6638 131.807C43.195 133.959 39.0032 137.536 39.3011 139.796C39.599 142.056 44.2738 142.144 49.7426 139.992Z" stroke="#C4494B"/>
<path opacity="0.98" d="M46.7179 187.262C53.6592 185.007 59.8462 184.901 60.5368 187.027C61.2274 189.153 56.1602 192.704 49.2188 194.959C42.2775 197.215 36.0905 197.32 35.3999 195.194C34.7093 193.069 39.7765 189.518 46.7179 187.262Z" stroke="#C4494B"/>
<path opacity="0.98" d="M49.7583 175.605C55.227 177.757 59.4189 181.334 59.1209 183.594C58.823 185.854 54.1482 185.942 48.6794 183.79C43.2107 181.638 39.0188 178.061 39.3168 175.8C39.6147 173.54 44.2895 173.453 49.7583 175.605Z" stroke="#C4494B"/>
<path opacity="0.98" d="M58.5098 202.574C61.6691 197.619 62.9578 192.261 61.3883 190.607C59.8187 188.954 55.9852 191.631 52.8259 196.586C49.6666 201.542 48.3778 206.9 49.9474 208.553C51.517 210.207 55.3505 207.53 58.5098 202.574Z" stroke="#C4494B"/>
<path opacity="0.98" d="M83.8392 242.597C88.1292 236.693 93.0727 232.971 94.8808 234.285C96.6889 235.598 94.6769 241.45 90.3869 247.355C86.0969 253.259 81.1534 256.981 79.3453 255.667C77.5372 254.354 79.5492 248.502 83.8392 242.597Z" stroke="#C4494B"/>
<path opacity="0.98" d="M79.4452 231.386C85.1345 229.913 90.6283 230.343 91.7158 232.347C92.8034 234.35 89.0729 237.169 83.3835 238.642C77.6942 240.116 72.2004 239.686 71.1129 237.682C70.0253 235.678 73.7558 232.86 79.4452 231.386Z" stroke="#C4494B"/>
<path opacity="0.98" d="M102.38 248.054C102.023 242.188 99.9164 237.096 97.6747 236.681C95.433 236.266 93.9051 240.685 94.262 246.551C94.6189 252.417 96.7254 257.509 98.9671 257.924C101.209 258.34 102.737 253.921 102.38 248.054Z" stroke="#C4494B"/>
<path opacity="0.98" d="M146.403 265.541C146.403 258.243 148.215 252.326 150.449 252.326C152.684 252.326 154.496 258.243 154.496 265.541C154.496 272.84 152.684 278.757 150.449 278.757C148.215 278.757 146.403 272.84 146.403 265.541Z" stroke="#C4494B"/>
<path opacity="0.98" d="M136.247 259.059C139.983 254.523 144.681 251.642 146.738 252.624C148.796 253.605 147.434 258.079 143.698 262.615C139.961 267.151 135.264 270.032 133.206 269.05C131.149 268.068 132.51 263.595 136.247 259.059Z" stroke="#C4494B"/>
<path opacity="0.98" d="M164.609 259.059C160.872 254.523 156.175 251.642 154.117 252.624C152.06 253.606 153.421 258.079 157.158 262.615C160.895 267.151 165.592 270.032 167.649 269.05C169.707 268.068 168.346 263.595 164.609 259.059Z" stroke="#C4494B"/>
<path opacity="0.98" d="M210.505 247.332C206.215 241.427 204.203 235.575 206.011 234.262C207.819 232.948 212.763 236.67 217.053 242.574C221.343 248.479 223.355 254.331 221.546 255.644C219.738 256.958 214.795 253.236 210.505 247.332Z" stroke="#C4494B"/>
<path opacity="0.98" d="M198.472 248.054C198.829 242.188 200.935 237.096 203.177 236.681C205.419 236.266 206.946 240.685 206.59 246.551C206.233 252.417 204.126 257.509 201.884 257.924C199.643 258.339 198.115 253.92 198.472 248.054Z" stroke="#C4494B"/>
<path opacity="0.98" d="M221.414 231.386C215.725 229.913 210.231 230.343 209.144 232.347C208.056 234.35 211.787 237.169 217.476 238.642C223.165 240.116 228.659 239.686 229.747 237.682C230.834 235.678 227.104 232.86 221.414 231.386Z" stroke="#C4494B"/>
<path opacity="0.98" d="M251.655 194.923C244.714 192.668 239.647 189.116 240.337 186.991C241.028 184.865 247.215 184.971 254.156 187.226C261.098 189.481 266.165 193.033 265.474 195.158C264.783 197.284 258.597 197.179 251.655 194.923Z" stroke="#C4494B"/>
<path opacity="0.98" d="M242.357 202.575C239.198 197.619 237.909 192.261 239.479 190.608C241.048 188.954 244.882 191.631 248.041 196.587C251.201 201.542 252.489 206.9 250.92 208.554C249.35 210.207 245.517 207.53 242.357 202.575Z" stroke="#C4494B"/>
<path opacity="0.98" d="M251.115 175.605C245.646 177.757 241.454 181.334 241.752 183.594C242.05 185.855 246.725 185.942 252.194 183.79C257.662 181.638 261.854 178.061 261.556 175.801C261.258 173.541 256.584 173.453 251.115 175.605Z" stroke="#C4494B"/>
<path opacity="0.98" d="M254.153 128.334C247.212 130.589 241.025 130.694 240.334 128.569C239.644 126.443 244.711 122.892 251.652 120.636C258.594 118.381 264.781 118.276 265.471 120.401C266.162 122.527 261.095 126.078 254.153 128.334Z" stroke="#C4494B"/>
<path opacity="0.98" d="M251.113 139.991C245.644 137.839 241.452 134.262 241.75 132.002C242.048 129.741 246.723 129.654 252.192 131.806C257.66 133.958 261.852 137.535 261.554 139.795C261.256 142.056 256.582 142.143 251.113 139.991Z" stroke="#C4494B"/>
<path opacity="0.98" d="M242.361 113.022C239.202 117.977 237.913 123.335 239.483 124.988C241.052 126.642 244.886 123.965 248.045 119.009C251.204 114.054 252.493 108.696 250.924 107.043C249.354 105.389 245.521 108.066 242.361 113.022Z" stroke="#C4494B"/>
<path opacity="0.98" d="M217.018 72.999C212.728 78.9037 207.785 82.6255 205.977 81.3118C204.169 79.9982 206.181 74.1466 210.471 68.2419C214.761 62.3372 219.704 58.6154 221.512 59.9291C223.32 61.2428 221.308 67.0943 217.018 72.999Z" stroke="#C4494B"/>
<path opacity="0.98" d="M221.42 84.2101C215.731 85.6834 210.237 85.2534 209.149 83.2497C208.062 81.246 211.792 78.4274 217.482 76.9541C223.171 75.4807 228.665 75.9107 229.752 77.9144C230.84 79.9181 227.109 82.7367 221.42 84.2101Z" stroke="#C4494B"/>
<path opacity="0.98" d="M198.478 67.5419C198.834 73.408 200.941 78.5 203.183 78.9152C205.424 79.3303 206.952 74.9114 206.595 69.0452C206.239 63.179 204.132 58.0871 201.89 57.6719C199.649 57.2568 198.121 61.6757 198.478 67.5419Z" stroke="#C4494B"/>
</svg>
