<svg width="192" height="201" viewBox="0 0 192 201" fill="none" xmlns="http://www.w3.org/2000/svg">
<path d="M95.7794 154.389C125.568 154.389 149.717 130.24 149.717 100.451C149.717 70.6624 125.568 46.5137 95.7794 46.5137C65.9905 46.5137 41.8418 70.6624 41.8418 100.451C41.8418 130.24 65.9905 154.389 95.7794 154.389Z" stroke="#C4494B" stroke-width="2"/>
<path d="M99.5687 4.78864C99.5687 6.88104 97.8724 8.57728 95.78 8.57728C93.6876 8.57728 91.9914 6.88104 91.9914 4.78864C91.9914 2.69623 93.6876 1 95.78 1C97.8724 1 99.5687 2.69623 99.5687 4.78864ZM42.616 20.8253C43.8459 22.5181 43.4707 24.8874 41.7779 26.1172C40.0851 27.3471 37.7158 26.9719 36.4859 25.2791C35.256 23.5863 35.6313 21.217 37.3241 19.9871C39.0168 18.7572 41.3861 19.1325 42.616 20.8253ZM5.96651 67.2751C7.95653 67.9217 9.04554 70.059 8.39895 72.049C7.75233 74.039 5.615 75.1281 3.62502 74.4815C1.635 73.8349 0.54595 71.6975 1.19257 69.7075C1.83916 67.7175 3.97653 66.6285 5.96651 67.2751ZM3.6189 126.396C5.60888 125.749 7.74625 126.838 8.39284 128.828C9.03946 130.818 7.95041 132.956 5.96039 133.602C3.97041 134.249 1.83304 133.16 1.18645 131.17C0.539868 129.18 1.62888 127.042 3.6189 126.396ZM36.47 175.605C37.6998 173.913 40.0691 173.537 41.762 174.767C43.4547 175.997 43.83 178.366 42.6001 180.059C41.3702 181.752 39.001 182.127 37.3082 180.897C35.6154 179.667 35.2401 177.298 36.47 175.605ZM91.9717 196.107C91.9717 194.015 93.668 192.319 95.7604 192.319C97.8528 192.319 99.549 194.015 99.549 196.107C99.549 198.2 97.8528 199.896 95.7604 199.896C93.668 199.896 91.9717 198.2 91.9717 196.107ZM148.924 180.071C147.694 178.378 148.07 176.009 149.763 174.779C151.455 173.549 153.825 173.924 155.054 175.617C156.284 177.31 155.909 179.679 154.216 180.909C152.524 182.139 150.154 181.764 148.924 180.071ZM185.574 133.621C183.584 132.974 182.495 130.837 183.141 128.847C183.788 126.857 185.925 125.768 187.915 126.415C189.905 127.061 190.994 129.199 190.348 131.189C189.701 133.179 187.564 134.268 185.574 133.621ZM187.921 74.5002C185.931 75.1468 183.794 74.0578 183.148 72.0678C182.501 70.0778 183.59 67.9404 185.58 67.2938C187.57 66.6472 189.707 67.7363 190.354 69.7263C191.001 71.7163 189.911 73.8536 187.921 74.5002ZM155.07 25.2906C153.841 26.9834 151.471 27.3587 149.778 26.1288C148.086 24.8989 147.71 22.5296 148.94 20.8368C150.17 19.1441 152.539 18.7688 154.232 19.9987C155.925 21.2286 156.3 23.5979 155.07 25.2906Z" stroke="#C4494B" stroke-width="2"/>
<path d="M108.131 42.7688C104.097 42.8181 100.216 44.1668 97.0412 46.5297C107.563 46.777 117.782 50.0971 126.44 56.0808C124.67 50.4206 120.285 45.6709 114.216 43.6993C112.195 43.0428 110.145 42.7442 108.131 42.7688ZM128.501 57.5774C136.864 63.9585 143.178 72.6458 146.667 82.5698C148.56 76.9516 147.804 70.5359 144.053 65.3748C140.302 60.212 134.431 57.5108 128.501 57.5774ZM147.455 84.9987C148.956 90.0124 149.718 95.2178 149.719 100.451C149.715 105.687 148.948 110.894 147.442 115.909C152.286 112.477 155.453 106.835 155.452 100.447C155.452 94.0663 152.291 88.4304 147.455 84.9987ZM146.654 118.268C143.169 128.217 136.845 136.927 128.464 143.321C134.409 143.401 140.299 140.698 144.059 135.522C147.821 130.343 148.572 123.899 146.654 118.268ZM114.225 157.201C120.298 155.227 124.684 150.472 126.451 144.807C116.643 150.286 106.471 154.025 97.0226 154.343C101.785 157.902 108.14 159.179 114.225 157.201ZM94.5512 154.343C84.0194 154.108 73.787 150.794 65.117 144.81C66.8843 150.476 71.2724 155.23 77.3469 157.203C83.4328 159.18 89.7885 157.904 94.5512 154.343ZM63.108 143.327C54.7255 136.933 48.4002 128.224 44.9141 118.275C42.9968 123.907 43.7463 130.35 47.5096 135.529C51.2705 140.705 57.1627 143.407 63.108 143.327ZM44.1248 115.916C42.6181 110.899 41.8505 105.689 41.8458 100.451C41.8508 95.2155 42.6178 90.0089 44.123 84.9947C39.2788 88.4262 36.1105 94.0683 36.111 100.456C36.1115 106.844 39.2803 112.485 44.1248 115.916ZM44.9111 82.636C48.3961 72.6858 54.7208 63.9751 63.1032 57.5807C57.1574 57.5006 51.2652 60.2051 47.5047 65.3818C43.7423 70.5612 42.9927 77.0043 44.9111 82.636ZM65.1122 56.0971C73.7807 50.1127 84.0117 46.7975 94.5426 46.5606C89.7794 43.0007 83.4236 41.7247 77.3383 43.7025C71.2647 45.6765 66.8789 50.4315 65.1122 56.0971Z" stroke="#C4494B" stroke-width="2"/>
<path d="M95.7805 40.4709C93.2911 40.4709 91.1579 41.9893 90.253 44.1504C91.7832 44.7664 93.2317 45.5748 94.5559 46.5627C94.9639 46.542 95.3722 46.526 95.7805 46.5146C96.1999 46.5153 96.6193 46.5209 97.0385 46.5314C98.3529 45.554 99.7877 44.7518 101.304 44.1413C100.397 41.9851 98.2666 40.4709 95.7805 40.4709ZM63.9823 50.7768C62.7812 50.789 61.5724 51.1603 60.5266 51.9201C58.5111 53.3845 57.6775 55.8691 58.218 58.1506C59.8164 57.7502 61.4623 57.5544 63.1129 57.5753C63.7617 57.0806 64.4216 56.6008 65.0923 56.136C65.5828 54.5576 66.2785 53.0501 67.1549 51.6519C66.1933 51.0688 65.0928 50.7656 63.9823 50.7768ZM127.433 50.7879C126.372 50.8026 125.327 51.1063 124.408 51.663C125.272 53.0434 125.962 54.5298 126.45 56.0861C127.142 56.5647 127.822 57.0593 128.491 57.5697C130.127 57.5533 131.758 57.7516 133.343 58.1488C133.877 55.8707 133.044 53.3924 131.033 51.9312C129.945 51.141 128.681 50.7707 127.433 50.7879ZM43.9384 77.7856C41.6046 77.9795 39.5017 79.5387 38.7328 81.9054C37.9625 84.276 38.7507 86.7766 40.5327 88.3043C41.5893 87.0433 42.804 85.9189 44.1493 84.967C44.3838 84.1851 44.6361 83.4085 44.9059 82.638C44.3738 81.0686 44.0505 79.4362 43.9384 77.7856ZM147.617 77.806C147.505 79.4311 147.189 81.0395 146.67 82.5862C146.95 83.3816 147.212 84.1835 147.454 84.9911C148.786 85.9392 149.988 87.0564 151.036 88.308C152.803 86.7788 153.583 84.2861 152.815 81.924C152.047 79.5601 149.948 78.0029 147.617 77.806ZM40.5143 112.583C38.7421 114.111 37.9587 116.607 38.7272 118.972C39.4976 121.343 41.6053 122.906 43.944 123.096C44.0578 121.454 44.3787 119.83 44.9078 118.269C44.6387 117.501 44.3871 116.726 44.1531 115.946C42.7982 114.988 41.5763 113.854 40.5143 112.583ZM151.027 112.603C149.97 113.863 148.757 114.987 147.412 115.938C147.178 116.719 146.926 117.495 146.657 118.264C147.189 119.832 147.512 121.463 147.625 123.112C149.95 122.911 152.041 121.351 152.808 118.991C153.576 116.627 152.797 114.132 151.027 112.603ZM58.1976 142.749C57.6648 145.026 58.4994 147.502 60.51 148.963C62.5255 150.428 65.1465 150.452 67.1493 149.233C66.279 147.841 65.5864 146.342 65.0978 144.771C64.4266 144.307 63.766 143.827 63.1166 143.332C61.4575 143.353 59.8042 143.154 58.1976 142.749ZM133.328 142.755C131.735 143.152 130.095 143.347 128.45 143.326C127.801 143.821 127.141 144.301 126.471 144.766C125.979 146.348 125.28 147.859 124.401 149.261C126.4 150.465 129.009 150.434 131.016 148.976C133.029 147.514 133.864 145.034 133.328 142.755ZM94.5633 154.341C93.2338 155.333 91.7786 156.146 90.2419 156.762C91.1515 158.913 93.2802 160.423 95.7621 160.423C98.2509 160.423 100.384 158.906 101.29 156.746C99.7674 156.131 98.3271 155.324 97.0089 154.341C96.5997 154.361 96.1902 154.378 95.7805 154.389C95.3746 154.377 94.9689 154.361 94.5633 154.341Z" stroke="#C4494B" stroke-width="2"/>
<path d="M160.916 47.8658C157.532 45.4693 153.184 44.793 149.23 46.0521C151.199 52.5069 152.45 58.6998 143.806 65.0939L144.329 65.8149C153.02 59.6133 158.507 62.6293 163.997 66.4532C167.263 61.9329 167.436 55.6536 163.98 50.8968C163.106 49.6933 162.067 48.6803 160.916 47.8658ZM125.394 22.0641C124.329 21.3107 123.134 20.7024 121.828 20.2781C116.238 18.4618 110.322 20.5642 107.032 25.0637C112.391 29.1166 117.002 33.3975 113.777 43.6176L114.625 43.8926C118.023 33.7298 124.268 32.9758 130.989 32.8498C130.979 28.5766 128.889 24.5364 125.394 22.0641ZM174.499 89.6302C173.445 88.8807 172.275 88.2846 171.024 87.8669C168.823 94.2284 166.186 99.9546 155.452 100.046L155.451 100.939C166.132 101.03 168.798 106.7 170.993 113.025C176.271 111.276 180.083 106.309 180.083 100.444C180.083 95.9815 177.878 92.0335 174.499 89.6302ZM81.481 22.0648C78.182 19.7369 73.8663 18.9388 69.7308 20.2825C64.142 22.0984 60.5914 27.2746 60.5721 32.8474C67.2901 32.9762 73.5364 33.7303 76.9352 43.8943L77.7839 43.6169C74.5593 33.3965 79.1703 29.1167 84.5293 25.0638C83.6733 23.8935 82.6409 22.8833 81.481 22.0648ZM42.3654 46.0825C37.0591 44.3773 31.0384 46.1535 27.5839 50.9082C24.1302 55.6619 24.2996 61.9359 27.5589 66.4553C33.0706 62.6098 38.5673 59.5456 47.2927 65.7719L47.8179 65.0491C39.2058 58.6789 40.4136 52.5081 42.3654 46.0825ZM164.047 134.497C158.541 138.337 153.046 141.389 144.329 135.168L143.804 135.891C152.407 142.254 151.211 148.419 149.263 154.837C154.555 156.512 160.546 154.731 163.988 149.993C167.429 145.257 167.273 139.012 164.047 134.497ZM20.6121 87.8665C15.3159 89.6052 11.4883 94.5812 11.4883 100.459C11.4883 106.334 15.3131 111.309 20.6052 113.051C22.8044 106.698 25.4492 100.984 36.1708 100.892L36.1713 100.001C25.4621 99.9095 22.8097 94.2105 20.6121 87.8665ZM130.998 168.092C124.3 167.96 118.077 167.184 114.687 157.046L113.839 157.322C117.065 167.547 112.448 171.828 107.086 175.883C110.383 180.348 116.273 182.43 121.843 180.62C127.42 178.808 130.964 173.651 130.998 168.092ZM47.294 135.124C38.5768 141.344 33.0812 138.293 27.5748 134.453C24.3101 138.972 24.1377 145.25 27.5926 150.006C31.0472 154.761 37.0683 156.538 42.3745 154.832C40.4155 148.397 39.1965 142.221 47.8168 135.845L47.294 135.124ZM77.846 157.321L76.9985 157.046C73.5922 167.233 67.3254 167.968 60.5864 168.091C60.6186 173.652 64.1647 178.813 69.7432 180.625C75.3333 182.441 81.2498 180.34 84.5404 175.841C79.2022 171.798 74.6312 167.51 77.846 157.321Z" stroke="#C4494B" stroke-width="2"/>
<path d="M158.726 50.9597C156.261 49.214 153.081 48.7504 150.213 49.7228C151.226 54.4721 150.87 59.1254 145.339 63.8738C145.423 64.0019 145.499 64.1339 145.59 64.2592C145.71 64.4245 145.841 64.5764 145.969 64.7315C152.134 60.9771 156.643 62.0165 160.812 64.3977C163.258 61.1586 163.424 56.5783 160.915 53.1241C160.29 52.2644 159.547 51.5415 158.726 50.9597ZM123.204 25.1565C122.444 24.6184 121.59 24.1851 120.657 23.882C116.6 22.5636 112.299 24.1327 109.974 27.4547C113.555 30.6906 115.97 34.6567 114.304 41.7068C114.47 41.7712 114.632 41.8407 114.804 41.8964C114.976 41.9522 115.149 41.9913 115.321 42.0369C118.116 35.3578 122.399 33.5683 127.197 33.0559C127.252 29.9321 125.753 26.9597 123.204 25.1565ZM172.306 92.7204C171.508 92.1524 170.616 91.7083 169.66 91.4085C167.685 95.8383 164.651 99.3834 157.376 99.9643C157.367 100.125 157.351 100.283 157.351 100.445C157.351 100.64 157.369 100.83 157.38 101.022C164.608 101.6 167.649 105.103 169.626 109.493C173.488 108.298 176.294 104.7 176.294 100.445C176.294 97.2569 174.72 94.437 172.306 92.7204ZM79.2946 25.1594C76.9381 23.4966 73.8554 22.9265 70.9015 23.8863C66.8458 25.2041 64.2883 28.9994 64.3566 33.052C69.157 33.5649 73.4444 35.354 76.2402 42.0405C76.4118 41.9951 76.5839 41.9576 76.7547 41.9021C76.9275 41.8459 77.0907 41.7748 77.258 41.7098C75.5914 34.6627 78.0014 30.6947 81.5793 27.4596C80.9471 26.5571 80.1741 25.78 79.2946 25.1594ZM41.3905 49.7441C37.5566 48.4248 33.1563 49.6844 30.649 53.1353C28.1427 56.585 28.3041 61.1569 30.7412 64.3953C34.9275 61.9872 39.4493 60.9129 45.6435 64.6811C45.7547 64.5447 45.8697 64.4139 45.9744 64.2698C46.0817 64.1221 46.1719 63.9681 46.2695 63.8165C40.7773 59.094 40.397 54.4653 41.3905 49.7441ZM160.868 136.554C156.673 138.964 152.14 140.031 145.924 136.227C145.815 136.362 145.701 136.49 145.598 136.632C145.491 136.779 145.4 136.931 145.303 137.081C150.837 141.813 151.227 146.449 150.235 151.179C154.056 152.467 158.428 151.201 160.923 147.767C163.417 144.334 163.271 139.789 160.868 136.554ZM115.358 158.844C115.178 158.891 114.998 158.944 114.818 159.003C114.658 159.054 114.508 159.12 114.353 159.179C116.047 166.272 113.621 170.252 110.023 173.499C112.357 176.784 116.635 178.33 120.671 177.018C124.716 175.704 127.27 171.925 127.216 167.884C122.422 167.363 118.144 165.554 115.358 158.844ZM34.2067 99.9137C26.9813 99.3248 23.9512 95.8057 21.9787 91.4023C18.1003 92.5879 15.2773 96.1928 15.2773 100.459C15.2773 104.722 18.0944 108.328 21.9684 109.516C23.9395 105.105 26.9659 101.575 34.1944 100.982C34.2039 100.808 34.2216 100.636 34.2216 100.46C34.2216 100.276 34.2169 100.094 34.2067 99.9137ZM77.3241 159.21C77.1413 159.138 76.958 159.067 76.7685 159.006C76.6169 158.956 76.4641 158.923 76.3119 158.882C73.5067 165.606 69.1944 167.386 64.3677 167.891C64.3141 171.931 66.8712 175.709 70.9155 177.023C74.9749 178.342 79.2775 176.77 81.6023 173.445C78.0421 170.213 75.6534 166.246 77.3241 159.21ZM45.6418 136.215C39.4563 139.977 34.94 138.911 30.7587 136.51C28.3148 139.749 28.149 144.327 30.6578 147.781C33.1645 151.231 37.5645 152.489 41.3979 151.17C40.3977 146.442 40.7708 141.809 46.2677 137.081C46.1736 136.935 46.0859 136.787 45.9828 136.645C45.8742 136.496 45.7574 136.356 45.6418 136.215Z" stroke="#C4494B" stroke-width="2"/>
<path d="M69.3201 17.4157C69.0274 14.6309 69.8979 12.2241 71.2938 11.7987C71.3869 11.7703 71.483 11.751 71.5804 11.7406C73.1411 11.5766 74.6601 13.8516 74.9723 16.8221C75.0804 17.8518 75.0285 18.8289 74.8506 19.6742C73.2272 19.5486 71.5946 19.723 70.0343 20.1888C69.6831 19.3972 69.4285 18.4487 69.3201 17.4157Z" stroke="#C4494B" stroke-width="2"/>
<path d="M63.2455 14.5304C63.3307 14.4814 63.4195 14.4409 63.5115 14.409C64.8908 13.9325 67.0096 15.3681 68.4097 17.7931C68.9148 18.6675 69.2613 19.5586 69.4467 20.3855C67.895 20.927 66.4574 21.7523 65.2073 22.8192C64.5866 22.2465 63.9908 21.5056 63.4882 20.6351C61.9948 18.0485 61.8864 15.3151 63.2455 14.5304Z" stroke="#C4494B" stroke-width="2"/>
<path d="M75.9555 16.8488C76.6621 14.674 77.9766 13.043 79.2233 12.6165C79.6049 12.4859 79.9789 12.4685 80.3287 12.5822C81.8212 13.0671 82.2841 15.7627 81.3611 18.6034C81.0362 19.6033 80.5826 20.4872 80.0667 21.1928C78.64 20.4322 77.0861 19.939 75.4819 19.7375C75.4748 18.8553 75.6265 17.8615 75.9555 16.8488Z" stroke="#C4494B" stroke-width="2"/>
<path d="M56.7665 20.4695C56.9683 20.1918 57.2544 19.9937 57.6052 19.8721C58.8582 19.4376 60.924 19.9775 62.8118 21.349C63.6025 21.9235 64.2633 22.5721 64.7631 23.23C63.5522 24.3659 62.5654 25.7192 61.854 27.2194C61.0764 26.947 60.2582 26.52 59.4704 25.9476C57.054 24.192 55.8441 21.7391 56.7665 20.4695Z" stroke="#C4494B" stroke-width="2"/>
<path d="M82.2501 19.0284C83.3118 17.8493 84.5319 17.0278 85.6189 16.6753C86.578 16.3643 87.4339 16.4175 87.9806 16.9097C89.1468 17.9598 88.4716 20.6106 86.4731 22.8303C85.7678 23.6136 84.9921 24.2382 84.2319 24.673C83.2325 23.4086 82.0109 22.3369 80.6271 21.5106C80.9792 20.6909 81.527 19.8315 82.2501 19.0284Z" stroke="#C4494B" stroke-width="2"/>
<path d="M53.2625 28.5307C53.4154 27.8111 54.0749 27.2656 55.0336 26.9535C56.1202 26.5997 57.5913 26.5448 59.1433 26.8747C60.0629 27.0701 60.9007 27.3775 61.6077 27.7545C60.9593 29.3009 60.6107 30.9562 60.5785 32.6327C59.7771 32.6905 58.8829 32.6311 57.9603 32.435C55.0388 31.814 52.9364 30.0657 53.2625 28.5307Z" stroke="#C4494B" stroke-width="2"/>
<path d="M128.08 14.3331C126.701 13.8567 124.582 15.2922 123.182 17.7171C122.663 18.6167 122.311 19.5336 122.13 20.3805C123.666 20.9208 125.089 21.7393 126.329 22.7951C126.97 22.2158 127.586 21.4558 128.104 20.5592C129.597 17.9726 129.705 15.2392 128.346 14.4545C128.262 14.4057 128.172 14.3648 128.08 14.3331Z" stroke="#C4494B" stroke-width="2"/>
<path d="M120.25 11.8705C120.157 11.8423 120.061 11.8228 119.964 11.8124C118.403 11.6483 116.884 13.9234 116.572 16.8939C116.467 17.8935 116.513 18.8431 116.679 19.6713C118.317 19.5429 119.965 19.7202 121.539 20.1942C121.875 19.4162 122.118 18.4917 122.224 17.4874C122.516 14.7026 121.646 12.2957 120.25 11.8705Z" stroke="#C4494B" stroke-width="2"/>
<path d="M134.015 19.6555C132.756 19.2678 130.733 19.8146 128.883 21.1588C128.022 21.7847 127.315 22.4995 126.802 23.2174C127.982 24.3234 128.949 25.6357 129.656 27.0896C130.488 26.822 131.375 26.3736 132.225 25.7556C134.642 24 135.852 21.5471 134.929 20.2775C134.713 19.98 134.4 19.7742 134.015 19.6555Z" stroke="#C4494B" stroke-width="2"/>
<path d="M112.261 12.8187C111.905 12.7108 111.558 12.7029 111.231 12.809C109.739 13.2939 109.276 15.9896 110.199 18.8302C110.5 19.7563 110.91 20.5827 111.379 21.2601C112.837 20.4646 114.431 19.9499 116.078 19.7426C116.06 18.9165 115.907 18.0034 115.605 17.0739C114.884 14.8546 113.53 13.2036 112.261 12.8187Z" stroke="#C4494B" stroke-width="2"/>
<path d="M136.803 26.6984C135.717 26.3447 134.247 26.292 132.695 26.6219C131.638 26.8466 130.689 27.2199 129.923 27.6761C130.557 29.158 130.915 30.743 130.98 32.3535C131.851 32.4485 132.846 32.3991 133.877 32.1799C136.798 31.5589 138.902 29.8112 138.576 28.2762C138.423 27.5566 137.762 27.0105 136.803 26.6984Z" stroke="#C4494B" stroke-width="2"/>
<path d="M106.018 17.036C105.059 16.725 104.205 16.7788 103.658 17.271C102.492 18.3211 103.165 20.9714 105.164 23.191C105.795 23.8919 106.483 24.4655 107.166 24.8899C108.177 23.5525 109.432 22.4182 110.866 21.5483C110.515 20.8276 110.018 20.0865 109.389 19.3879C108.327 18.2087 107.105 17.3885 106.018 17.036Z" stroke="#C4494B" stroke-width="2"/>
<path d="M23.8619 43.1266C22.9826 44.2913 23.6931 46.7501 25.5667 48.831C26.2617 49.603 27.0251 50.2207 27.7746 50.6546C28.763 49.3608 29.9814 48.26 31.3686 47.4075C31.0156 46.619 30.4833 45.798 29.7906 45.0285C27.792 42.8088 25.2258 41.8612 24.0596 42.9112C23.9869 42.9769 23.9206 43.049 23.8619 43.1266Z" stroke="#C4494B" stroke-width="2"/>
<path d="M19.1002 49.8128C19.0445 49.8927 18.9964 49.9776 18.9564 50.0674C18.318 51.501 20.0124 53.6487 22.741 54.8635C23.6593 55.2723 24.5767 55.5215 25.4155 55.6199C25.7998 54.022 26.4777 52.5094 27.4148 51.1592C26.7787 50.5992 25.9747 50.082 25.0521 49.6714C22.494 48.5325 19.936 48.6165 19.1002 49.8128Z" stroke="#C4494B" stroke-width="2"/>
<path d="M30.7577 39.1274C29.9998 40.2053 29.895 42.2974 30.6017 44.4722C30.9307 45.4849 31.3922 46.378 31.9165 47.0876C33.3328 46.3077 34.8797 45.7934 36.4811 45.57C36.4837 44.6959 36.3311 43.7142 36.0062 42.7143C35.0833 39.8737 33.1243 37.965 31.6318 38.4499C31.282 38.5635 30.9897 38.7974 30.7577 39.1274Z" stroke="#C4494B" stroke-width="2"/>
<path d="M17.5331 57.7041C17.3207 58.0086 17.2056 58.3371 17.2056 58.6804C17.2056 60.2497 19.6262 61.523 22.6131 61.523C23.5869 61.523 24.4998 61.3875 25.289 61.1508C24.9828 59.519 24.9857 57.8441 25.2977 56.2134C24.5065 55.9749 23.5907 55.8386 22.6133 55.8386C20.2799 55.8386 18.2913 56.6161 17.5331 57.7041Z" stroke="#C4494B" stroke-width="2"/>
<path d="M38.3176 38.6518C37.6454 39.5759 37.1411 40.9577 36.9752 42.5357C36.8623 43.6104 36.9243 44.6276 37.1212 45.4977C38.7265 45.3529 40.3446 45.5018 41.8964 45.9374C42.2558 45.1388 42.5162 44.1775 42.6264 43.1292C42.9386 40.1588 41.9267 37.6174 40.366 37.4533C39.6344 37.3764 38.9106 37.8365 38.3176 38.6518Z" stroke="#C4494B" stroke-width="2"/>
<path d="M19.6149 64.9446C19.0227 65.7606 18.8099 66.5896 19.1091 67.2616C19.7475 68.6952 22.4761 68.8739 25.2046 67.659C26.0663 67.2754 26.8246 66.7978 27.439 66.28C26.4797 64.9047 25.7887 63.3607 25.4043 61.7285C24.6107 61.8391 23.7522 62.0829 22.8934 62.4652C21.4439 63.1106 20.286 64.0198 19.6149 64.9446Z" stroke="#C4494B" stroke-width="2"/>
<path d="M8.63567 99.9636C5.89676 99.3814 3.87674 97.8098 3.90358 96.3507C3.90537 96.2534 3.91684 96.1561 3.93689 96.0603C4.26316 94.5252 6.89626 93.7835 9.81778 94.4046C10.8305 94.6199 11.7437 94.9713 12.4928 95.4017C11.8716 96.9068 11.533 98.5134 11.4938 100.141C10.6324 100.231 9.65169 100.18 8.63567 99.9636Z" stroke="#C4494B" stroke-width="2"/>
<path d="M4.01456 104.849C3.99415 104.753 3.98314 104.656 3.98127 104.559C3.95426 103.1 5.97442 101.528 8.71336 100.946C9.70111 100.736 10.6556 100.682 11.4993 100.761C11.5348 102.404 11.8754 104.026 12.5038 105.545C11.7674 105.958 10.8787 106.296 9.89547 106.505C6.97395 107.126 4.34082 106.384 4.01456 104.849Z" stroke="#C4494B" stroke-width="2"/>
<path d="M10.147 93.4778C8.29702 92.1337 7.15207 90.3795 7.13167 89.0621C7.12537 88.6587 7.22443 88.2977 7.44061 88.0002C8.36303 86.7306 11.0698 87.1233 13.4861 88.8789C14.3367 89.4969 15.0372 90.2014 15.5488 90.9101C14.3846 92.032 13.4354 93.3574 12.748 94.8208C11.9068 94.5549 11.0085 94.1036 10.147 93.4778Z" stroke="#C4494B" stroke-width="2"/>
<path d="M7.66077 112.846C7.45897 112.569 7.35899 112.235 7.35183 111.864C7.32571 110.538 8.47756 108.74 10.3653 107.369C11.1561 106.794 11.9771 106.366 12.7573 106.094C13.4634 107.597 14.4455 108.954 15.6524 110.094C15.1531 110.749 14.4941 111.395 13.7063 111.968C11.2899 113.723 8.58318 114.116 7.66077 112.846Z" stroke="#C4494B" stroke-width="2"/>
<path d="M14.1651 88.1648C13.3717 86.7907 12.9675 85.3764 12.9682 84.2337C12.9687 83.2255 13.2838 82.4279 13.9209 82.0601C15.28 81.2754 17.5925 82.7367 19.0859 85.3233C19.6129 86.2361 19.9672 87.1669 20.1459 88.0242C18.6345 88.584 17.2377 89.4146 16.0243 90.4754C15.3535 89.8872 14.7054 89.1007 14.1651 88.1648Z" stroke="#C4494B" stroke-width="2"/>
<path d="M14.2446 118.67C13.6075 118.302 13.2925 117.506 13.2919 116.498C13.2913 115.356 13.6936 113.939 14.487 112.565C14.957 111.751 15.5082 111.049 16.0853 110.493C17.3556 111.588 18.8222 112.431 20.4067 112.98C20.214 113.76 19.8812 114.592 19.4096 115.409C17.9162 117.995 15.6037 119.454 14.2446 118.67Z" stroke="#C4494B" stroke-width="2"/>
<path d="M24.9931 151.282C22.4351 152.421 19.8771 152.337 19.0412 151.141C18.9854 151.061 18.9374 150.976 18.8974 150.886C18.2591 149.453 19.9534 147.305 22.682 146.09C23.6279 145.669 24.5732 145.417 25.4322 145.325C25.8143 146.907 26.4847 148.406 27.4098 149.746C26.7655 150.325 25.9421 150.86 24.9931 151.282Z" stroke="#C4494B" stroke-width="2"/>
<path d="M24.1263 157.951C24.0533 157.885 23.9874 157.814 23.9286 157.736C23.0491 156.571 23.7598 154.113 25.6334 152.032C26.309 151.281 27.0493 150.676 27.7785 150.244C28.773 151.553 30.0021 152.665 31.4031 153.524C31.0502 154.292 30.5297 155.087 29.8572 155.834C27.8586 158.054 25.2925 159.001 24.1263 157.951Z" stroke="#C4494B" stroke-width="2"/>
<path d="M22.4036 145.147C20.1168 145.147 18.1595 144.401 17.3686 143.347C17.1264 143.024 16.9942 142.674 16.9942 142.306C16.9942 140.737 19.4149 139.464 22.4017 139.464C23.4531 139.464 24.4338 139.622 25.2643 139.895C24.982 141.487 24.9932 143.117 25.2972 144.705C24.4604 144.984 23.4684 145.147 22.4036 145.147Z" stroke="#C4494B" stroke-width="2"/>
<path d="M31.7768 162.278C31.4503 162.172 31.1734 161.961 30.9495 161.665C30.149 160.608 30.0241 158.476 30.7452 156.257C31.0472 155.327 31.4598 154.498 31.9311 153.82C33.3856 154.62 34.9776 155.141 36.6241 155.354C36.6054 156.177 36.4521 157.087 36.1512 158.014C35.2283 160.854 33.2693 162.763 31.7768 162.278Z" stroke="#C4494B" stroke-width="2"/>
<path d="M22.5314 138.487C21.0818 137.842 19.9236 136.935 19.2524 136.01C18.6602 135.194 18.4463 134.364 18.7455 133.692C19.3838 132.258 22.1136 132.081 24.8422 133.296C25.8051 133.724 26.6388 134.269 27.2873 134.858C26.3935 136.199 25.7518 137.692 25.3936 139.263C24.5052 139.182 23.5185 138.926 22.5314 138.487Z" stroke="#C4494B" stroke-width="2"/>
<path d="M40.5262 163.119C39.7946 163.196 39.072 162.738 38.4789 161.922C37.8067 160.998 37.2998 159.616 37.134 158.038C37.0357 157.103 37.0691 156.211 37.2092 155.422C38.8803 155.561 40.5623 155.381 42.1667 154.894C42.4693 155.638 42.6892 156.507 42.7878 157.445C43.1 160.415 42.0869 162.955 40.5262 163.119Z" stroke="#C4494B" stroke-width="2"/>
<path d="M68.3912 183.186C66.9911 185.611 64.8722 187.046 63.4928 186.57C63.4008 186.538 63.3118 186.497 63.2269 186.448C61.8678 185.664 61.9761 182.93 63.4695 180.343C63.9873 179.447 64.6037 178.687 65.2445 178.108C66.484 179.163 67.9073 179.982 69.4433 180.522C69.2622 181.369 68.9107 182.286 68.3912 183.186Z" stroke="#C4494B" stroke-width="2"/>
<path d="M71.6098 189.09C71.512 189.08 71.4164 189.061 71.3232 189.032C69.9272 188.607 69.0569 186.2 69.3495 183.415C69.4549 182.411 69.6984 181.486 70.0344 180.708C71.6081 181.182 73.2561 181.36 74.8946 181.231C75.0601 182.059 75.1067 183.009 75.0016 184.009C74.6895 186.979 73.1705 189.254 71.6098 189.09Z" stroke="#C4494B" stroke-width="2"/>
<path d="M62.6899 179.744C60.8399 181.088 58.8177 181.635 57.5585 181.247C57.1729 181.129 56.8602 180.923 56.644 180.625C55.7216 179.356 56.9315 176.903 59.3479 175.147C60.1985 174.529 61.085 174.081 61.9171 173.813C62.6243 175.267 63.5916 176.579 64.7709 177.685C64.2581 178.403 63.5513 179.118 62.6899 179.744Z" stroke="#C4494B" stroke-width="2"/>
<path d="M80.3423 188.095C80.0158 188.2 79.6678 188.192 79.3126 188.084C78.0435 187.699 76.6896 186.049 75.9685 183.83C75.6665 182.9 75.513 181.987 75.4954 181.161C77.1428 180.954 78.7365 180.439 80.1938 179.644C80.6628 180.321 81.0738 181.147 81.3747 182.074C82.2977 184.914 81.8348 187.61 80.3423 188.095Z" stroke="#C4494B" stroke-width="2"/>
<path d="M58.8786 174.281C57.3266 174.611 55.8566 174.558 54.77 174.204C53.8113 173.892 53.1501 173.346 52.9972 172.627C52.6709 171.092 54.7752 169.344 57.6968 168.723C58.7278 168.504 59.7225 168.455 60.5931 168.549C60.6584 170.16 61.0167 171.745 61.6506 173.227C60.8839 173.683 59.9356 174.056 58.8786 174.281Z" stroke="#C4494B" stroke-width="2"/>
<path d="M87.9153 183.632C87.3686 184.124 86.5145 184.178 85.5554 183.867C84.4684 183.514 83.246 182.694 82.1842 181.515C81.5552 180.816 81.0581 180.075 80.7077 179.355C82.1412 178.485 83.3961 177.35 84.4076 176.013C85.09 176.437 85.7785 177.011 86.4096 177.712C88.4082 179.931 89.0814 182.582 87.9153 183.632Z" stroke="#C4494B" stroke-width="2"/>
<path d="M120.279 189.104C121.675 188.679 122.545 186.272 122.252 183.487C122.144 182.454 121.889 181.506 121.538 180.714C119.978 181.18 118.345 181.354 116.722 181.228C116.544 182.074 116.492 183.051 116.6 184.081C116.912 187.051 118.431 189.326 119.992 189.162C120.089 189.151 120.186 189.133 120.279 189.104Z" stroke="#C4494B" stroke-width="2"/>
<path d="M128.061 186.494C128.153 186.461 128.242 186.421 128.327 186.372C129.686 185.588 129.578 182.854 128.084 180.268C127.582 179.397 126.986 178.656 126.365 178.084C125.115 179.15 123.678 179.976 122.126 180.517C122.311 181.344 122.658 182.235 123.163 183.11C124.563 185.535 126.682 186.97 128.061 186.494Z" stroke="#C4494B" stroke-width="2"/>
<path d="M112.349 188.286C113.596 187.86 114.91 186.229 115.617 184.054C115.946 183.041 116.098 182.047 116.091 181.165C114.486 180.964 112.932 180.47 111.506 179.71C110.99 180.416 110.536 181.299 110.211 182.299C109.288 185.14 109.751 187.836 111.244 188.32C111.594 188.434 111.968 188.418 112.349 188.286Z" stroke="#C4494B" stroke-width="2"/>
<path d="M133.967 181.031C134.318 180.909 134.604 180.711 134.806 180.433C135.728 179.164 134.519 176.711 132.102 174.955C131.314 174.383 130.496 173.956 129.718 173.683C129.007 175.184 128.02 176.537 126.809 177.673C127.309 178.331 127.97 178.979 128.761 179.554C130.648 180.925 132.714 181.465 133.967 181.031Z" stroke="#C4494B" stroke-width="2"/>
<path d="M105.954 184.227C107.041 183.875 108.261 183.053 109.322 181.874C110.045 181.071 110.593 180.212 110.945 179.392C109.562 178.566 108.34 177.494 107.341 176.23C106.58 176.664 105.805 177.289 105.099 178.072C103.101 180.292 102.426 182.943 103.592 183.993C104.139 184.485 104.995 184.538 105.954 184.227Z" stroke="#C4494B" stroke-width="2"/>
<path d="M136.539 173.949C137.498 173.637 138.157 173.092 138.31 172.372C138.636 170.837 136.534 169.089 133.612 168.468C132.69 168.272 131.795 168.212 130.994 168.27C130.962 169.947 130.613 171.602 129.965 173.148C130.672 173.525 131.51 173.833 132.429 174.028C133.981 174.358 135.452 174.303 136.539 173.949Z" stroke="#C4494B" stroke-width="2"/>
<path d="M166.005 152.072C167.879 154.153 168.589 156.611 167.71 157.776C167.651 157.853 167.585 157.926 167.512 157.992C166.346 159.042 163.78 158.094 161.781 155.874C161.089 155.105 160.556 154.284 160.203 153.495C161.591 152.643 162.809 151.542 163.797 150.248C164.547 150.682 165.31 151.3 166.005 152.072Z" stroke="#C4494B" stroke-width="2"/>
<path d="M172.616 150.835C172.576 150.925 172.527 151.01 172.472 151.09C171.636 152.286 169.078 152.37 166.52 151.231C165.597 150.821 164.793 150.304 164.157 149.744C165.094 148.393 165.772 146.881 166.156 145.283C166.995 145.381 167.913 145.63 168.831 146.039C171.56 147.254 173.254 149.402 172.616 150.835Z" stroke="#C4494B" stroke-width="2"/>
<path d="M160.97 156.431C161.677 158.605 161.572 160.697 160.814 161.775C160.582 162.105 160.29 162.339 159.94 162.453C158.448 162.938 156.489 161.029 155.566 158.188C155.241 157.188 155.088 156.207 155.091 155.333C156.692 155.109 158.239 154.595 159.655 153.815C160.18 154.525 160.641 155.418 160.97 156.431Z" stroke="#C4494B" stroke-width="2"/>
<path d="M174.366 142.222C174.366 142.566 174.251 142.894 174.039 143.199C173.281 144.287 171.292 145.064 168.959 145.064C167.981 145.064 167.066 144.928 166.274 144.689C166.586 143.059 166.589 141.384 166.283 139.752C167.072 139.515 167.985 139.38 168.959 139.38C171.946 139.38 174.366 140.653 174.366 142.222Z" stroke="#C4494B" stroke-width="2"/>
<path d="M154.597 158.367C154.431 159.945 153.927 161.327 153.254 162.251C152.661 163.066 151.938 163.526 151.206 163.449C149.645 163.285 148.633 160.744 148.946 157.774C149.056 156.725 149.316 155.764 149.676 154.965C151.227 155.401 152.846 155.55 154.451 155.405C154.648 156.275 154.71 157.292 154.597 158.367Z" stroke="#C4494B" stroke-width="2"/>
<path d="M172.463 133.641C172.762 134.313 172.549 135.142 171.957 135.958C171.286 136.883 170.128 137.792 168.679 138.438C167.82 138.82 166.961 139.064 166.168 139.174C165.783 137.542 165.092 135.998 164.133 134.623C164.747 134.105 165.506 133.627 166.367 133.244C169.096 132.029 171.824 132.208 172.463 133.641Z" stroke="#C4494B" stroke-width="2"/>
<path d="M187.67 104.552C187.696 103.093 185.676 101.521 182.937 100.939C181.921 100.723 180.941 100.672 180.079 100.762C180.04 102.389 179.701 103.996 179.08 105.501C179.829 105.932 180.743 106.283 181.755 106.498C184.677 107.119 187.31 106.378 187.636 104.843C187.656 104.747 187.668 104.649 187.67 104.552Z" stroke="#C4494B" stroke-width="2"/>
<path d="M187.592 96.344C187.59 96.2466 187.579 96.1497 187.559 96.0535C187.232 94.5185 184.599 93.7769 181.678 94.3979C180.694 94.607 179.806 94.9446 179.069 95.358C179.698 96.8766 180.038 98.4988 180.074 100.142C180.918 100.221 181.872 100.167 182.86 99.9568C185.599 99.3746 187.619 97.8031 187.592 96.344Z" stroke="#C4494B" stroke-width="2"/>
<path d="M184.441 111.841C184.421 110.523 183.276 108.769 181.426 107.425C180.565 106.799 179.666 106.348 178.825 106.082C178.138 107.545 177.188 108.871 176.024 109.993C176.536 110.701 177.236 111.406 178.087 112.024C180.503 113.78 183.21 114.172 184.132 112.903C184.349 112.605 184.448 112.244 184.441 111.841Z" stroke="#C4494B" stroke-width="2"/>
<path d="M184.221 89.0386C184.214 88.6674 184.114 88.3341 183.912 88.0563C182.99 86.7867 180.283 87.1794 177.867 88.935C177.079 89.5075 176.42 90.1537 175.921 90.809C177.128 91.9492 178.11 93.3059 178.816 94.8086C179.596 94.5365 180.417 94.1085 181.208 93.5339C183.096 92.1624 184.247 90.3645 184.221 89.0386Z" stroke="#C4494B" stroke-width="2"/>
<path d="M178.605 116.669C178.606 115.526 178.201 114.112 177.408 112.738C176.868 111.802 176.22 111.016 175.549 110.427C174.335 111.488 172.939 112.319 171.427 112.879C171.606 113.736 171.96 114.667 172.487 115.579C173.981 118.166 176.293 119.627 177.652 118.843C178.289 118.475 178.604 117.677 178.605 116.669Z" stroke="#C4494B" stroke-width="2"/>
<path d="M178.281 84.4046C178.281 83.3964 177.966 82.6006 177.328 82.2328C175.969 81.4483 173.657 82.9076 172.164 85.4942C171.692 86.311 171.359 87.1431 171.166 87.9232C172.751 88.4719 174.218 89.3149 175.488 90.4094C176.065 89.8535 176.616 89.1517 177.086 88.3376C177.88 86.9634 178.282 85.5473 178.281 84.4046Z" stroke="#C4494B" stroke-width="2"/>
<path d="M166.579 49.6203C169.137 48.4814 171.695 48.5655 172.531 49.7617C172.587 49.8415 172.635 49.9269 172.675 50.0163C173.313 51.4499 171.619 53.5976 168.89 54.8124C167.944 55.2335 166.999 55.486 166.14 55.578C165.758 53.9953 165.087 52.4965 164.162 51.1565C164.807 50.5779 165.63 50.0427 166.579 49.6203Z" stroke="#C4494B" stroke-width="2"/>
<path d="M167.446 42.9514C167.519 43.0173 167.585 43.0892 167.643 43.1669C168.523 44.3315 167.812 46.7902 165.939 48.8711C165.263 49.6218 164.523 50.2266 163.794 50.6584C162.799 49.35 161.57 48.2378 160.169 47.3786C160.522 46.6113 161.042 45.8157 161.715 45.0687C163.713 42.8491 166.28 41.9014 167.446 42.9514Z" stroke="#C4494B" stroke-width="2"/>
<path d="M169.168 55.7558C171.455 55.7558 173.413 56.5019 174.203 57.5558C174.446 57.8784 174.578 58.2287 174.578 58.5965C174.578 60.1658 172.157 61.439 169.17 61.439C168.119 61.439 167.138 61.2807 166.308 61.0081C166.59 59.4162 166.579 57.786 166.275 56.198C167.112 55.9187 168.104 55.7558 169.168 55.7558Z" stroke="#C4494B" stroke-width="2"/>
<path d="M159.795 38.6248C160.122 38.7309 160.399 38.9418 160.623 39.2379C161.423 40.2952 161.548 42.4268 160.827 44.646C160.525 45.5755 160.112 46.4044 159.641 47.0831C158.186 46.2825 156.594 45.7622 154.948 45.5492C154.967 44.7254 155.12 43.8153 155.421 42.8892C156.344 40.0485 158.303 38.1398 159.795 38.6248Z" stroke="#C4494B" stroke-width="2"/>
<path d="M169.041 62.4158C170.49 63.0611 171.648 63.9677 172.32 64.8926C172.912 65.7086 173.126 66.5391 172.827 67.2111C172.188 68.6447 169.458 68.8218 166.73 67.6069C165.767 67.1783 164.933 66.6335 164.285 66.0449C165.178 64.7037 165.82 63.2107 166.178 61.6393C167.067 61.7209 168.053 61.9763 169.041 62.4158Z" stroke="#C4494B" stroke-width="2"/>
<path d="M151.046 37.7833C151.777 37.7064 152.5 38.165 153.093 38.9804C153.765 39.9045 154.272 41.2866 154.438 42.8646C154.536 43.7995 154.503 44.6913 154.363 45.4803C152.692 45.3415 151.01 45.5215 149.405 46.0089C149.103 45.2645 148.883 44.3957 148.784 43.4577C148.472 40.4873 149.485 37.9475 151.046 37.7833Z" stroke="#C4494B" stroke-width="2"/>
<g opacity="0.98">
<path d="M98.3324 32.114C98.3324 36.7433 97.1832 40.496 95.7657 40.496C94.3482 40.496 93.1991 36.7433 93.1991 32.114C93.1991 27.4848 94.3482 23.7321 95.7657 23.7321C97.1832 23.7321 98.3324 27.4848 98.3324 32.114Z" stroke="#C4494B" stroke-width="2"/>
<path d="M104.77 36.2254C102.4 39.1025 99.4209 40.93 98.1159 40.3073C96.8108 39.6846 97.6743 36.8475 100.044 33.9704C102.414 31.0934 105.394 29.2659 106.699 29.8886C108.004 30.5113 107.14 33.3484 104.77 36.2254Z" stroke="#C4494B" stroke-width="2"/>
<path d="M93.4396 40.3073C92.1345 40.93 89.1552 39.1025 86.7851 36.2254C84.415 33.3484 83.5516 30.5113 84.8566 29.8886C86.1617 29.2658 89.141 31.0934 91.5111 33.9704C93.8812 36.8475 94.7446 39.6846 93.4396 40.3073Z" stroke="#C4494B" stroke-width="2"/>
<path d="M60.5284 51.9536C61.6752 51.1204 60.3991 47.4089 57.6781 43.6638C54.9571 39.9186 51.8216 37.5581 50.6748 38.3913C49.528 39.2245 50.8042 42.9359 53.5252 46.681C56.2462 50.4262 59.3816 52.7868 60.5284 51.9536Z" stroke="#C4494B" stroke-width="2"/>
<path d="M65.3042 43.2054C65.0778 46.9261 63.7417 50.1558 62.3199 50.4191C60.898 50.6824 59.9289 47.8796 60.1553 44.1589C60.3817 40.4382 61.7178 37.2086 63.1396 36.9452C64.5614 36.6819 65.5306 39.4847 65.3042 43.2054Z" stroke="#C4494B" stroke-width="2"/>
<path d="M58.5351 53.1684C57.8453 54.4392 54.3608 54.712 50.7523 53.7775C47.1437 52.843 44.7776 51.0552 45.4674 49.7844C46.1572 48.5135 49.6417 48.2408 53.2502 49.1752C56.8588 50.1097 59.2249 51.8975 58.5351 53.1684Z" stroke="#C4494B" stroke-width="2"/>
<path d="M31.5743 76.905C35.977 78.3355 39.191 80.588 38.7529 81.9362C38.3149 83.2843 34.3907 83.2175 29.9881 81.787C25.5854 80.3565 22.3714 78.104 22.8095 76.7558C23.2475 75.4077 27.1717 75.4744 31.5743 76.905Z" stroke="#C4494B" stroke-width="2"/>
<path d="M39.2996 79.6421C40.2951 78.5934 39.4777 75.1952 37.4739 72.052C35.47 68.9088 33.0385 67.211 32.043 68.2597C31.0475 69.3084 31.8649 72.7067 33.8688 75.8498C35.8726 78.993 38.3041 80.6909 39.2996 79.6421Z" stroke="#C4494B" stroke-width="2"/>
<path d="M31.9163 89.1579C35.385 87.7928 38.0437 85.5241 37.8547 84.0905C37.6658 82.6568 34.7007 82.6013 31.2321 83.9663C27.7634 85.3314 25.1047 87.6001 25.2937 89.0338C25.4826 90.4674 28.4477 90.5229 31.9163 89.1579Z" stroke="#C4494B" stroke-width="2"/>
<path d="M38.7608 118.991C38.3227 117.643 34.3986 117.71 29.9959 119.14C25.5932 120.571 22.3793 122.823 22.8173 124.171C23.2554 125.52 27.1795 125.453 31.5822 124.022C35.9848 122.592 39.1988 120.339 38.7608 118.991Z" stroke="#C4494B" stroke-width="2"/>
<path d="M31.916 111.746C35.3847 113.111 38.0434 115.38 37.8545 116.814C37.6655 118.247 34.7004 118.303 31.2318 116.938C27.7631 115.573 25.1044 113.304 25.2934 111.87C25.4823 110.437 28.4474 110.381 31.916 111.746Z" stroke="#C4494B" stroke-width="2"/>
<path d="M39.2996 121.262C40.2951 122.311 39.4777 125.709 37.4738 128.852C35.47 131.995 33.0385 133.693 32.043 132.644C31.0475 131.596 31.8649 128.197 33.8688 125.054C35.8726 121.911 38.304 120.213 39.2996 121.262Z" stroke="#C4494B" stroke-width="2"/>
<path d="M53.5447 154.237C56.2657 150.492 59.4012 148.131 60.548 148.965C61.6948 149.798 60.4186 153.509 57.6976 157.254C54.9767 160.999 51.8412 163.36 50.6944 162.527C49.5476 161.694 50.8237 157.982 53.5447 154.237Z" stroke="#C4494B" stroke-width="2"/>
<path d="M58.5363 147.735C57.8465 146.464 54.362 146.192 50.7535 147.126C47.1449 148.061 44.7788 149.849 45.4686 151.119C46.1583 152.39 49.6428 152.663 53.2514 151.728C56.8599 150.794 59.2261 149.006 58.5363 147.735Z" stroke="#C4494B" stroke-width="2"/>
<path d="M65.3045 157.698C65.0781 153.978 63.742 150.748 62.3202 150.485C60.8983 150.221 59.9292 153.024 60.1556 156.745C60.382 160.465 61.7181 163.695 63.1399 163.958C64.5617 164.222 65.5308 161.419 65.3045 157.698Z" stroke="#C4494B" stroke-width="2"/>
<path d="M95.7924 160.408C94.3748 160.408 93.2257 164.16 93.2257 168.79C93.2257 173.419 94.3748 177.172 95.7924 177.172C97.2099 177.172 98.359 173.419 98.359 168.79C98.359 164.16 97.2099 160.408 95.7924 160.408Z" stroke="#C4494B" stroke-width="2"/>
<path d="M86.7877 164.678C89.1578 161.801 92.1372 159.974 93.4422 160.596C94.7473 161.219 93.8838 164.056 91.5137 166.933C89.1436 169.81 86.1643 171.638 84.8593 171.015C83.5542 170.392 84.4176 167.555 86.7877 164.678Z" stroke="#C4494B" stroke-width="2"/>
<path d="M98.1197 160.596C99.4248 159.974 102.404 161.801 104.774 164.678C107.144 167.555 108.008 170.392 106.703 171.015C105.398 171.638 102.418 169.81 100.048 166.933C97.6781 164.056 96.8146 161.219 98.1197 160.596Z" stroke="#C4494B" stroke-width="2"/>
<path d="M133.881 157.24C131.16 153.495 129.884 149.783 131.031 148.95C132.178 148.117 135.313 150.477 138.034 154.223C140.755 157.968 142.032 161.679 140.885 162.512C139.738 163.346 136.602 160.985 133.881 157.24Z" stroke="#C4494B" stroke-width="2"/>
<path d="M129.239 150.484C127.818 150.748 126.481 153.977 126.255 157.698C126.029 161.419 126.998 164.222 128.42 163.958C129.841 163.695 131.178 160.465 131.404 156.745C131.63 153.024 130.661 150.221 129.239 150.484Z" stroke="#C4494B" stroke-width="2"/>
<path d="M140.808 147.126C137.199 146.192 133.715 146.464 133.025 147.735C132.335 149.006 134.701 150.794 138.31 151.728C141.918 152.663 145.403 152.39 146.092 151.119C146.782 149.848 144.416 148.061 140.808 147.126Z" stroke="#C4494B" stroke-width="2"/>
<path d="M152.805 118.968C152.367 120.316 155.58 122.568 159.983 123.999C164.386 125.429 168.31 125.496 168.748 124.148C169.186 122.8 165.972 120.547 161.569 119.117C157.167 117.686 153.243 117.619 152.805 118.968Z" stroke="#C4494B" stroke-width="2"/>
<path d="M154.084 128.852C152.08 125.709 151.263 122.31 152.258 121.262C153.254 120.213 155.685 121.911 157.689 125.054C159.693 128.197 160.51 131.595 159.515 132.644C158.519 133.693 156.088 131.995 154.084 128.852Z" stroke="#C4494B" stroke-width="2"/>
<path d="M153.703 116.813C153.514 115.38 156.173 113.111 159.641 111.746C163.11 110.381 166.075 110.436 166.264 111.87C166.453 113.304 163.794 115.572 160.326 116.937C156.857 118.303 153.892 118.247 153.703 116.813Z" stroke="#C4494B" stroke-width="2"/>
<path d="M161.562 81.7637C157.16 83.1942 153.236 83.261 152.798 81.9128C152.36 80.5647 155.574 78.3122 159.976 76.8816C164.379 75.4511 168.303 75.3844 168.741 76.7325C169.179 78.0807 165.965 80.3332 161.562 81.7637Z" stroke="#C4494B" stroke-width="2"/>
<path d="M153.703 84.0903C153.514 85.5239 156.173 87.7927 159.642 89.1578C163.11 90.5228 166.075 90.4672 166.264 89.0336C166.453 87.6 163.795 85.3313 160.326 83.9662C156.857 82.6012 153.892 82.6567 153.703 84.0903Z" stroke="#C4494B" stroke-width="2"/>
<path d="M154.084 72.0519C152.08 75.195 151.263 78.5933 152.259 79.642C153.254 80.6908 155.685 78.9929 157.689 75.8497C159.693 72.7065 160.511 69.3083 159.515 68.2596C158.52 67.2108 156.088 68.9087 154.084 72.0519Z" stroke="#C4494B" stroke-width="2"/>
<path d="M131.012 51.9394C132.159 52.7726 135.294 50.412 138.015 46.6669C140.736 42.9217 142.012 39.2103 140.865 38.3771C139.719 37.5439 136.583 39.9044 133.862 43.6496C131.141 47.3947 129.865 51.1062 131.012 51.9394Z" stroke="#C4494B" stroke-width="2"/>
<path d="M140.806 53.7776C137.197 54.7121 133.712 54.4394 133.023 53.1685C132.333 51.8977 134.699 50.1099 138.308 49.1754C141.916 48.2409 145.401 48.5136 146.09 49.7845C146.78 51.0554 144.414 52.8432 140.806 53.7776Z" stroke="#C4494B" stroke-width="2"/>
<path d="M129.24 50.4193C127.818 50.156 126.482 46.9263 126.256 43.2056C126.03 39.4849 126.999 36.6821 128.421 36.9454C129.842 37.2087 131.178 40.4384 131.405 44.1591C131.631 47.8798 130.662 50.6826 129.24 50.4193Z" stroke="#C4494B" stroke-width="2"/>
</g>
<path opacity="0.98" d="M155.44 100.028V100.92C176.602 101.101 166.299 123.174 183.208 128.864C166.184 123.529 161.545 147.443 144.317 135.15L143.793 135.872C160.808 148.457 139.498 160.259 149.833 174.802C139.196 160.479 121.386 177.099 114.675 157.028L113.826 157.303C120.194 177.486 96.0172 174.508 95.8304 192.348C95.6435 174.508 71.4666 177.486 77.8344 157.303L76.9859 157.028C70.2744 177.099 52.4651 160.479 41.797 174.779C52.1007 160.214 30.7909 148.412 47.8057 135.827L47.2813 135.105C30.054 147.398 25.415 123.484 8.39062 128.819C25.2995 123.129 14.9964 101.055 36.1592 100.875V99.9826C14.9964 99.8019 25.2996 77.7283 8.39062 72.0379C25.415 77.373 30.0541 53.4592 47.2813 65.7521L47.8057 65.0305C30.7909 52.445 52.1008 40.6432 41.766 26.1008C52.403 40.4237 70.2123 23.8037 76.9239 43.8749L77.7723 43.5992C71.4045 23.4163 95.5815 26.3941 95.7684 8.55432C95.9552 26.3941 120.132 23.4163 113.764 43.5992L114.613 43.8749C121.324 23.8037 139.134 40.4237 149.802 26.1233C139.498 40.6883 160.808 52.4901 143.793 65.0755L144.317 65.7972C161.545 53.5043 166.184 77.4181 183.208 72.083C166.299 77.7735 176.602 99.8469 155.44 100.028Z" stroke="#C4494B" stroke-width="2"/>
</svg>
