<svg width="569" height="575" viewBox="0 0 569 575" fill="none" xmlns="http://www.w3.org/2000/svg">
<path d="M374.25 508.037C293.234 616.043 247.27 564.365 173.43 545.537C99.5888 526.71 48.9011 484.517 19.8143 417.665C-9.27258 350.814 -4.65357 287.126 33.8127 224.651C72.279 162.175 94.3493 158.939 204.453 117.784C314.556 76.6295 526.934 -54.196 562.308 27.1065" stroke="#FDEBC9"/>
<path d="M366.084 488.01C292.433 586.198 250.648 539.218 183.52 522.102C116.392 504.986 70.3121 466.629 43.8695 405.855C17.4269 345.08 21.626 287.182 56.5954 230.387C91.5648 173.591 111.629 170.649 211.722 133.236C311.816 95.8219 504.887 -23.1103 537.046 50.8011" stroke="#FDEBC9"/>
<path d="M357.918 467.984C291.632 556.353 254.025 514.071 193.61 498.666C133.195 483.262 91.7231 448.74 67.9248 394.044C44.1264 339.347 47.9056 287.239 79.378 236.123C110.85 185.007 128.908 182.359 218.992 148.687C309.077 115.014 482.841 7.97542 511.784 74.4957" stroke="#FDEBC9"/>
<path d="M349.753 447.958C290.832 526.508 257.405 488.924 203.702 475.231C150 461.538 113.136 430.852 91.9819 382.233C70.8279 333.614 74.1871 287.295 102.163 241.859C130.138 196.422 146.189 194.069 226.264 164.138C306.339 134.207 460.796 39.0612 486.523 98.1904" stroke="#FDEBC9"/>
<path d="M341.587 427.932C290.031 496.663 260.782 463.777 213.792 451.796C166.803 439.814 134.547 412.964 116.037 370.422C97.5274 327.881 100.467 287.352 124.945 247.595C149.424 207.838 163.469 205.779 233.534 179.589C303.6 153.4 438.75 70.147 461.261 121.885" stroke="#FDEBC9"/>
<path d="M333.421 407.905C289.23 466.818 264.159 438.63 223.883 428.36C183.606 418.091 155.958 395.076 140.092 358.612C124.227 322.147 126.746 287.408 147.728 253.331C168.71 219.253 180.748 217.488 240.804 195.04C300.861 172.592 416.703 101.233 435.998 145.58" stroke="#FDEBC9"/>
<path d="M325.255 387.879C288.429 436.973 267.537 413.483 233.973 404.925C200.409 396.367 177.369 377.188 164.148 346.801C150.926 316.414 153.026 287.465 170.511 259.067C187.995 230.669 198.027 229.198 248.074 210.491C298.121 191.785 394.657 132.318 410.736 169.274" stroke="#FDEBC9"/>
<path d="M317.089 367.853C287.628 407.128 270.914 388.336 244.063 381.489C217.212 374.643 198.78 359.3 188.203 334.99C177.626 310.681 179.305 287.521 193.293 264.803C207.281 242.085 215.307 240.908 255.344 225.943C295.382 210.977 372.61 163.404 385.473 192.969" stroke="#FDEBC9"/>
<path d="M308.922 347.826C286.827 377.282 274.292 363.188 254.153 358.054C234.015 352.919 220.191 341.412 212.258 323.179C204.325 304.947 205.585 287.578 216.076 270.539C226.567 253.5 232.586 252.618 262.614 241.394C292.642 230.17 350.563 194.49 360.211 216.663" stroke="#FDEBC9"/>
<path d="M300.756 327.8C286.026 347.437 277.669 338.041 264.243 334.618C250.818 331.195 241.602 323.523 236.313 311.369C231.025 299.214 231.865 287.634 238.859 276.275C245.852 264.916 249.865 264.328 269.884 256.845C289.903 249.362 328.517 225.576 334.949 240.358" stroke="#FDEBC9"/>
<path d="M292.59 307.774C285.225 317.592 281.046 312.894 274.334 311.183C267.621 309.471 263.013 305.635 260.369 299.558C257.724 293.48 258.144 287.691 261.641 282.011C265.138 276.332 267.145 276.037 277.154 272.296C287.163 268.555 306.47 256.661 309.686 264.053" stroke="#FDEBC9"/>
</svg>
