<svg width="569" height="575" viewBox="0 0 569 575" fill="none" xmlns="http://www.w3.org/2000/svg">
<path fill-rule="evenodd" clip-rule="evenodd" d="M299.698 76.3739C264.633 92.7456 231.573 108.181 204.628 118.253C194.446 122.059 185.019 125.539 176.265 128.772C137.655 143.029 112.116 152.459 92.5168 163.657C68.5251 177.364 53.4452 193.718 34.2385 224.913C-4.14272 287.25 -8.74836 350.765 20.2728 417.466C49.2948 484.168 99.8542 526.262 173.553 545.053C188.362 548.829 202.056 553.925 215.109 558.783C218.356 559.991 221.563 561.185 224.737 562.339C240.693 568.143 255.833 572.969 271.178 573.851C301.788 575.609 333.391 561.674 373.85 507.737C414.327 453.775 470.167 353.906 511.466 257.361C532.115 209.091 549.121 161.669 558.754 121.247C563.571 101.036 566.542 82.5867 567.207 66.6634C567.873 50.7334 566.229 37.3704 561.85 27.306C557.48 17.2622 550.386 10.5043 541.091 6.43008C531.78 2.34954 520.239 0.952343 506.981 1.68726C480.458 3.15741 447.216 13.1494 411.585 26.99C375.963 40.8269 338.003 58.4904 302.054 75.2736L299.698 76.3739ZM541.492 5.51419C551.012 9.68652 558.293 16.6252 562.767 26.9071C567.232 37.1683 568.875 50.7035 568.207 66.7052C567.538 82.7136 564.553 101.23 559.727 121.479C550.075 161.977 533.046 209.456 512.386 257.754C471.066 354.347 415.189 454.292 374.65 508.337C334.092 562.406 302.206 576.635 271.12 574.849C255.617 573.958 240.358 569.085 224.396 563.279C221.207 562.119 217.991 560.922 214.739 559.712C201.69 554.856 188.058 549.783 173.306 546.022C99.3235 527.158 48.5074 484.865 19.3558 417.865C-9.79681 350.862 -5.16444 287.002 33.387 224.388C52.6465 193.108 67.835 176.606 92.0207 162.788C111.698 151.546 137.338 142.079 175.954 127.82C184.702 124.59 194.116 121.114 204.277 117.316C231.185 107.258 264.214 91.8375 299.3 75.4558L301.631 74.3675C337.575 57.5868 375.565 39.9088 411.223 26.0578C446.871 12.2105 480.237 2.16816 506.925 0.688789C520.273 -0.0510577 531.987 1.34819 541.492 5.51419Z" fill="#FDEBC9"/>
<path fill-rule="evenodd" clip-rule="evenodd" d="M298.327 95.6314C266.451 110.514 236.395 124.547 211.898 133.704C202.64 137.164 194.07 140.329 186.111 143.268C151.011 156.228 127.799 164.8 109.985 174.977C88.1834 187.433 74.4794 202.294 57.0211 230.649C22.1369 287.306 17.9511 345.032 44.328 405.655C70.7058 466.28 116.657 504.538 183.643 521.617C197.108 525.051 209.56 529.685 221.427 534.101C224.378 535.199 227.293 536.284 230.179 537.334C244.683 542.61 258.442 546.995 272.384 547.796C300.191 549.393 328.908 536.738 365.684 487.71C402.479 438.658 453.24 347.872 490.784 260.106C509.555 216.225 525.014 173.117 533.771 136.373C538.15 118.001 540.85 101.232 541.454 86.76C542.059 72.2814 540.564 60.1411 536.587 51.0006C532.619 41.8807 526.179 35.7453 517.739 32.0459C509.284 28.3402 498.799 27.0702 486.751 27.738C462.647 29.0741 432.432 38.1554 400.041 50.7375C367.659 63.3159 333.152 79.373 300.471 94.6306L298.327 95.6314ZM518.14 31.13C526.805 34.9275 533.433 41.2437 537.504 50.6016C541.567 59.939 543.061 72.2515 542.453 86.8017C541.845 101.359 539.131 118.195 534.744 136.605C525.968 173.425 510.486 216.59 491.703 260.499C454.139 348.313 403.341 439.175 366.484 488.31C329.609 537.47 300.608 550.419 272.327 548.794C258.226 547.984 244.348 543.552 229.837 538.273C226.938 537.219 224.013 536.131 221.056 535.03C209.194 530.616 196.804 526.005 183.396 522.587C116.126 505.435 69.9184 466.977 43.411 406.054C16.9027 345.129 21.1151 287.058 56.1696 230.124C73.6807 201.684 87.4933 186.676 109.489 174.109C127.381 163.886 150.694 155.278 185.801 142.316C193.753 139.38 202.311 136.22 211.547 132.767C236.008 123.624 266.032 109.606 297.931 94.7128L300.048 93.7244C332.723 78.4694 367.261 62.3978 399.679 49.8054C432.087 37.2166 462.425 28.0849 486.695 26.7396C498.833 26.0668 509.49 27.3389 518.14 31.13Z" fill="#FDEBC9"/>
<path fill-rule="evenodd" clip-rule="evenodd" d="M296.957 114.889C268.269 128.283 241.218 140.913 219.167 149.155C210.835 152.27 203.121 155.118 195.958 157.763C164.368 169.428 143.482 177.14 127.454 186.297C107.842 197.502 95.5136 210.87 79.8038 236.385C48.4165 287.363 44.6506 339.299 68.3832 393.844C92.1168 448.392 133.46 482.814 193.734 498.182C205.855 501.273 217.065 505.444 227.745 509.419C230.401 510.408 233.024 511.384 235.62 512.328C248.674 517.076 261.05 521.021 273.591 521.741C298.593 523.177 324.424 511.803 357.518 467.684C390.63 423.541 436.313 341.837 470.102 262.85C486.995 223.359 500.907 184.565 508.787 151.499C512.728 134.966 515.157 119.877 515.701 106.857C516.245 93.8295 514.9 82.9118 511.325 74.6952C507.759 66.4992 501.972 60.9864 494.387 57.6619C486.787 54.331 477.36 53.188 466.521 53.7889C444.836 54.9909 417.648 63.1615 388.497 74.4851C359.356 85.8049 328.3 100.256 298.887 113.988L296.957 114.889ZM494.789 56.746C502.598 60.1686 508.572 65.8622 512.242 74.2962C515.903 82.7097 517.247 93.7995 516.7 106.898C516.153 120.004 513.709 135.16 509.76 151.731C501.861 184.872 487.926 223.724 471.021 263.243C437.212 342.278 391.492 424.058 358.318 468.284C325.125 512.535 299.01 524.203 273.534 522.739C260.835 522.01 248.339 518.018 235.278 513.268C232.668 512.318 230.036 511.339 227.374 510.348C216.698 506.375 205.551 502.227 193.486 499.151C132.929 483.711 91.3294 449.089 67.4663 394.243C43.6022 339.396 47.3947 287.115 78.9523 235.86C94.7149 210.26 107.152 196.745 126.958 185.429C143.064 176.227 164.051 168.478 195.647 156.811C202.804 154.169 210.505 151.325 218.817 148.218C240.83 139.991 267.85 127.375 296.559 113.971L298.464 113.081C327.872 99.352 358.957 84.8868 388.135 73.5529C417.303 62.2227 444.614 54.0016 466.465 52.7904C477.394 52.1846 486.994 53.3297 494.789 56.746Z" fill="#FDEBC9"/>
<path fill-rule="evenodd" clip-rule="evenodd" d="M295.588 134.146C270.089 146.052 246.042 157.279 226.439 164.606C219.032 167.375 212.174 169.907 205.806 172.259C177.727 182.627 159.167 189.48 144.924 197.618C127.502 207.572 116.55 219.446 102.588 242.121C74.698 287.419 71.3521 333.565 92.4404 382.034C113.53 430.504 150.265 461.09 203.826 474.747C214.603 477.495 224.572 481.204 234.065 484.737C236.426 485.616 238.757 486.483 241.064 487.322C252.667 491.543 263.661 495.046 274.8 495.686C296.997 496.962 319.943 486.867 349.353 447.658C378.783 408.424 419.389 335.803 449.422 265.595C464.437 230.493 476.802 196.012 483.806 166.625C487.308 151.931 489.467 138.522 489.95 126.953C490.433 115.378 489.238 105.683 486.065 98.3899C482.901 91.1177 477.767 86.2275 471.037 83.2778C464.293 80.3218 455.923 79.306 446.292 79.8398C427.026 80.9077 402.866 88.1677 376.955 98.2327C351.054 108.294 323.451 121.138 297.305 133.345L295.588 134.146ZM471.439 82.3619C478.393 85.4097 483.714 90.4807 486.982 97.9909C490.24 105.48 491.436 115.348 490.949 126.995C490.462 138.649 488.29 152.125 484.779 166.856C477.756 196.32 465.368 230.858 450.341 265.988C420.288 336.244 379.645 408.941 350.153 448.258C320.643 487.599 297.414 497.987 274.742 496.685C263.446 496.036 252.331 492.485 240.722 488.262C238.401 487.418 236.06 486.547 233.694 485.666C224.205 482.135 214.299 478.449 203.579 475.716C149.734 461.987 112.742 431.201 91.5235 382.433C70.3036 333.662 73.6763 287.171 101.737 241.597C115.751 218.835 126.812 206.814 144.428 196.75C158.75 188.567 177.41 181.677 205.496 171.307C211.857 168.958 218.702 166.431 226.089 163.67C245.654 156.357 269.67 145.143 295.191 133.228L296.882 132.438C323.022 120.235 350.655 107.376 376.593 97.3006C402.522 87.2289 426.805 79.9185 446.237 78.8413C455.956 78.3026 464.499 79.3205 471.439 82.3619Z" fill="#FDEBC9"/>
<path fill-rule="evenodd" clip-rule="evenodd" d="M294.217 153.404C271.907 163.82 250.864 173.645 233.709 180.057C227.226 182.481 221.225 184.697 215.653 186.754C191.084 195.826 174.85 201.821 162.393 208.938C147.16 217.641 137.584 228.021 125.371 247.857C100.978 287.476 98.0516 327.832 116.496 370.223C134.941 412.616 167.068 439.366 213.916 451.311C223.35 453.716 232.076 456.964 240.383 460.055C242.448 460.824 244.487 461.583 246.505 462.317C256.657 466.01 266.27 469.072 276.006 469.632C295.399 470.746 315.459 461.931 341.187 427.632C366.934 393.307 402.462 329.768 428.739 268.339C441.877 237.627 452.695 207.46 458.822 181.75C461.886 168.896 463.774 157.167 464.197 147.05C464.62 136.926 463.573 128.453 460.802 122.084C458.04 115.736 453.56 111.469 447.685 108.894C441.796 106.313 434.483 105.424 426.062 105.891C409.215 106.824 388.083 113.174 365.411 121.98C342.75 130.783 318.599 142.021 295.721 152.702L294.217 153.404ZM448.087 107.978C454.186 110.651 458.853 115.099 461.719 121.686C464.576 128.251 465.622 136.896 465.196 147.092C464.77 157.294 462.868 169.09 459.795 181.982C453.65 207.768 442.809 237.992 429.659 268.732C403.361 330.209 367.796 393.824 341.987 428.232C316.16 462.663 295.817 471.771 275.949 470.63C266.054 470.061 256.322 466.952 246.163 463.257C244.132 462.518 242.083 461.755 240.012 460.985C231.709 457.895 223.046 454.671 213.669 452.28C166.537 440.263 134.153 413.313 115.579 370.622C97.0031 327.929 99.9559 287.228 124.52 247.333C136.785 227.411 146.47 216.884 161.897 208.07C174.433 200.908 190.767 194.877 215.342 185.803C220.908 183.748 226.896 181.536 233.359 179.121C250.476 172.723 271.489 162.912 293.821 152.485L295.298 151.795C318.171 141.117 342.352 129.865 365.049 121.048C387.738 112.235 408.993 105.835 426.007 104.892C434.517 104.42 442.003 105.311 448.087 107.978Z" fill="#FDEBC9"/>
<path fill-rule="evenodd" clip-rule="evenodd" d="M292.847 172.661C273.725 181.589 255.686 190.012 240.979 195.509C235.421 197.586 230.276 199.486 225.5 201.25C204.441 209.026 190.533 214.161 179.861 220.259C166.819 227.71 158.618 236.597 148.154 253.593C127.257 287.532 124.751 322.099 140.551 358.412C156.352 394.728 183.871 417.642 224.006 427.876C232.096 429.938 239.58 432.724 246.701 435.374C248.471 436.032 250.218 436.682 251.946 437.311C260.648 440.476 268.879 443.098 277.213 443.577C293.802 444.53 310.975 436.995 333.021 407.605C355.085 378.19 385.535 323.734 408.057 271.084C419.317 244.761 428.588 218.907 433.839 196.876C436.464 185.861 438.081 175.813 438.443 167.147C438.806 158.474 437.909 151.224 435.54 145.779C433.18 140.355 429.353 136.71 424.334 134.51C419.3 132.303 413.044 131.542 405.832 131.941C391.403 132.741 373.299 138.18 353.868 145.728C334.446 153.272 313.748 162.903 294.138 172.058L292.847 172.661ZM424.735 133.594C429.979 135.892 433.993 139.718 436.457 145.38C438.911 151.022 439.808 158.444 439.443 167.188C439.077 175.939 437.446 186.055 434.811 197.108C429.543 219.215 420.249 245.126 408.977 271.477C386.434 324.175 355.948 378.707 333.821 408.205C311.676 437.727 294.219 445.555 277.155 444.575C268.663 444.087 260.313 441.418 251.605 438.251C249.862 437.617 248.106 436.964 246.331 436.303C239.214 433.655 231.793 430.893 223.759 428.845C183.34 418.539 155.564 395.424 139.634 358.811C123.703 322.196 126.235 287.284 147.302 253.069C157.819 235.987 166.129 226.953 179.365 219.39C190.116 213.248 204.124 208.076 225.189 200.298C229.959 198.537 235.091 196.642 240.629 194.572C255.298 189.089 273.306 180.681 292.449 171.743L293.715 171.152C313.319 162 334.048 152.354 353.506 144.796C372.954 137.241 391.182 131.752 405.777 130.943C413.077 130.538 419.506 131.302 424.735 133.594Z" fill="#FDEBC9"/>
<path fill-rule="evenodd" clip-rule="evenodd" d="M291.476 191.919C275.543 199.358 260.508 206.378 248.249 210.96C243.616 212.692 239.327 214.275 235.346 215.745C217.798 222.225 206.217 226.502 197.33 231.579C186.477 237.78 179.652 245.173 170.936 259.329C153.537 287.589 151.451 316.366 164.606 346.601C177.763 376.84 200.674 395.918 234.096 404.44C240.843 406.16 247.085 408.483 253.019 410.692C254.493 411.24 255.948 411.782 257.388 412.306C264.638 414.943 271.488 417.124 278.419 417.522C292.204 418.314 306.492 412.06 324.855 387.579C343.237 363.073 368.608 317.699 387.375 273.828C396.758 251.895 404.481 230.355 408.855 212.002C411.042 202.826 412.389 194.458 412.69 187.243C412.992 180.022 412.244 173.995 410.277 169.474C408.319 164.973 405.146 161.951 400.982 160.126C396.803 158.294 391.604 157.66 385.602 157.992C373.592 158.658 358.515 163.186 342.324 169.475C326.142 175.761 308.896 183.786 292.554 191.415L291.476 191.919ZM401.383 159.21C405.772 161.133 409.133 164.336 411.194 169.075C413.247 173.793 413.994 179.992 413.689 187.285C413.384 194.585 412.024 203.02 409.828 212.234C405.436 230.663 397.689 252.26 388.294 274.221C369.507 318.14 344.099 363.591 325.655 388.179C307.193 412.792 292.621 419.34 278.362 418.52C271.272 418.113 264.303 415.885 257.046 413.245C255.593 412.717 254.128 412.172 252.648 411.621C246.718 409.414 240.539 407.115 233.849 405.409C200.143 396.815 176.975 377.536 163.689 347C150.402 316.462 152.515 287.341 170.085 258.805C178.854 244.563 185.787 237.022 196.833 230.711C205.799 225.589 217.481 221.275 235.035 214.794C239.01 213.326 243.286 211.748 247.899 210.023C260.12 205.455 275.124 198.45 291.079 191.001L292.131 190.509C308.467 182.882 325.744 174.843 341.962 168.543C358.17 162.247 373.37 157.669 385.547 156.994C391.638 156.656 397.01 157.293 401.383 159.21Z" fill="#FDEBC9"/>
<path fill-rule="evenodd" clip-rule="evenodd" d="M290.105 211.176C277.361 217.127 265.33 222.744 255.519 226.411C251.81 227.797 248.378 229.065 245.193 230.241C231.155 235.425 221.9 238.842 214.798 242.9C206.135 247.849 200.686 253.749 193.719 265.065C179.816 287.645 178.15 310.632 188.661 334.791C199.174 358.951 217.477 374.195 244.187 381.005C249.59 382.382 254.589 384.243 259.337 386.01C260.516 386.449 261.679 386.882 262.829 387.3C268.629 389.41 274.096 391.15 279.626 391.467C290.606 392.098 302.008 387.124 316.689 367.553C331.388 347.956 351.682 311.665 366.693 276.573C374.198 259.029 380.374 241.803 383.872 227.128C385.62 219.79 386.696 213.103 386.937 207.34C387.178 201.57 386.58 196.765 385.015 193.168C383.459 189.592 380.939 187.192 377.63 185.742C374.307 184.285 370.165 183.777 365.372 184.043C355.78 184.575 343.731 188.192 330.78 193.223C317.838 198.25 304.044 204.669 290.97 210.772L290.105 211.176ZM378.032 184.826C381.565 186.374 384.272 188.955 385.932 192.769C387.583 196.563 388.18 201.54 387.936 207.382C387.692 213.23 386.602 219.985 384.844 227.36C381.329 242.111 375.129 259.394 367.612 276.966C352.58 312.106 332.25 348.474 317.489 368.153C302.709 387.856 291.023 393.124 279.569 392.466C273.881 392.139 268.294 390.352 262.487 388.24C261.323 387.816 260.151 387.38 258.966 386.939C254.223 385.174 249.286 383.337 243.939 381.974C216.946 375.091 198.386 359.648 187.744 335.19C177.102 310.729 178.795 287.397 192.867 264.541C199.888 253.139 205.445 247.091 214.302 242.031C221.482 237.929 230.838 234.475 244.882 229.289C248.061 228.116 251.48 226.853 255.169 225.474C264.942 221.821 276.943 216.218 289.708 210.258L290.547 209.866C303.616 203.765 317.44 197.332 330.418 192.291C343.387 187.253 355.559 183.586 365.317 183.045C370.198 182.774 374.513 183.284 378.032 184.826Z" fill="#FDEBC9"/>
<path fill-rule="evenodd" clip-rule="evenodd" d="M288.735 230.434C279.179 234.895 270.152 239.11 262.789 241.862C260.005 242.903 257.429 243.854 255.039 244.736C244.512 248.624 237.583 251.182 232.266 254.22C225.794 257.918 221.721 262.325 216.502 270.801C206.096 287.702 204.85 304.899 212.717 322.98C220.585 341.063 234.28 352.471 254.277 357.569C258.336 358.604 262.094 360.003 265.655 361.328C266.538 361.657 267.41 361.981 268.271 362.294C272.62 363.876 276.705 365.175 280.833 365.412C289.008 365.882 297.524 362.188 308.522 347.526C319.539 332.839 334.755 305.63 346.011 279.317C351.638 266.163 356.267 253.25 358.888 242.254C360.199 236.755 361.004 231.748 361.184 227.436C361.364 223.118 360.916 219.536 359.753 216.863C358.598 214.21 356.732 212.433 354.278 211.357C351.81 210.276 348.725 209.895 345.142 210.094C337.969 210.492 328.948 213.198 319.236 216.971C309.534 220.739 299.193 225.551 289.386 230.129L288.735 230.434ZM354.68 210.441C357.358 211.615 359.412 213.573 360.67 216.464C361.918 219.334 362.366 223.088 362.183 227.478C361.999 231.875 361.18 236.949 359.861 242.486C357.222 253.558 352.569 266.528 346.93 279.71C335.654 306.071 320.401 333.357 309.322 348.126C298.225 362.92 289.426 366.908 280.775 366.411C276.49 366.164 272.284 364.818 267.929 363.234C267.054 362.916 266.173 362.588 265.284 362.257C261.727 360.934 258.032 359.559 254.03 358.538C233.749 353.367 219.797 341.76 211.8 323.379C203.801 304.996 205.074 287.454 215.65 270.277C220.922 261.715 225.104 257.161 231.77 253.352C237.165 250.269 244.195 247.674 254.729 243.785C257.112 242.905 259.675 241.958 262.439 240.925C269.764 238.187 278.76 233.987 288.337 229.515L288.963 229.223C298.764 224.648 309.136 219.821 318.874 216.038C328.603 212.259 337.747 209.502 345.086 209.095C348.759 208.892 352.017 209.274 354.68 210.441Z" fill="#FDEBC9"/>
<path fill-rule="evenodd" clip-rule="evenodd" d="M287.364 249.691C280.997 252.664 274.974 255.476 270.059 257.313C268.2 258.008 266.48 258.643 264.886 259.232C257.869 261.823 253.266 263.523 249.735 265.54C245.452 267.987 242.755 270.901 239.284 276.537C232.376 287.758 231.549 299.165 236.772 311.169C241.996 323.175 251.083 330.747 264.367 334.134C267.083 334.826 269.598 335.762 271.973 336.646C272.561 336.865 273.14 337.081 273.712 337.289C276.61 338.343 279.314 339.201 282.039 339.358C287.411 339.666 293.041 337.253 300.356 327.5C307.69 317.723 317.828 299.596 325.328 282.062C329.078 273.297 332.16 264.698 333.905 257.38C334.777 253.72 335.311 250.393 335.431 247.533C335.55 244.666 335.251 242.307 334.49 240.557C333.738 238.829 332.525 237.674 330.927 236.973C329.314 236.266 327.286 236.013 324.912 236.145C320.157 236.408 314.164 238.204 307.692 240.718C301.231 243.228 294.341 246.434 287.803 249.486L287.364 249.691ZM331.328 236.057C333.15 236.856 334.551 238.192 335.407 240.158C336.254 242.105 336.553 244.636 336.43 247.575C336.307 250.52 335.758 253.914 334.877 257.611C333.115 265.006 330.009 273.662 326.248 282.455C318.727 300.037 308.552 318.24 301.156 328.1C293.742 337.985 287.828 340.692 281.982 340.356C279.098 340.19 276.275 339.285 273.37 338.228C272.785 338.015 272.196 337.796 271.602 337.575C269.232 336.693 266.779 335.781 264.12 335.103C250.552 331.643 241.208 323.872 235.855 311.568C230.501 299.262 231.354 287.51 238.433 276.013C241.956 270.29 244.762 267.23 249.239 264.672C252.849 262.61 257.552 260.873 264.575 258.28C266.163 257.694 267.87 257.064 269.709 256.377C274.586 254.554 280.578 251.756 286.967 248.773L287.38 248.58C293.913 245.53 300.832 242.31 307.33 239.786C313.819 237.266 319.936 235.419 324.856 235.146C327.32 235.01 329.52 235.265 331.328 236.057Z" fill="#FDEBC9"/>
<path fill-rule="evenodd" clip-rule="evenodd" d="M285.993 268.949C282.815 270.433 279.796 271.842 277.329 272.764C276.394 273.114 275.531 273.432 274.733 273.727C271.226 275.023 268.949 275.863 267.203 276.861C265.111 278.057 263.789 279.476 262.067 282.273C258.655 287.815 258.249 293.432 260.827 299.358C263.407 305.287 267.886 309.023 274.457 310.698C275.829 311.048 277.103 311.522 278.291 311.964C278.584 312.073 278.871 312.18 279.153 312.283C280.601 312.809 281.923 313.227 283.246 313.303C285.813 313.45 288.557 312.317 292.19 307.473C295.842 302.606 300.901 293.561 304.646 284.806C306.518 280.431 308.053 276.146 308.921 272.505C309.355 270.685 309.619 269.039 309.677 267.63C309.737 266.214 309.587 265.078 309.228 264.252C308.878 263.447 308.318 262.915 307.575 262.589C306.817 262.257 305.846 262.131 304.682 262.196C302.346 262.325 299.38 263.21 296.149 264.466C292.927 265.717 289.49 267.316 286.219 268.843L285.993 268.949ZM307.976 261.673C308.943 262.097 309.691 262.81 310.145 263.853C310.59 264.875 310.739 266.184 310.677 267.671C310.614 269.165 310.337 270.879 309.894 272.737C309.008 276.454 307.449 280.796 305.566 285.199C301.8 294.002 296.704 303.123 292.99 308.074C289.258 313.049 286.23 314.476 283.189 314.301C281.707 314.216 280.266 313.752 278.812 313.223C278.515 313.115 278.219 313.005 277.92 312.894C276.736 312.453 275.525 312.002 274.21 311.667C267.355 309.919 262.619 305.984 259.91 299.757C257.2 293.529 257.633 287.567 261.215 281.749C262.99 278.866 264.42 277.299 266.707 275.993C268.532 274.95 270.908 274.073 274.422 272.776C275.214 272.483 276.064 272.17 276.979 271.828C279.408 270.92 282.397 269.524 285.596 268.03L285.796 267.937C289.061 266.413 292.529 264.799 295.787 263.534C299.035 262.272 302.124 261.336 304.626 261.197C305.88 261.128 307.024 261.256 307.976 261.673Z" fill="#FDEBC9"/>
</svg>
