<svg width="358" height="575" viewBox="0 0 358 575" fill="none" xmlns="http://www.w3.org/2000/svg">
<path fill-rule="evenodd" clip-rule="evenodd" d="M299.698 75.9049C264.633 92.2767 231.573 107.712 204.628 117.784C194.446 121.59 185.019 125.07 176.265 128.303C137.655 142.56 112.116 151.99 92.5168 163.188C68.5251 176.895 53.4452 193.249 34.2385 224.444C-4.14272 286.781 -8.74836 350.296 20.2728 416.997C49.2948 483.699 99.8542 525.793 173.553 544.584C188.362 548.36 202.056 553.456 215.109 558.314C218.356 559.522 221.563 560.716 224.737 561.87C240.693 567.674 255.833 572.5 271.178 573.382C301.788 575.14 333.391 561.205 373.85 507.268C414.327 453.306 470.167 353.437 511.466 256.892C532.115 208.622 549.121 161.2 558.754 120.778C563.571 100.567 566.542 82.1178 567.207 66.1945C567.873 50.2644 566.229 36.9014 561.85 26.8371C557.48 16.7933 550.386 10.0353 541.091 5.96112C531.78 1.88057 520.239 0.483379 506.981 1.21829C480.458 2.68845 447.216 12.6804 411.585 26.521C375.963 40.3579 338.003 58.0215 302.054 74.8047L299.698 75.9049ZM541.492 5.04522C551.012 9.21755 558.293 16.1563 562.767 26.4381C567.232 36.6994 568.875 50.2345 568.207 66.2362C567.538 82.2447 564.553 100.761 559.727 121.01C550.075 161.508 533.046 208.987 512.386 257.285C471.066 353.878 415.189 453.823 374.65 507.868C334.092 561.937 302.206 576.166 271.12 574.38C255.617 573.489 240.358 568.616 224.396 562.81C221.207 561.65 217.991 560.454 214.739 559.243C201.69 554.387 188.058 549.314 173.306 545.553C99.3235 526.689 48.5074 484.396 19.3558 417.396C-9.79681 350.393 -5.16444 286.533 33.387 223.919C52.6465 192.639 67.835 176.138 92.0207 162.319C111.698 151.077 137.338 141.61 175.954 127.351C184.702 124.121 194.116 120.645 204.277 116.847C231.185 106.789 264.214 91.3686 299.3 74.9868L301.631 73.8986C337.575 57.1179 375.565 39.4399 411.223 25.5889C446.871 11.7416 480.237 1.69919 506.925 0.219826C520.273 -0.520021 531.987 0.879224 541.492 5.04522Z" fill="#E2C69E"/>
<path fill-rule="evenodd" clip-rule="evenodd" d="M298.327 95.1624C266.451 110.045 236.395 124.078 211.898 133.235C202.64 136.695 194.07 139.86 186.111 142.799C151.011 155.759 127.799 164.331 109.985 174.508C88.1834 186.964 74.4794 201.825 57.0211 230.18C22.1369 286.837 17.9511 344.563 44.328 405.186C70.7058 465.811 116.657 504.069 183.643 521.149C197.108 524.582 209.56 529.216 221.427 533.632C224.378 534.73 227.293 535.815 230.179 536.865C244.683 542.141 258.442 546.526 272.384 547.327C300.191 548.924 328.908 536.269 365.684 487.242C402.479 438.189 453.24 347.403 490.784 259.637C509.555 215.756 525.014 172.648 533.771 135.904C538.15 117.532 540.85 100.763 541.454 86.2911C542.059 71.8125 540.564 59.6721 536.587 50.5316C532.619 41.4117 526.179 35.2764 517.739 31.577C509.284 27.8713 498.799 26.6012 486.751 27.2691C462.647 28.6052 432.432 37.6865 400.041 50.2686C367.659 62.847 333.152 78.904 300.471 94.1616L298.327 95.1624ZM518.14 30.6611C526.805 34.4586 533.433 40.7747 537.504 50.1327C541.567 59.4701 543.061 71.7825 542.453 86.3328C541.845 100.89 539.131 117.726 534.744 136.136C525.968 172.956 510.486 216.121 491.703 260.03C454.139 347.844 403.341 438.706 366.484 487.842C329.609 537.001 300.608 549.95 272.327 548.325C258.226 547.515 244.348 543.083 229.837 537.805C226.938 536.75 224.013 535.662 221.056 534.561C209.194 530.147 196.804 525.536 183.396 522.118C116.126 504.966 69.9184 466.508 43.411 405.585C16.9027 344.66 21.1151 286.589 56.1696 229.655C73.6807 201.215 87.4933 186.207 109.489 173.64C127.381 163.417 150.694 154.809 185.801 141.847C193.753 138.911 202.311 135.751 211.547 132.298C236.008 123.155 266.032 109.137 297.931 94.2439L300.048 93.2555C332.723 78.0005 367.261 61.9289 399.679 49.3364C432.087 36.7477 462.425 27.6159 486.695 26.2706C498.833 25.5978 509.49 26.87 518.14 30.6611Z" fill="#E2C69E"/>
<path fill-rule="evenodd" clip-rule="evenodd" d="M296.957 114.42C268.269 127.814 241.218 140.444 219.167 148.686C210.835 151.801 203.121 154.649 195.958 157.294C164.368 168.959 143.482 176.671 127.454 185.828C107.842 197.033 95.5136 210.401 79.8038 235.916C48.4165 286.894 44.6506 338.83 68.3832 393.375C92.1168 447.923 133.46 482.345 193.734 497.713C205.855 500.804 217.065 504.975 227.745 508.95C230.401 509.939 233.024 510.915 235.62 511.859C248.674 516.607 261.05 520.552 273.591 521.272C298.593 522.708 324.424 511.334 357.518 467.215C390.63 423.072 436.313 341.368 470.102 262.381C486.995 222.89 500.907 184.096 508.787 151.03C512.728 134.497 515.157 119.408 515.701 106.388C516.245 93.3605 514.9 82.4428 511.325 74.2262C507.759 66.0302 501.972 60.5174 494.387 57.1929C486.787 53.862 477.36 52.7191 466.521 53.3199C444.836 54.5219 417.648 62.6926 388.497 74.0161C359.356 85.336 328.3 99.7866 298.887 113.519L296.957 114.42ZM494.789 56.277C502.598 59.6996 508.572 65.3932 512.242 73.8273C515.903 82.2407 517.247 93.3306 516.7 106.429C516.153 119.535 513.709 134.691 509.76 151.262C501.861 184.403 487.926 223.255 471.021 262.774C437.212 341.809 391.492 423.589 358.318 467.815C325.125 512.066 299.01 523.734 273.534 522.27C260.835 521.541 248.339 517.549 235.278 512.799C232.668 511.849 230.036 510.87 227.374 509.879C216.698 505.906 205.551 501.758 193.486 498.682C132.929 483.242 91.3294 448.62 67.4663 393.774C43.6022 338.927 47.3947 286.646 78.9523 235.391C94.7149 209.791 107.152 196.276 126.958 184.96C143.064 175.758 164.051 168.009 195.647 156.342C202.804 153.7 210.505 150.856 218.817 147.749C240.83 139.522 267.85 126.906 296.559 113.502L298.464 112.612C327.872 98.883 358.957 84.4179 388.135 73.084C417.303 61.7537 444.614 53.5327 466.465 52.3214C477.394 51.7157 486.994 52.8607 494.789 56.277Z" fill="#E2C69E"/>
<path fill-rule="evenodd" clip-rule="evenodd" d="M295.587 133.677C270.088 145.583 246.041 156.81 226.438 164.137C219.031 166.906 212.173 169.438 205.805 171.79C177.726 182.158 159.166 189.011 144.923 197.149C127.501 207.103 116.549 218.977 102.587 241.652C74.697 286.95 71.3511 333.097 92.4394 381.565C113.529 430.035 150.264 460.621 203.825 474.278C214.602 477.026 224.571 480.735 234.064 484.268C236.425 485.147 238.756 486.014 241.063 486.853C252.666 491.074 263.66 494.577 274.799 495.217C296.996 496.493 319.942 486.398 349.353 447.189C378.782 407.955 419.388 335.334 449.421 265.126C464.436 230.024 476.801 195.543 483.805 166.156C487.307 151.462 489.466 138.053 489.949 126.484C490.432 114.909 489.237 105.214 486.064 97.9209C482.9 90.6487 477.766 85.7585 471.036 82.8089C464.292 79.8528 455.922 78.837 446.291 79.3708C427.025 80.4387 402.865 87.6987 376.954 97.7637C351.053 107.825 323.45 120.669 297.304 132.876L295.587 133.677ZM471.438 81.893C478.392 84.9408 483.713 90.0118 486.981 97.5219C490.239 105.012 491.435 114.879 490.948 126.526C490.461 138.18 488.289 151.656 484.778 166.387C477.755 195.851 465.368 230.389 450.34 265.519C420.287 335.775 379.644 408.472 350.152 447.789C320.642 487.13 297.413 497.518 274.741 496.216C263.445 495.567 252.331 492.016 240.721 487.793C238.4 486.949 236.059 486.078 233.693 485.197C224.204 481.666 214.298 477.98 203.578 475.247C149.733 461.518 112.741 430.732 91.5225 381.964C70.3027 333.193 73.6753 286.702 101.736 241.128C115.75 218.366 126.811 206.345 144.427 196.281C158.749 188.098 177.409 181.208 205.495 170.838C211.856 168.489 218.701 165.962 226.088 163.201C245.653 155.888 269.669 144.674 295.19 132.759L296.881 131.969C323.021 119.766 350.654 106.907 376.592 96.8316C402.521 86.7599 426.804 79.4495 446.236 78.3723C455.955 77.8336 464.498 78.8515 471.438 81.893Z" fill="#E2C69E"/>
<path fill-rule="evenodd" clip-rule="evenodd" d="M294.216 152.935C271.906 163.351 250.863 173.176 233.708 179.588C227.225 182.012 221.224 184.228 215.652 186.285C191.083 195.357 174.849 201.352 162.392 208.469C147.159 217.172 137.583 227.552 125.37 247.388C100.977 287.007 98.0506 327.363 116.495 369.754C134.94 412.147 167.067 438.897 213.915 450.842C223.349 453.247 232.075 456.495 240.382 459.586C242.447 460.355 244.486 461.114 246.504 461.848C256.656 465.541 266.269 468.603 276.005 469.163C295.398 470.277 315.458 461.462 341.186 427.163C366.933 392.838 402.461 329.299 428.738 267.87C441.876 237.158 452.694 206.991 458.821 181.281C461.885 168.427 463.773 156.698 464.196 146.581C464.619 136.457 463.572 127.984 460.801 121.615C458.039 115.267 453.559 111 447.685 108.425C441.795 105.844 434.482 104.955 426.061 105.422C409.214 106.355 388.082 112.705 365.411 121.511C342.749 130.314 318.598 141.552 295.72 152.233L294.216 152.935ZM448.086 107.509C454.185 110.182 458.853 114.63 461.718 121.217C464.575 127.782 465.621 136.427 465.195 146.623C464.769 156.825 462.867 168.621 459.794 181.513C453.649 207.299 442.808 237.523 429.658 268.263C403.36 329.74 367.795 393.355 341.986 427.763C316.159 462.194 295.816 471.302 275.948 470.161C266.053 469.592 256.321 466.483 246.162 462.788C244.131 462.049 242.082 461.286 240.011 460.516C231.709 457.426 223.045 454.202 213.668 451.811C166.536 439.794 134.152 412.844 115.578 370.153C97.0022 327.46 99.9549 286.759 124.519 246.864C136.784 226.942 146.469 216.415 161.896 207.601C174.432 200.439 190.766 194.408 215.341 185.334C220.907 183.279 226.896 181.067 233.358 178.652C250.475 172.254 271.488 162.443 293.82 152.016L295.297 151.326C318.17 140.648 342.351 129.396 365.048 120.579C387.737 111.766 408.992 105.366 426.006 104.423C434.516 103.951 442.002 104.842 448.086 107.509Z" fill="#E2C69E"/>
<path fill-rule="evenodd" clip-rule="evenodd" d="M292.846 172.192C273.724 181.12 255.685 189.543 240.978 195.04C235.42 197.117 230.275 199.017 225.499 200.781C204.44 208.557 190.533 213.692 179.86 219.79C166.818 227.241 158.617 236.128 148.153 253.124C127.256 287.063 124.75 321.63 140.55 357.943C156.351 394.259 183.87 417.173 224.005 427.407C232.095 429.469 239.579 432.255 246.7 434.905C248.47 435.563 250.217 436.213 251.945 436.842C260.647 440.007 268.878 442.629 277.212 443.108C293.801 444.061 310.974 436.526 333.02 407.136C355.084 377.721 385.534 323.265 408.056 270.615C419.316 244.292 428.587 218.438 433.838 196.407C436.463 185.392 438.08 175.344 438.442 166.678C438.805 158.005 437.908 150.755 435.539 145.31C433.179 139.886 429.352 136.241 424.333 134.041C419.299 131.834 413.043 131.073 405.831 131.472C391.402 132.272 373.298 137.711 353.867 145.259C334.445 152.803 313.747 162.434 294.137 171.589L292.846 172.192ZM424.734 133.125C429.978 135.423 433.992 139.249 436.456 144.911C438.911 150.553 439.807 157.975 439.442 166.719C439.076 175.471 437.445 185.586 434.81 196.639C429.542 218.746 420.248 244.657 408.976 271.008C386.433 323.706 355.947 378.238 333.82 407.736C311.675 437.258 294.218 445.086 277.154 444.106C268.662 443.618 260.312 440.949 251.604 437.782C249.861 437.148 248.105 436.495 246.33 435.834C239.213 433.186 231.792 430.424 223.758 428.376C183.34 418.07 155.563 394.955 139.633 358.342C123.702 321.727 126.234 286.815 147.301 252.6C157.818 235.518 166.128 226.484 179.364 218.921C190.115 212.779 204.123 207.607 225.188 199.829C229.958 198.068 235.09 196.173 240.628 194.103C255.297 188.62 273.305 180.212 292.448 171.274L293.714 170.683C313.318 161.531 334.047 151.885 353.505 144.327C372.953 136.772 391.181 131.283 405.776 130.474C413.076 130.069 419.505 130.833 424.734 133.125Z" fill="#E2C69E"/>
<path fill-rule="evenodd" clip-rule="evenodd" d="M291.476 191.45C275.543 198.889 260.508 205.909 248.249 210.491C243.616 212.223 239.327 213.806 235.346 215.276C217.798 221.756 206.217 226.033 197.33 231.11C186.477 237.311 179.652 244.704 170.936 258.86C153.537 287.12 151.451 315.897 164.606 346.132C177.763 376.371 200.674 395.449 234.096 403.971C240.843 405.691 247.085 408.014 253.019 410.223C254.493 410.771 255.948 411.313 257.388 411.837C264.638 414.474 271.488 416.655 278.419 417.053C292.204 417.845 306.492 411.591 324.855 387.11C343.237 362.604 368.608 317.23 387.375 273.359C396.758 251.426 404.481 229.886 408.855 211.533C411.042 202.357 412.389 193.989 412.69 186.774C412.992 179.553 412.244 173.526 410.277 169.005C408.319 164.504 405.146 161.482 400.982 159.657C396.803 157.825 391.604 157.191 385.602 157.523C373.592 158.189 358.515 162.717 342.324 169.006C326.142 175.292 308.896 183.317 292.554 190.946L291.476 191.45ZM401.383 158.741C405.772 160.664 409.133 163.867 411.194 168.606C413.247 173.324 413.994 179.523 413.689 186.816C413.384 194.116 412.024 202.551 409.828 211.765C405.436 230.194 397.689 251.791 388.294 273.752C369.507 317.671 344.099 363.122 325.655 387.71C307.193 412.323 292.621 418.871 278.362 418.051C271.272 417.644 264.303 415.416 257.046 412.776C255.593 412.248 254.128 411.703 252.648 411.152C246.718 408.945 240.539 406.646 233.849 404.94C200.143 396.346 176.975 377.067 163.689 346.531C150.402 315.993 152.515 286.872 170.085 258.336C178.854 244.094 185.787 236.553 196.833 230.242C205.799 225.12 217.481 220.806 235.035 214.325C239.01 212.857 243.286 211.279 247.899 209.554C260.12 204.986 275.124 197.981 291.079 190.532L292.131 190.04C308.467 182.413 325.744 174.374 341.962 168.074C358.17 161.778 373.37 157.2 385.547 156.525C391.638 156.187 397.01 156.824 401.383 158.741Z" fill="#E2C69E"/>
<path fill-rule="evenodd" clip-rule="evenodd" d="M290.105 210.707C277.361 216.658 265.33 222.275 255.519 225.942C251.81 227.328 248.378 228.596 245.193 229.772C231.155 234.956 221.9 238.373 214.798 242.431C206.135 247.38 200.686 253.28 193.719 264.596C179.816 287.176 178.15 310.163 188.661 334.322C199.174 358.482 217.477 373.726 244.187 380.536C249.59 381.913 254.589 383.774 259.337 385.541C260.516 385.98 261.679 386.413 262.829 386.831C268.629 388.941 274.096 390.681 279.626 390.998C290.606 391.629 302.008 386.655 316.689 367.084C331.388 347.487 351.682 311.196 366.693 276.104C374.198 258.56 380.374 241.334 383.872 226.659C385.62 219.321 386.696 212.634 386.937 206.871C387.178 201.101 386.58 196.296 385.015 192.699C383.459 189.123 380.939 186.723 377.63 185.273C374.307 183.816 370.165 183.308 365.372 183.574C355.78 184.106 343.731 187.723 330.78 192.754C317.838 197.781 304.044 204.2 290.97 210.303L290.105 210.707ZM378.032 184.357C381.565 185.905 384.272 188.486 385.932 192.3C387.583 196.094 388.18 201.071 387.936 206.913C387.692 212.761 386.602 219.516 384.844 226.891C381.329 241.642 375.129 258.925 367.612 276.497C352.58 311.637 332.25 348.005 317.489 367.684C302.709 387.387 291.023 392.655 279.569 391.997C273.881 391.67 268.294 389.883 262.487 387.771C261.323 387.347 260.151 386.911 258.966 386.47C254.223 384.705 249.286 382.868 243.939 381.505C216.946 374.622 198.386 359.179 187.744 334.721C177.102 310.26 178.795 286.928 192.867 264.072C199.888 252.67 205.445 246.622 214.302 241.562C221.482 237.46 230.838 234.006 244.882 228.82C248.061 227.647 251.48 226.384 255.169 225.005C264.942 221.352 276.943 215.749 289.708 209.789L290.547 209.397C303.616 203.296 317.44 196.863 330.418 191.822C343.387 186.784 355.559 183.117 365.317 182.576C370.198 182.305 374.513 182.815 378.032 184.357Z" fill="#E2C69E"/>
<path fill-rule="evenodd" clip-rule="evenodd" d="M288.735 229.965C279.18 234.426 270.153 238.641 262.79 241.393C260.006 242.434 257.43 243.385 255.04 244.267C244.513 248.155 237.584 250.714 232.267 253.751C225.795 257.449 221.722 261.856 216.503 270.332C206.097 287.233 204.851 304.43 212.718 322.511C220.586 340.594 234.281 352.002 254.278 357.1C258.337 358.135 262.095 359.534 265.656 360.859C266.539 361.188 267.411 361.512 268.272 361.825C272.621 363.407 276.706 364.706 280.834 364.943C289.009 365.413 297.525 361.719 308.523 347.057C319.54 332.371 334.756 305.161 346.012 278.848C351.639 265.694 356.268 252.781 358.889 241.785C360.199 236.286 361.005 231.279 361.185 226.967C361.365 222.649 360.917 219.067 359.754 216.394C358.599 213.741 356.733 211.964 354.279 210.888C351.811 209.807 348.726 209.426 345.143 209.625C337.97 210.023 328.949 212.729 319.237 216.502C309.535 220.27 299.194 225.082 289.387 229.66L288.735 229.965ZM354.681 209.973C357.359 211.146 359.413 213.104 360.671 215.995C361.919 218.865 362.367 222.619 362.184 227.009C362 231.406 361.181 236.48 359.862 242.017C357.223 253.089 352.57 266.059 346.931 279.241C335.655 305.602 320.402 332.888 309.323 347.657C298.226 362.451 289.427 366.439 280.776 365.942C276.491 365.696 272.285 364.349 267.93 362.765C267.055 362.447 266.174 362.119 265.285 361.788C261.728 360.465 258.033 359.09 254.031 358.069C233.75 352.898 219.798 341.291 211.801 322.91C203.802 304.527 205.075 286.985 215.651 269.808C220.923 261.246 225.105 256.692 231.771 252.883C237.166 249.8 244.196 247.205 254.73 243.316C257.113 242.436 259.676 241.49 262.44 240.456C269.765 237.718 278.761 233.518 288.338 229.047L288.964 228.754C298.765 224.179 309.137 219.352 318.875 215.569C328.604 211.79 337.748 209.033 345.087 208.627C348.76 208.423 352.018 208.805 354.681 209.973Z" fill="#E2C69E"/>
<path fill-rule="evenodd" clip-rule="evenodd" d="M287.365 249.222C280.998 252.195 274.975 255.007 270.06 256.844C268.201 257.539 266.481 258.174 264.887 258.763C257.87 261.354 253.267 263.054 249.736 265.072C245.453 267.518 242.756 270.432 239.285 276.068C232.376 287.289 231.55 298.697 236.773 310.7C241.997 322.706 251.084 330.278 264.368 333.665C267.084 334.357 269.599 335.293 271.974 336.177C272.562 336.396 273.141 336.612 273.713 336.82C276.611 337.874 279.315 338.732 282.04 338.889C287.412 339.197 293.042 336.784 300.357 327.031C307.691 317.254 317.829 299.127 325.329 281.593C329.079 272.828 332.161 264.229 333.905 256.911C334.778 253.251 335.312 249.924 335.432 247.064C335.551 244.197 335.252 241.838 334.491 240.089C333.739 238.36 332.526 237.205 330.928 236.504C329.315 235.797 327.287 235.544 324.913 235.676C320.158 235.939 314.165 237.735 307.693 240.249C301.232 242.759 294.342 245.965 287.804 249.017L287.365 249.222ZM331.329 235.588C333.151 236.387 334.552 237.723 335.408 239.69C336.255 241.636 336.554 244.167 336.431 247.106C336.308 250.051 335.759 253.445 334.878 257.143C333.116 264.537 330.01 273.193 326.249 281.986C318.728 299.568 308.553 317.771 301.157 327.631C293.743 337.516 287.829 340.223 281.983 339.887C279.099 339.721 276.276 338.816 273.371 337.759C272.786 337.546 272.197 337.327 271.603 337.106C269.233 336.224 266.78 335.312 264.121 334.634C250.553 331.174 241.209 323.403 235.856 311.099C230.502 298.793 231.355 287.041 238.434 275.544C241.957 269.822 244.763 266.761 249.24 264.203C252.85 262.141 257.553 260.405 264.576 257.811C266.164 257.225 267.871 256.595 269.71 255.908C274.587 254.085 280.579 251.287 286.968 248.304L287.381 248.111C293.914 245.061 300.833 241.841 307.331 239.317C313.82 236.797 319.937 234.95 324.857 234.677C327.321 234.541 329.521 234.796 331.329 235.588Z" fill="#E2C69E"/>
<path fill-rule="evenodd" clip-rule="evenodd" d="M285.994 268.48C282.816 269.964 279.797 271.373 277.33 272.295C276.395 272.645 275.532 272.963 274.734 273.258C271.227 274.554 268.95 275.394 267.204 276.392C265.111 277.588 263.79 279.007 262.068 281.804C258.656 287.346 258.25 292.963 260.828 298.889C263.408 304.818 267.887 308.554 274.458 310.229C275.83 310.579 277.104 311.053 278.292 311.495C278.585 311.604 278.872 311.711 279.154 311.814C280.602 312.34 281.924 312.758 283.247 312.834C285.814 312.981 288.558 311.848 292.191 307.005C295.843 302.137 300.902 293.092 304.647 284.337C306.519 279.962 308.054 275.677 308.922 272.036C309.356 270.216 309.62 268.57 309.678 267.161C309.738 265.745 309.588 264.609 309.229 263.783C308.879 262.978 308.319 262.446 307.576 262.12C306.818 261.788 305.847 261.662 304.683 261.727C302.347 261.856 299.381 262.742 296.15 263.997C292.928 265.248 289.491 266.847 286.22 268.374L285.994 268.48ZM307.977 261.204C308.944 261.628 309.692 262.341 310.146 263.384C310.591 264.406 310.74 265.715 310.678 267.202C310.615 268.696 310.338 270.41 309.895 272.268C309.009 275.985 307.45 280.327 305.567 284.73C301.801 293.533 296.705 302.654 292.991 307.605C289.259 312.58 286.231 314.007 283.19 313.832C281.708 313.747 280.267 313.283 278.812 312.754C278.516 312.646 278.22 312.536 277.921 312.425C276.737 311.984 275.526 311.534 274.211 311.198C267.356 309.45 262.62 305.515 259.911 299.288C257.201 293.06 257.634 287.098 261.216 281.28C262.991 278.397 264.421 276.83 266.708 275.524C268.533 274.481 270.909 273.604 274.423 272.307C275.215 272.014 276.065 271.701 276.98 271.359C279.409 270.451 282.398 269.055 285.597 267.561L285.797 267.468C289.062 265.944 292.53 264.33 295.788 263.065C299.036 261.803 302.125 260.867 304.627 260.728C305.881 260.659 307.025 260.787 307.977 261.204Z" fill="#E2C69E"/>
</svg>