<svg width="569" height="576" viewBox="0 0 569 576" fill="none" xmlns="http://www.w3.org/2000/svg">
<path d="M374.157 508.273C293.141 616.279 247.178 564.601 173.337 545.773C99.496 526.946 48.8084 484.753 19.7215 417.901C-9.36535 351.05 -4.74635 287.362 33.72 224.887C72.1863 162.411 94.2565 159.175 204.36 118.02C314.463 76.8654 526.841 -53.9601 562.216 27.3425" stroke="#E2C69E"/>
<path d="M365.991 488.246C292.34 586.434 250.555 539.454 183.427 522.338C116.299 505.222 70.2193 466.865 43.7767 406.09C17.3341 345.316 21.5332 287.418 56.5026 230.623C91.472 173.827 111.536 170.885 211.63 133.472C311.724 96.0579 504.795 -22.8744 536.953 51.0371" stroke="#E2C69E"/>
<path d="M357.825 468.22C291.539 556.589 253.932 514.307 193.517 498.903C133.102 483.498 91.6303 448.976 67.832 394.28C44.0336 339.583 47.8128 287.475 79.2853 236.359C110.758 185.243 128.815 182.595 218.9 148.923C308.984 115.25 482.748 8.21144 511.691 74.7317" stroke="#E2C69E"/>
<path d="M349.66 448.194C290.739 526.744 257.311 489.16 203.608 475.467C149.906 461.774 113.042 431.088 91.8882 382.469C70.7341 333.85 74.0934 287.531 102.069 242.095C130.044 196.658 146.095 194.305 226.171 164.374C306.246 134.443 460.702 39.2971 486.429 98.4263" stroke="#E2C69E"/>
<path d="M341.494 428.167C289.938 496.899 260.688 464.013 213.699 452.031C166.709 440.05 134.453 413.2 115.943 370.658C97.4336 328.116 100.373 287.588 124.852 247.831C149.33 208.074 163.375 206.015 233.441 179.825C303.506 153.636 438.656 70.3829 461.167 122.121" stroke="#E2C69E"/>
<path d="M333.327 408.141C289.137 467.054 264.066 438.865 223.789 428.596C183.512 418.327 155.864 395.312 139.999 358.848C124.133 322.383 126.653 287.644 147.634 253.567C168.616 219.489 180.654 217.724 240.71 195.276C300.767 172.828 416.609 101.469 435.905 145.815" stroke="#E2C69E"/>
<path d="M325.162 388.115C288.336 437.209 267.444 413.718 233.88 405.161C200.316 396.603 177.276 377.424 164.055 347.037C150.834 316.65 152.933 287.701 170.418 259.303C187.902 230.905 197.934 229.434 247.981 210.727C298.028 192.021 394.564 132.554 410.643 169.51" stroke="#E2C69E"/>
<path d="M316.996 368.088C287.535 407.364 270.821 388.571 243.97 381.725C217.119 374.879 198.687 359.536 188.11 335.226C177.533 310.916 179.213 287.757 193.2 265.039C207.188 242.321 215.214 241.144 255.251 226.178C295.289 211.213 372.517 163.64 385.381 193.205" stroke="#E2C69E"/>
<path d="M308.831 348.062C286.735 377.518 274.2 363.424 254.061 358.29C233.923 353.155 220.099 341.648 212.166 323.415C204.234 305.183 205.493 287.814 215.984 270.775C226.475 253.736 232.494 252.854 262.522 241.63C292.55 230.406 350.472 194.726 360.119 216.899" stroke="#E2C69E"/>
<path d="M300.664 328.036C285.934 347.673 277.577 338.277 264.152 334.854C250.726 331.431 241.51 323.759 236.222 311.605C230.933 299.45 231.773 287.87 238.767 276.511C245.761 265.152 249.773 264.564 269.792 257.081C289.811 249.598 328.425 225.812 334.857 240.594" stroke="#E2C69E"/>
<path d="M292.498 308.01C285.133 317.828 280.955 313.13 274.242 311.419C267.529 309.707 262.921 305.871 260.277 299.794C257.633 293.717 258.052 287.927 261.549 282.247C265.046 276.568 267.053 276.273 277.062 272.532C287.071 268.791 306.379 256.897 309.594 264.289" stroke="#E2C69E"/>
</svg>
