<svg width="244" height="256" viewBox="0 0 244 256" fill="none" xmlns="http://www.w3.org/2000/svg">
<path d="M122.014 196.843C160.047 196.843 190.88 166.011 190.88 127.977C190.88 89.9435 160.047 59.1111 122.014 59.1111C83.9799 59.1111 53.1475 89.9435 53.1475 127.977C53.1475 166.011 83.9799 196.843 122.014 196.843Z" stroke="white" stroke-width="2"/>
<path d="M126.85 5.83723C126.85 8.50876 124.684 10.6745 122.013 10.6745C119.341 10.6745 117.175 8.50876 117.175 5.83723C117.175 3.1657 119.341 1 122.013 1C124.684 1 126.85 3.1657 126.85 5.83723ZM54.1342 26.3124C55.7045 28.4737 55.2254 31.4987 53.0641 33.069C50.9028 34.6393 47.8777 34.1602 46.3075 31.9989C44.7371 29.8375 45.2163 26.8125 47.3776 25.2422C49.5389 23.6719 52.5639 24.1511 54.1342 26.3124ZM7.34111 85.6182C9.88191 86.4438 11.2723 89.1727 10.4468 91.7135C9.62119 94.2542 6.8923 95.6447 4.35155 94.8192C1.81075 93.9936 0.420281 91.2647 1.24587 88.7239C2.07141 86.1831 4.80035 84.7927 7.34111 85.6182ZM4.34374 161.102C6.88449 160.276 9.61343 161.667 10.439 164.208C11.2646 166.748 9.87409 169.477 7.33329 170.303C4.79254 171.129 2.0636 169.738 1.23806 167.197C0.412516 164.656 1.80294 161.928 4.34374 161.102ZM46.2871 223.931C47.8574 221.77 50.8824 221.291 53.0438 222.861C55.2051 224.432 55.6842 227.457 54.1139 229.618C52.5436 231.779 49.5186 232.258 47.3573 230.688C45.196 229.118 44.7168 226.093 46.2871 223.931ZM117.15 250.108C117.15 247.436 119.316 245.271 121.987 245.271C124.659 245.271 126.825 247.436 126.825 250.108C126.825 252.779 124.659 254.945 121.987 254.945C119.316 254.945 117.15 252.779 117.15 250.108ZM189.866 229.633C188.295 227.471 188.775 224.446 190.936 222.876C193.097 221.306 196.122 221.785 197.693 223.946C199.263 226.108 198.784 229.133 196.622 230.703C194.461 232.273 191.436 231.794 189.866 229.633ZM236.659 170.327C234.118 169.501 232.728 166.772 233.553 164.232C234.379 161.691 237.108 160.3 239.648 161.126C242.189 161.951 243.58 164.68 242.754 167.221C241.929 169.762 239.2 171.152 236.659 170.327ZM239.656 94.8431C237.115 95.6687 234.387 94.2782 233.561 91.7374C232.735 89.1967 234.126 86.4677 236.667 85.6422C239.207 84.8166 241.936 86.2071 242.762 88.7478C243.587 91.2886 242.197 94.0176 239.656 94.8431ZM197.713 32.0136C196.143 34.175 193.118 34.6541 190.956 33.0838C188.795 31.5135 188.316 28.4885 189.886 26.3271C191.456 24.1658 194.481 23.6867 196.643 25.257C198.804 26.8273 199.283 29.8523 197.713 32.0136Z" stroke="white" stroke-width="2"/>
<path d="M137.78 54.329C132.629 54.392 127.674 56.1139 123.621 59.1308C137.054 59.4466 150.102 63.6856 161.156 71.3254C158.897 64.0986 153.298 58.0344 145.549 55.517C142.968 54.6788 140.351 54.2976 137.78 54.329ZM163.788 73.2362C174.465 81.3834 182.527 92.4751 186.982 105.146C189.398 97.9727 188.433 89.7813 183.644 83.1917C178.854 76.6001 171.359 73.1512 163.788 73.2362ZM187.988 108.247C189.903 114.648 190.877 121.294 190.879 127.976C190.873 134.661 189.893 141.31 187.971 147.712C194.156 143.331 198.199 136.128 198.199 127.971C198.198 119.824 194.162 112.629 187.988 108.247ZM186.965 150.724C182.516 163.427 174.442 174.548 163.74 182.711C171.331 182.813 178.85 179.363 183.651 172.754C188.455 166.141 189.414 157.914 186.965 150.724ZM145.561 200.433C153.315 197.913 158.915 191.841 161.171 184.608C148.647 191.604 135.661 196.378 123.597 196.784C129.678 201.328 137.791 202.958 145.561 200.433ZM120.441 196.784C106.995 196.484 93.9304 192.252 82.8608 184.613C85.1172 191.847 90.7197 197.916 98.4755 200.435C106.246 202.959 114.361 201.33 120.441 196.784ZM80.2957 182.718C69.5931 174.556 61.5172 163.436 57.0662 150.733C54.6182 157.924 55.5752 166.151 60.38 172.763C65.182 179.371 72.7049 182.821 80.2957 182.718ZM56.0585 147.721C54.1347 141.316 53.1546 134.664 53.1487 127.976C53.155 121.292 54.1344 114.644 56.0561 108.242C49.8713 112.623 45.826 119.827 45.8267 127.983C45.8273 136.139 49.8731 143.341 56.0585 147.721ZM57.0624 105.23C61.5119 92.5262 69.5871 81.4046 80.2895 73.2405C72.6981 73.1381 65.1751 76.5911 60.3738 83.2007C55.5701 89.8136 54.613 98.04 57.0624 105.23ZM82.8546 71.3462C93.9222 63.7055 106.985 59.4728 120.43 59.1703C114.349 54.6251 106.234 52.996 98.4645 55.5211C90.7099 58.0414 85.1102 64.1125 82.8546 71.3462Z" stroke="white" stroke-width="2"/>
<path d="M122.011 51.3955C118.833 51.3955 116.109 53.3341 114.954 56.0934C116.908 56.8799 118.757 57.9119 120.448 59.1733C120.969 59.1469 121.49 59.1265 122.011 59.1119C122.547 59.1128 123.082 59.12 123.617 59.1334C125.296 57.8855 127.128 56.8612 129.064 56.0818C127.906 53.3287 125.185 51.3955 122.011 51.3955ZM81.4122 64.5538C79.8786 64.5693 78.3353 65.0434 77.0001 66.0135C74.4266 67.8831 73.3624 71.0554 74.0524 73.9684C76.0932 73.4572 78.1947 73.2073 80.3021 73.2339C81.1305 72.6023 81.9731 71.9896 82.8293 71.3963C83.4556 69.3809 84.3439 67.4562 85.4629 65.671C84.2351 64.9265 82.8301 64.5394 81.4122 64.5538ZM162.424 64.568C161.07 64.5867 159.736 64.9744 158.562 65.6852C159.665 67.4477 160.546 69.3454 161.17 71.3325C162.053 71.9435 162.921 72.5751 163.775 73.2268C165.864 73.2057 167.947 73.459 169.97 73.9661C170.652 71.0576 169.588 67.8933 167.02 66.0276C165.632 65.0187 164.018 64.546 162.424 64.568ZM55.8207 99.0379C52.8409 99.2855 50.156 101.276 49.1742 104.298C48.1908 107.325 49.1971 110.517 51.4724 112.468C52.8214 110.858 54.3723 109.422 56.0899 108.207C56.3894 107.209 56.7115 106.217 57.056 105.233C56.3766 103.23 55.9638 101.145 55.8207 99.0379ZM188.195 99.064C188.051 101.139 187.649 103.192 186.986 105.167C187.343 106.183 187.677 107.207 187.987 108.238C189.687 109.448 191.222 110.875 192.56 112.473C194.816 110.52 195.812 107.338 194.832 104.322C193.851 101.303 191.171 99.3153 188.195 99.064ZM51.4488 143.466C49.1862 145.418 48.1859 148.604 49.1672 151.624C50.1507 154.651 52.8418 156.647 55.8278 156.889C55.9731 154.793 56.3829 152.719 57.0584 150.726C56.7148 149.745 56.3935 148.756 56.0947 147.76C54.3648 146.536 52.8048 145.089 51.4488 143.466ZM192.548 143.492C191.199 145.101 189.65 146.536 187.933 147.75C187.634 148.747 187.313 149.737 186.969 150.719C187.648 152.721 188.061 154.804 188.204 156.91C191.173 156.653 193.843 154.661 194.822 151.648C195.803 148.629 194.809 145.444 192.548 143.492ZM74.0264 181.982C73.3461 184.889 74.4118 188.051 76.9789 189.916C79.5522 191.785 82.8986 191.817 85.4558 190.26C84.3445 188.483 83.4602 186.569 82.8364 184.563C81.9794 183.97 81.136 183.357 80.3068 182.726C78.1886 182.752 76.0776 182.498 74.0264 181.982ZM169.951 181.989C167.917 182.496 165.823 182.745 163.723 182.719C162.895 183.35 162.052 183.963 161.196 184.556C160.568 186.577 159.676 188.506 158.553 190.296C161.106 191.834 164.436 191.794 166.999 189.932C169.569 188.065 170.635 184.898 169.951 181.989ZM120.457 196.781C118.76 198.048 116.902 199.086 114.94 199.873C116.101 202.619 118.819 204.547 121.988 204.547C125.165 204.547 127.889 202.61 129.045 199.852C127.102 199.067 125.263 198.037 123.58 196.781C123.057 196.808 122.534 196.828 122.011 196.843C121.493 196.828 120.975 196.808 120.457 196.781Z" stroke="white" stroke-width="2"/>
<path opacity="0.98" d="M198.185 127.436V128.575C225.205 128.806 212.05 156.989 233.639 164.254C211.903 157.442 205.979 187.975 183.984 172.279L183.315 173.201C205.039 189.27 177.831 204.338 191.026 222.905C177.445 204.618 154.706 225.838 146.137 200.212L145.054 200.564C153.184 226.333 122.316 222.531 122.077 245.308C121.839 222.531 90.9703 226.333 99.1004 200.564L98.0172 200.212C89.448 225.838 66.7097 204.618 53.0888 222.877C66.2444 204.28 39.0365 189.212 60.7606 173.143L60.0911 172.222C38.0958 187.917 32.1727 157.385 10.4365 164.196C32.0254 156.931 18.8706 128.748 45.8907 128.517V127.378C18.8706 127.148 32.0254 98.9647 10.4365 91.6993C32.1728 98.511 38.0958 67.9785 60.0911 83.6738L60.7606 82.7524C39.0366 66.6836 66.2446 51.6154 53.0493 33.048C66.6303 51.3351 89.3688 30.1151 97.938 55.7415L99.0212 55.3895C90.891 29.6205 121.759 33.4225 121.998 10.6451C122.237 33.4225 153.105 29.6205 144.975 55.3895L146.058 55.7415C154.627 30.1151 177.366 51.3351 190.986 33.0767C177.831 51.6729 205.039 66.7412 183.315 82.8099L183.984 83.7313C205.979 68.036 211.902 98.5685 233.639 91.7568C212.05 99.0223 225.205 127.205 198.185 127.436Z" stroke="white" stroke-width="2"/>
<path d="M205.177 60.8373C200.856 57.7775 195.305 56.9141 190.257 58.5217C192.77 66.7629 194.368 74.6699 183.331 82.8337L183.999 83.7543C195.095 75.8363 202.101 79.687 209.11 84.5692C213.28 78.7978 213.502 70.7806 209.089 64.7073C207.973 63.1707 206.646 61.8773 205.177 60.8373ZM159.823 27.8944C158.464 26.9325 156.938 26.1559 155.27 25.6141C148.133 23.2951 140.58 25.9794 136.379 31.7242C143.222 36.8988 149.108 42.3646 144.991 55.4134L146.073 55.7645C150.412 42.7889 158.386 41.8263 166.967 41.6653C166.954 36.2095 164.285 31.051 159.823 27.8944ZM222.519 114.161C221.173 113.204 219.68 112.443 218.082 111.91C215.272 120.032 211.906 127.343 198.201 127.46L198.199 128.6C211.837 128.717 215.241 135.956 218.043 144.03C224.782 141.798 229.649 135.456 229.649 127.968C229.649 122.27 226.834 117.229 222.519 114.161ZM103.756 27.8953C99.5444 24.9231 94.0341 23.9041 88.7541 25.6197C81.6184 27.9382 77.0851 34.547 77.0605 41.6622C85.6378 41.8268 93.613 42.7895 97.9524 55.7667L99.036 55.4124C94.919 42.3634 100.806 36.8991 107.648 31.7244C106.555 30.2301 105.237 28.9404 103.756 27.8953ZM53.8146 58.5605C47.0397 56.3833 39.3527 58.6512 34.942 64.7218C30.5324 70.7912 30.7488 78.8016 34.9101 84.5719C41.9474 79.6621 48.9653 75.7499 60.1058 83.6994L60.7763 82.7765C49.7806 74.6433 51.3227 66.7646 53.8146 58.5605ZM209.175 171.445C202.145 176.348 195.129 180.245 183.999 172.303L183.328 173.226C194.312 181.35 192.785 189.22 190.298 197.415C197.055 199.553 204.704 197.281 209.099 191.231C213.493 185.184 213.293 177.211 209.175 171.445ZM26.0406 111.909C19.2786 114.129 14.3916 120.482 14.3916 127.987C14.3916 135.488 19.275 141.84 26.0319 144.064C28.8397 135.953 32.2166 128.657 45.9055 128.54L45.9062 127.402C32.233 127.285 28.8465 120.009 26.0406 111.909ZM166.978 214.339C158.426 214.17 150.481 213.179 146.153 200.235L145.07 200.588C149.189 213.643 143.294 219.109 136.448 224.286C140.658 229.987 148.178 232.645 155.289 230.335C162.41 228.021 166.935 221.436 166.978 214.339ZM60.1074 172.246C48.9775 180.188 41.9609 176.292 34.9304 171.389C30.7621 177.16 30.542 185.174 34.9532 191.247C39.3639 197.318 47.0514 199.587 53.8263 197.409C51.325 189.193 49.7687 181.307 60.7749 173.166L60.1074 172.246ZM99.1153 200.587L98.0333 200.236C93.6842 213.242 85.6829 214.18 77.0788 214.338C77.1199 221.438 81.6474 228.027 88.7699 230.341C95.9072 232.66 103.461 229.977 107.663 224.232C100.847 219.071 95.0107 213.596 99.1153 200.587Z" stroke="white" stroke-width="2"/>
<path d="M202.38 64.7874C199.232 62.5585 195.173 61.9667 191.51 63.2082C192.805 69.2719 192.349 75.2131 185.288 81.2757C185.395 81.4394 185.492 81.6079 185.608 81.7678C185.761 81.9788 185.928 82.1728 186.092 82.3709C193.964 77.5774 199.72 78.9045 205.043 81.9447C208.166 77.809 208.379 71.961 205.175 67.5508C204.377 66.4532 203.429 65.5302 202.38 64.7874ZM157.027 31.8426C156.056 31.1555 154.966 30.6023 153.775 30.2153C148.594 28.532 143.103 30.5354 140.134 34.7769C144.706 38.9084 147.79 43.9722 145.662 52.9735C145.875 53.0557 146.082 53.1445 146.301 53.2156C146.521 53.2869 146.742 53.3368 146.962 53.395C150.53 44.8674 155.998 42.5825 162.125 41.9283C162.195 37.9399 160.281 34.1448 157.027 31.8426ZM219.719 118.106C218.699 117.381 217.561 116.814 216.341 116.431C213.818 122.087 209.945 126.613 200.656 127.355C200.645 127.56 200.624 127.762 200.624 127.969C200.624 128.218 200.647 128.46 200.662 128.705C209.889 129.443 213.773 133.916 216.296 139.522C221.227 137.996 224.81 133.401 224.81 127.968C224.81 123.898 222.801 120.298 219.719 118.106ZM100.964 31.8463C97.9554 29.7232 94.0195 28.9954 90.248 30.2208C85.0698 31.9033 81.8044 36.749 81.8915 41.9234C88.0207 42.5782 93.4947 44.8625 97.0643 53.3996C97.2834 53.3417 97.5031 53.2937 97.7212 53.2229C97.9418 53.1512 98.1502 53.0603 98.3637 52.9773C96.2359 43.9798 99.3129 38.9136 103.881 34.7831C103.074 33.6308 102.087 32.6387 100.964 31.8463ZM52.5691 63.2353C47.6741 61.5509 42.0559 63.1591 38.8547 67.5652C35.6546 71.9697 35.8607 77.8069 38.9724 81.9416C44.3173 78.867 50.0906 77.4954 57.9992 82.3065C58.1412 82.1323 58.288 81.9654 58.4217 81.7814C58.5587 81.5928 58.6738 81.3962 58.7984 81.2026C51.7862 75.1731 51.3006 69.2632 52.5691 63.2353ZM205.114 174.072C199.758 177.148 193.971 178.511 186.035 173.654C185.895 173.826 185.75 173.99 185.618 174.172C185.482 174.359 185.366 174.553 185.242 174.745C192.307 180.786 192.806 186.706 191.539 192.744C196.418 194.39 201.999 192.773 205.185 188.388C208.37 184.005 208.182 178.203 205.114 174.072ZM147.009 202.531C146.778 202.592 146.549 202.659 146.319 202.734C146.116 202.8 145.924 202.884 145.726 202.959C147.889 212.015 144.79 217.097 140.197 221.242C143.178 225.437 148.64 227.41 153.792 225.736C158.957 224.058 162.218 219.233 162.149 214.074C156.028 213.408 150.566 211.099 147.009 202.531ZM43.397 127.29C34.1718 126.539 30.3031 122.046 27.7846 116.423C22.8328 117.937 19.2285 122.54 19.2285 127.987C19.2285 133.43 22.8253 138.034 27.7715 139.551C30.2882 133.918 34.1521 129.412 43.3813 128.654C43.3935 128.432 43.4161 128.213 43.4161 127.988C43.4161 127.753 43.4101 127.521 43.397 127.29ZM98.4481 202.999C98.2147 202.907 97.9808 202.816 97.7388 202.737C97.5452 202.675 97.3501 202.632 97.1557 202.58C93.5742 211.165 88.0684 213.437 81.9057 214.082C81.8373 219.24 85.1021 224.063 90.2659 225.741C95.4488 227.425 100.942 225.419 103.91 221.174C99.3649 217.047 96.315 211.981 98.4481 202.999ZM57.9971 173.639C50.0996 178.442 44.3333 177.081 38.9946 174.015C35.8744 178.151 35.6627 183.997 38.8659 188.406C42.0664 192.811 47.6842 194.417 52.5785 192.734C51.3015 186.697 51.7779 180.781 58.7962 174.745C58.6761 174.559 58.5641 174.37 58.4325 174.189C58.2938 173.998 58.1446 173.819 57.9971 173.639Z" stroke="white" stroke-width="2"/>
<path d="M4.70835 122.742C4.67407 124.604 7.25318 126.611 10.7501 127.354C12.0474 127.63 13.2995 127.695 14.3993 127.581C14.4494 125.503 14.8817 123.452 15.6748 121.53C14.7184 120.98 13.5524 120.532 12.2594 120.257C8.52931 119.464 5.16744 120.411 4.75087 122.371C4.72528 122.493 4.71063 122.617 4.70835 122.742ZM4.80753 133.221C4.80991 133.346 4.82398 133.469 4.85003 133.592C5.2666 135.552 8.6285 136.499 12.3586 135.706C13.6139 135.439 14.7486 135.008 15.6889 134.48C14.8866 132.541 14.4517 130.47 14.4064 128.372C13.3291 128.271 12.1105 128.34 10.8493 128.609C7.35233 129.352 4.77304 131.358 4.80753 133.221ZM8.82988 113.436C8.85593 115.118 10.3178 117.357 12.6798 119.073C13.7797 119.873 14.9266 120.449 16.0007 120.788C16.8783 118.92 18.0902 117.228 19.5767 115.795C18.9234 114.89 18.0291 113.991 16.9431 113.202C13.8579 110.96 10.402 110.459 9.22433 112.08C8.94831 112.46 8.82183 112.921 8.82988 113.436ZM9.11097 142.549C9.12011 143.023 9.24777 143.448 9.50541 143.803C10.6831 145.424 14.139 144.923 17.2242 142.681C18.23 141.95 19.0714 141.125 19.7089 140.288C18.168 138.833 16.9141 137.1 16.0125 135.182C15.0164 135.529 13.9681 136.076 12.9585 136.809C10.5483 138.56 9.07763 140.856 9.11097 142.549ZM16.2818 107.271C16.281 108.73 16.797 110.536 17.81 112.29C18.4998 113.485 19.3272 114.489 20.1837 115.24C21.733 113.886 23.5163 112.825 25.4461 112.111C25.2179 111.016 24.7656 109.828 24.0927 108.662C22.1859 105.36 19.2334 103.494 17.4982 104.496C16.6848 104.965 16.2825 105.984 16.2818 107.271ZM16.6951 148.465C16.6958 149.753 17.0981 150.769 17.9115 151.238C19.6468 152.24 22.5993 150.377 24.506 147.074C25.1081 146.031 25.533 144.969 25.7791 143.973C23.756 143.272 21.8835 142.196 20.2616 140.798C19.5248 141.508 18.821 142.404 18.2209 143.444C17.2079 145.198 16.6943 147.006 16.6951 148.465Z" stroke="white" stroke-width="2"/>
<path d="M24.0354 192.696C25.1026 194.224 28.3686 194.331 31.6347 192.877C32.8463 192.338 33.8975 191.654 34.7202 190.916C33.5391 189.205 32.6831 187.291 32.1952 185.27C31.0985 185.388 29.8915 185.71 28.6838 186.248C25.2 187.799 23.0368 190.541 23.8518 192.371C23.9028 192.486 23.9642 192.595 24.0354 192.696ZM30.2755 201.117C30.3505 201.216 30.4347 201.308 30.5279 201.392C32.0169 202.732 35.2933 201.522 37.8449 198.688C38.7036 197.735 39.3682 196.719 39.8187 195.739C38.0299 194.642 36.4607 193.222 35.191 191.552C34.26 192.103 33.3147 192.875 32.4521 193.834C30.0599 196.49 29.1526 199.63 30.2755 201.117ZM21.8999 182.745C22.9096 184.091 25.4087 185.043 28.3284 185.043C29.6879 185.043 30.9545 184.835 32.0229 184.479C31.6347 182.451 31.6205 180.37 31.9809 178.337C30.9206 177.989 29.6683 177.787 28.326 177.787C24.5125 177.787 21.4219 179.413 21.4219 181.417C21.4219 181.886 21.5907 182.333 21.8999 182.745ZM39.2395 206.133C39.5255 206.511 39.879 206.78 40.2958 206.916C42.2014 207.535 44.7026 205.098 45.881 201.471C46.2652 200.289 46.4609 199.127 46.4848 198.075C44.3825 197.803 42.35 197.139 40.4929 196.116C39.8911 196.983 39.3643 198.041 38.9787 199.228C38.058 202.062 38.2175 204.783 39.2395 206.133ZM24.3051 173.378C25.162 174.559 26.6408 175.716 28.4915 176.54C29.7519 177.101 31.0117 177.427 32.1459 177.531C32.6033 175.525 33.4227 173.619 34.5638 171.906C33.7359 171.155 32.6713 170.459 31.4419 169.912C27.9581 168.361 24.4729 168.587 23.6579 170.418C23.2759 171.276 23.549 172.336 24.3051 173.378ZM48.8529 206.462C49.6101 207.503 50.5328 208.088 51.4668 207.99C53.4595 207.78 54.753 204.538 54.3543 200.745C54.2285 199.548 53.9478 198.438 53.5614 197.488C51.5129 198.11 49.3654 198.34 47.2318 198.163C47.053 199.17 47.0103 200.309 47.1358 201.502C47.3475 203.517 47.9947 205.282 48.8529 206.462Z" stroke="white" stroke-width="2"/>
<path d="M30.1901 54.7867C29.0674 56.2737 29.9745 59.413 32.3667 62.0698C33.254 63.0555 34.2288 63.8441 35.1856 64.3982C36.4477 62.7462 38.0032 61.3408 39.7743 60.2523C39.3237 59.2455 38.644 58.1973 37.7596 57.2148C35.2079 54.3808 31.9315 53.1709 30.4425 54.5116C30.3497 54.5954 30.265 54.6875 30.1901 54.7867ZM24.1104 63.3234C24.0393 63.4253 23.978 63.5337 23.9268 63.6484C23.1118 65.4788 25.2751 68.2209 28.7589 69.7719C29.9314 70.2939 31.1027 70.612 32.1737 70.7377C32.6643 68.6975 33.5298 66.7663 34.7263 65.0424C33.9141 64.3274 32.8876 63.667 31.7096 63.1428C28.4436 61.6887 25.1776 61.7959 24.1104 63.3234ZM38.9944 49.6805C38.0268 51.0567 37.893 53.7279 38.7952 56.5047C39.2154 57.7976 39.8046 58.9379 40.474 59.8439C42.2822 58.8481 44.2573 58.1914 46.3018 57.9062C46.3052 56.7903 46.1104 55.5369 45.6956 54.2602C44.5172 50.6333 42.016 48.1964 40.1105 48.8155C39.6639 48.9606 39.2906 49.2592 38.9944 49.6805ZM22.1096 73.3988C21.8384 73.7876 21.6915 74.207 21.6915 74.6453C21.6915 76.6489 24.7821 78.2746 28.5956 78.2746C29.8389 78.2746 31.0045 78.1016 32.0122 77.7994C31.6212 75.7159 31.6249 73.5776 32.0232 71.4955C31.0131 71.191 29.8439 71.0169 28.5959 71.017C25.6167 71.017 23.0776 72.0096 22.1096 73.3988ZM48.6467 49.0733C47.7884 50.2532 47.1445 52.0173 46.9328 54.0321C46.7886 55.4043 46.8677 56.7031 47.1192 57.814C49.1687 57.629 51.2348 57.8192 53.216 58.3753C53.6749 57.3557 54.0074 56.1283 54.1481 54.79C54.5467 50.9974 53.2547 47.7525 51.262 47.5431C50.3279 47.4449 49.4039 48.0323 48.6467 49.0733ZM24.7676 82.6432C24.0115 83.6851 23.7398 84.7435 24.1218 85.6015C24.9369 87.4319 28.4207 87.66 31.9044 86.1089C33.0045 85.6191 33.9727 85.0094 34.7572 84.3482C33.5323 82.5923 32.6501 80.6209 32.1594 78.537C31.1461 78.6782 30.05 78.9894 28.9535 79.4776C27.1028 80.3016 25.6245 81.4624 24.7676 82.6432Z" stroke="white" stroke-width="2"/>
<path d="M80.7908 237.931C82.552 238.539 85.2574 236.706 87.0449 233.61C87.7082 232.462 88.157 231.291 88.3883 230.21C86.4271 229.52 84.6098 228.475 83.0273 227.127C82.2091 227.866 81.4222 228.837 80.7611 229.981C78.8543 233.284 78.7161 236.774 80.4513 237.776C80.5597 237.838 80.6734 237.89 80.7908 237.931ZM90.7885 241.075C90.9074 241.111 91.0295 241.136 91.1543 241.149C93.147 241.358 95.0864 238.454 95.485 234.661C95.6191 233.385 95.5596 232.172 95.3482 231.115C93.2563 231.279 91.1521 231.052 89.1429 230.447C88.7139 231.441 88.403 232.621 88.2685 233.903C87.8949 237.459 89.006 240.532 90.7885 241.075ZM73.214 231.135C74.8218 231.63 77.4036 230.932 79.7656 229.216C80.8654 228.417 81.7679 227.504 82.4227 226.587C80.9169 225.175 79.682 223.5 78.779 221.644C77.7166 221.985 76.5847 222.558 75.4987 223.347C72.4135 225.588 70.8687 228.72 72.0464 230.341C72.3224 230.721 72.7217 230.984 73.214 231.135ZM100.989 239.864C101.443 240.002 101.887 240.012 102.304 239.878C104.209 239.259 104.8 235.817 103.622 232.19C103.238 231.008 102.713 229.953 102.114 229.088C100.254 230.104 98.2187 230.761 96.1154 231.025C96.1378 232.08 96.3338 233.246 96.7194 234.433C97.6401 237.266 99.3687 239.373 100.989 239.864ZM69.6538 222.143C71.0411 222.595 72.9179 222.662 74.8995 222.241C76.249 221.954 77.4598 221.477 78.4387 220.895C77.6294 219.003 77.1718 216.979 77.0885 214.923C75.977 214.802 74.7069 214.865 73.3906 215.145C69.6604 215.938 66.9737 218.169 67.3902 220.129C67.5855 221.048 68.4297 221.745 69.6538 222.143ZM108.96 234.48C110.184 234.877 111.275 234.808 111.973 234.18C113.462 232.839 112.602 229.455 110.05 226.621C109.245 225.726 108.365 224.994 107.494 224.452C106.203 226.16 104.601 227.608 102.77 228.719C103.218 229.639 103.852 230.585 104.655 231.477C106.011 232.983 107.572 234.03 108.96 234.48Z" stroke="white" stroke-width="2"/>
<path d="M153.294 241.167C155.076 240.623 156.188 237.55 155.814 233.995C155.675 232.676 155.35 231.465 154.902 230.454C152.91 231.049 150.825 231.272 148.753 231.111C148.525 232.191 148.459 233.438 148.597 234.753C148.996 238.545 150.935 241.45 152.928 241.241C153.052 241.227 153.175 241.204 153.294 241.167ZM163.23 237.834C163.348 237.793 163.461 237.741 163.57 237.679C165.305 236.677 165.167 233.187 163.26 229.884C162.618 228.773 161.857 227.827 161.065 227.096C159.469 228.458 157.633 229.512 155.652 230.203C155.889 231.259 156.331 232.397 156.976 233.513C158.764 236.609 161.469 238.442 163.23 237.834ZM143.17 240.122C144.761 239.578 146.44 237.495 147.342 234.719C147.762 233.426 147.956 232.157 147.947 231.03C145.898 230.773 143.914 230.144 142.093 229.172C141.434 230.073 140.855 231.202 140.44 232.479C139.262 236.105 139.853 239.547 141.758 240.166C142.205 240.312 142.682 240.291 143.17 240.122ZM170.771 230.859C171.219 230.704 171.584 230.45 171.842 230.096C173.02 228.475 171.475 225.343 168.39 223.102C167.384 222.371 166.339 221.826 165.346 221.478C164.438 223.393 163.178 225.121 161.632 226.571C162.27 227.411 163.114 228.239 164.123 228.973C166.534 230.724 169.171 231.413 170.771 230.859ZM135.004 234.94C136.392 234.49 137.95 233.441 139.305 231.936C140.228 230.911 140.928 229.813 141.377 228.767C139.61 227.712 138.051 226.343 136.775 224.729C135.804 225.284 134.814 226.082 133.913 227.082C131.362 229.916 130.5 233.3 131.989 234.641C132.687 235.269 133.779 235.337 135.004 234.94ZM174.054 221.817C175.278 221.419 176.12 220.722 176.316 219.804C176.732 217.844 174.048 215.611 170.318 214.819C169.14 214.568 167.998 214.492 166.975 214.566C166.934 216.707 166.489 218.82 165.661 220.795C166.563 221.276 167.633 221.669 168.807 221.918C170.789 222.34 172.667 222.269 174.054 221.817Z" stroke="white" stroke-width="2"/>
<path d="M213.852 201.168C214.975 199.681 214.068 196.542 211.676 193.885C210.788 192.899 209.814 192.111 208.857 191.556C207.595 193.208 206.039 194.614 204.268 195.702C204.719 196.709 205.398 197.757 206.283 198.74C208.835 201.574 212.111 202.784 213.6 201.443C213.693 201.359 213.778 201.267 213.852 201.168ZM219.932 192.631C220.003 192.529 220.065 192.421 220.116 192.306C220.931 190.476 218.767 187.734 215.284 186.183C214.111 185.661 212.94 185.343 211.869 185.217C211.378 187.257 210.513 189.188 209.316 190.912C210.128 191.627 211.155 192.288 212.333 192.812C215.599 194.266 218.865 194.159 219.932 192.631ZM205.048 206.274C206.016 204.898 206.15 202.227 205.247 199.45C204.827 198.157 204.238 197.017 203.569 196.111C201.76 197.106 199.785 197.763 197.741 198.048C197.737 199.164 197.932 200.418 198.347 201.694C199.525 205.321 202.027 207.758 203.932 207.139C204.379 206.994 204.752 206.695 205.048 206.274ZM221.933 182.556C222.204 182.167 222.351 181.748 222.351 181.309C222.351 179.306 219.26 177.68 215.447 177.68C214.204 177.68 213.038 177.853 212.03 178.155C212.421 180.239 212.418 182.377 212.019 184.459C213.029 184.764 214.199 184.938 215.447 184.938C218.426 184.938 220.965 183.945 221.933 182.556ZM195.396 206.881C196.254 205.701 196.898 203.937 197.11 201.922C197.254 200.55 197.175 199.252 196.923 198.141C194.874 198.326 192.808 198.136 190.826 197.579C190.368 198.599 190.035 199.826 189.894 201.165C189.496 204.957 190.788 208.202 192.781 208.412C193.715 208.51 194.639 207.922 195.396 206.881ZM219.275 173.311C220.031 172.269 220.303 171.211 219.921 170.353C219.106 168.523 215.622 168.295 212.138 169.846C211.038 170.335 210.07 170.945 209.285 171.606C210.51 173.362 211.392 175.334 211.883 177.418C212.896 177.276 213.993 176.965 215.089 176.477C216.94 175.653 218.418 174.492 219.275 173.311Z" stroke="white" stroke-width="2"/>
<path d="M239.334 133.213C239.369 131.35 236.79 129.343 233.293 128.6C231.995 128.324 230.743 128.259 229.643 128.373C229.593 130.452 229.161 132.503 228.368 134.425C229.324 134.974 230.49 135.423 231.783 135.698C235.513 136.491 238.875 135.544 239.292 133.584C239.317 133.461 239.332 133.337 239.334 133.213ZM239.235 122.733C239.233 122.609 239.219 122.485 239.193 122.362C238.776 120.402 235.414 119.455 231.684 120.248C230.429 120.515 229.294 120.946 228.354 121.474C229.156 123.413 229.591 125.484 229.636 127.582C230.714 127.683 231.932 127.614 233.193 127.346C236.69 126.602 239.27 124.596 239.235 122.733ZM235.213 142.519C235.187 140.837 233.725 138.597 231.363 136.881C230.263 136.082 229.116 135.506 228.042 135.166C227.164 137.035 225.953 138.727 224.466 140.159C225.119 141.064 226.014 141.964 227.1 142.753C230.185 144.994 233.641 145.496 234.818 143.875C235.094 143.495 235.221 143.034 235.213 142.519ZM234.932 113.406C234.923 112.932 234.795 112.506 234.537 112.152C233.36 110.531 229.904 111.032 226.819 113.273C225.813 114.004 224.971 114.829 224.334 115.666C225.875 117.122 227.129 118.854 228.03 120.773C229.026 120.425 230.075 119.879 231.084 119.145C233.494 117.394 234.965 115.099 234.932 113.406ZM227.761 148.684C227.762 147.225 227.246 145.419 226.233 143.664C225.543 142.47 224.716 141.465 223.859 140.714C222.31 142.069 220.526 143.129 218.597 143.844C218.825 144.938 219.277 146.127 219.95 147.292C221.857 150.595 224.809 152.461 226.545 151.459C227.358 150.989 227.76 149.971 227.761 148.684ZM227.348 107.489C227.347 106.202 226.945 105.186 226.131 104.716C224.396 103.715 221.443 105.578 219.537 108.88C218.935 109.923 218.51 110.986 218.264 111.982C220.287 112.682 222.159 113.758 223.781 115.156C224.518 114.446 225.222 113.55 225.822 112.511C226.835 110.756 227.348 108.948 227.348 107.489Z" stroke="white" stroke-width="2"/>
<path d="M220.007 63.258C218.94 61.7307 215.674 61.6234 212.408 63.0775C211.196 63.6168 210.145 64.3001 209.323 65.0389C210.504 66.7497 211.36 68.6634 211.847 70.6842C212.944 70.5667 214.151 70.2442 215.359 69.7067C218.843 68.1557 221.006 65.4135 220.191 63.5831C220.14 63.4689 220.079 63.3599 220.007 63.258ZM213.767 54.838C213.692 54.7388 213.608 54.6469 213.515 54.5629C212.026 53.2222 208.749 54.4322 206.198 57.2662C205.339 58.22 204.675 59.2357 204.224 60.2154C206.013 61.3124 207.582 62.7324 208.852 64.403C209.783 63.8516 210.728 63.0794 211.591 62.121C213.983 59.4641 214.89 56.3249 213.767 54.838ZM222.143 73.2093C221.133 71.8638 218.634 70.9111 215.714 70.9111C214.355 70.9112 213.088 71.1191 212.02 71.4758C212.408 73.5032 212.422 75.5846 212.062 77.6172C213.122 77.9653 214.374 78.1673 215.717 78.1673C219.53 78.1673 222.621 76.5417 222.621 74.538C222.621 74.0685 222.452 73.6212 222.143 73.2093ZM204.803 49.8216C204.517 49.4435 204.164 49.1742 203.747 49.0387C201.841 48.4195 199.34 50.8565 198.162 54.4834C197.778 55.6659 197.582 56.8279 197.558 57.8796C199.66 58.1516 201.693 58.8159 203.55 59.8381C204.152 58.9715 204.678 57.9133 205.064 56.7264C205.985 53.893 205.825 51.1715 204.803 49.8216ZM219.738 82.5768C218.881 81.3959 217.402 80.2384 215.551 79.4145C214.291 78.8533 213.031 78.5272 211.897 78.4231C211.439 80.4294 210.62 82.3356 209.479 84.048C210.307 84.7995 211.371 85.495 212.601 86.0424C216.085 87.5935 219.57 87.3674 220.385 85.537C220.767 84.6789 220.494 83.6186 219.738 82.5768ZM195.19 49.4928C194.433 48.4517 193.51 47.8662 192.576 47.9644C190.583 48.1741 189.29 51.4168 189.688 55.2093C189.814 56.4069 190.095 57.5162 190.481 58.4666C192.53 57.8443 194.677 57.6144 196.811 57.7917C196.99 56.7844 197.032 55.6457 196.907 54.452C196.695 52.4372 196.048 50.6726 195.19 49.4928Z" stroke="white" stroke-width="2"/>
<path d="M163.253 18.0237C161.492 17.4154 158.787 19.2482 156.999 22.3443C156.336 23.4928 155.887 24.6636 155.656 25.7448C157.617 26.4346 159.434 27.4797 161.017 28.8278C161.835 28.0881 162.622 27.1178 163.283 25.9731C165.19 22.6705 165.328 19.1806 163.593 18.1787C163.484 18.1164 163.371 18.0642 163.253 18.0237ZM153.255 14.8796C153.137 14.8434 153.014 14.8186 152.89 14.8053C150.897 14.5959 148.958 17.5006 148.559 21.2932C148.425 22.5696 148.484 23.7819 148.696 24.8393C150.788 24.6754 152.892 24.9018 154.901 25.507C155.33 24.5137 155.641 23.3333 155.775 22.051C156.149 18.4955 155.038 15.4225 153.255 14.8796ZM170.83 24.8192C169.222 24.3242 166.64 25.0224 164.278 26.7385C163.178 27.5376 162.276 28.4504 161.621 29.367C163.127 30.779 164.362 32.4546 165.265 34.3109C166.327 33.9692 167.459 33.3966 168.545 32.6076C171.63 30.3661 173.175 27.2343 171.997 25.6133C171.722 25.2335 171.322 24.9707 170.83 24.8192ZM143.055 16.0901C142.601 15.9523 142.157 15.9423 141.74 16.0778C139.835 16.6969 139.244 20.1386 140.422 23.7654C140.806 24.9479 141.331 26.003 141.93 26.8679C143.79 25.8523 145.825 25.195 147.929 24.9304C147.906 23.8757 147.71 22.7099 147.324 21.523C146.404 18.6896 144.675 16.5815 143.055 16.0901ZM174.39 33.8114C173.003 33.3598 171.126 33.2925 169.144 33.7137C167.795 34.0005 166.584 34.4772 165.605 35.0597C166.415 36.9517 166.872 38.9755 166.955 41.0316C168.067 41.1529 169.337 41.0899 170.653 40.8101C174.384 40.0172 177.07 37.7857 176.654 35.8258C176.458 34.9071 175.614 34.2098 174.39 33.8114ZM135.084 21.4747C133.86 21.0776 132.769 21.1462 132.071 21.7747C130.582 23.1155 131.442 26.4992 133.994 29.3332C134.799 30.2281 135.678 30.9605 136.55 31.5023C137.841 29.7947 139.443 28.3465 141.274 27.2358C140.826 26.3157 140.192 25.3695 139.388 24.4775C138.033 22.972 136.472 21.9248 135.084 21.4747Z" stroke="white" stroke-width="2"/>
<path d="M90.75 14.7879C88.9677 15.331 87.8563 18.404 88.23 21.9595C88.3685 23.2785 88.6935 24.4894 89.142 25.5001C91.134 24.9055 93.2185 24.6828 95.2912 24.8432C95.5184 23.7638 95.5847 22.5163 95.4466 21.2016C95.0481 17.409 93.1086 14.5043 91.1159 14.7138C90.9916 14.727 90.8689 14.7517 90.75 14.7879ZM80.8137 18.1207C80.6963 18.1614 80.5829 18.2131 80.4741 18.2757C78.7389 19.2775 78.8773 22.7675 80.784 26.07C81.4258 27.1814 82.1864 28.1273 82.979 28.8585C84.5751 27.4963 86.4104 26.4427 88.3917 25.7513C88.1549 24.6955 87.7126 23.5579 87.0677 22.4414C85.2801 19.3452 82.5749 17.5122 80.8137 18.1207ZM100.874 15.8321C99.2824 16.3766 97.6041 18.459 96.7019 21.2358C96.2818 22.5287 96.0882 23.7976 96.0973 24.924C98.1455 25.1813 100.129 25.811 101.951 26.782C102.61 25.8811 103.189 24.7526 103.604 23.4759C104.782 19.8491 104.191 16.4074 102.285 15.7882C101.839 15.6431 101.361 15.6653 100.874 15.8321ZM73.2728 25.0958C72.8249 25.251 72.4595 25.5039 72.2019 25.8585C71.0242 27.4795 72.569 30.6113 75.6542 32.8528C76.6601 33.5836 77.7047 34.1288 78.6975 34.4766C79.6059 32.5612 80.8658 30.8334 82.4118 29.3831C81.7736 28.543 80.93 27.715 79.9204 26.9815C77.5101 25.2303 74.8725 24.541 73.2728 25.0958ZM109.04 21.0142C107.652 21.4643 106.094 22.5131 104.739 24.0186C103.815 25.0439 103.116 26.1412 102.667 27.1878C104.433 28.2428 105.993 29.6111 107.269 31.2255C108.24 30.6703 109.23 29.8728 110.13 28.8727C112.682 26.0387 113.544 22.6542 112.055 21.3135C111.357 20.685 110.264 20.6171 109.04 21.0142ZM69.9894 34.1371C68.7653 34.5356 67.9234 35.2321 67.7281 36.1508C67.3117 38.1107 69.9961 40.3429 73.7262 41.1358C74.9041 41.3862 76.0458 41.462 77.069 41.3882C77.1102 39.2477 77.5552 37.1342 78.3831 35.1599C77.4803 34.6785 76.4106 34.286 75.2366 34.0365C73.255 33.6153 71.3767 33.6855 69.9894 34.1371Z" stroke="white" stroke-width="2"/>
<path opacity="0.98" d="M121.996 51.427C123.806 51.427 125.273 46.6357 125.273 40.7252C125.273 34.8147 123.806 30.0233 121.996 30.0233C120.186 30.0233 118.719 34.8147 118.719 40.7252C118.719 46.6357 120.186 51.427 121.996 51.427Z" stroke="white" stroke-width="2"/>
<path opacity="0.98" d="M124.997 51.1862C126.663 51.9812 130.467 49.6479 133.493 45.9746C136.519 42.3012 137.622 38.6789 135.955 37.8838C134.289 37.0887 130.485 39.422 127.459 43.0954C124.433 46.7687 123.331 50.3911 124.997 51.1862Z" stroke="white" stroke-width="2"/>
<path opacity="0.98" d="M119.025 51.1862C117.359 51.9812 113.555 49.6479 110.529 45.9746C107.503 42.3012 106.401 38.6788 108.067 37.8838C109.733 37.0887 113.537 39.4221 116.563 43.0954C119.589 46.7687 120.692 50.3911 119.025 51.1862Z" stroke="white" stroke-width="2"/>
<path opacity="0.98" d="M73.3662 55.4716C76.8403 60.2533 78.4696 64.992 77.0054 66.0558C75.5412 67.1196 71.5379 64.1057 68.0638 59.324C64.5897 54.5423 62.9604 49.8036 64.4246 48.7398C65.8888 47.676 69.8921 50.6899 73.3662 55.4716Z" stroke="white" stroke-width="2"/>
<path opacity="0.98" d="M83.1024 54.8865C82.8134 59.6369 81.1074 63.7605 79.2921 64.0967C77.4768 64.4329 76.2394 60.8544 76.5284 56.1039C76.8175 51.3534 78.5234 47.2298 80.3387 46.8936C82.1541 46.5574 83.3914 50.1359 83.1024 54.8865Z" stroke="white" stroke-width="2"/>
<path opacity="0.98" d="M64.5231 68.3846C69.1304 69.5777 73.5793 69.2295 74.46 67.6069C75.3407 65.9843 72.3197 63.7017 67.7124 62.5086C63.1051 61.3155 58.6562 61.6636 57.7755 63.2863C56.8948 64.9089 59.9158 67.1915 64.5231 68.3846Z" stroke="white" stroke-width="2"/>
<path opacity="0.98" d="M40.0384 97.913C45.6596 99.7394 49.7631 102.615 49.2038 104.337C48.6445 106.058 43.6342 105.973 38.013 104.146C32.3918 102.32 28.2883 99.4439 28.8476 97.7226C29.4069 96.0013 34.4172 96.0866 40.0384 97.913Z" stroke="white" stroke-width="2"/>
<path opacity="0.98" d="M47.5703 91.7168C50.1288 95.73 51.1724 100.069 49.9014 101.408C48.6303 102.747 45.5259 100.579 42.9674 96.5658C40.409 92.5527 39.3654 88.214 40.6364 86.8749C41.9074 85.5359 45.0119 87.7037 47.5703 91.7168Z" stroke="white" stroke-width="2"/>
<path opacity="0.98" d="M40.4745 113.557C44.9032 111.814 48.2978 108.918 48.0565 107.087C47.8153 105.257 44.0295 105.186 39.6009 106.929C35.1722 108.672 31.7776 111.568 32.0188 113.399C32.2601 115.229 36.0458 115.3 40.4745 113.557Z" stroke="white" stroke-width="2"/>
<path opacity="0.98" d="M38.0229 151.838C43.6441 150.011 48.6543 149.926 49.2136 151.647C49.7729 153.368 45.6694 156.244 40.0482 158.071C34.427 159.897 29.4167 159.983 28.8575 158.261C28.2982 156.54 32.4017 153.664 38.0229 151.838Z" stroke="white" stroke-width="2"/>
<path opacity="0.98" d="M40.4745 142.397C44.9032 144.14 48.2978 147.037 48.0565 148.867C47.8153 150.697 44.0296 150.768 39.6009 149.025C35.1722 147.283 31.7776 144.386 32.0188 142.556C32.2601 140.725 36.0458 140.654 40.4745 142.397Z" stroke="white" stroke-width="2"/>
<path opacity="0.98" d="M47.5713 164.238C50.1297 160.224 51.1734 155.886 49.9023 154.547C48.6313 153.208 45.5269 155.375 42.9684 159.389C40.41 163.402 39.3663 167.74 40.6374 169.079C41.9084 170.418 45.0128 168.251 47.5713 164.238Z" stroke="white" stroke-width="2"/>
<path opacity="0.98" d="M68.0896 196.648C71.5637 191.867 75.567 188.853 77.0312 189.917C78.4954 190.98 76.8661 195.719 73.392 200.501C69.9179 205.282 65.9146 208.296 64.4504 207.233C62.9862 206.169 64.6155 201.43 68.0896 196.648Z" stroke="white" stroke-width="2"/>
<path opacity="0.98" d="M64.525 187.57C69.1323 186.376 73.5813 186.725 74.462 188.347C75.3427 189.97 72.3216 192.252 67.7143 193.446C63.107 194.639 58.6581 194.29 57.7774 192.668C56.8967 191.045 59.9177 188.763 64.525 187.57Z" stroke="white" stroke-width="2"/>
<path opacity="0.98" d="M83.1034 201.068C82.8144 196.317 81.1084 192.194 79.2931 191.857C77.4777 191.521 76.2404 195.1 76.5294 199.85C76.8184 204.601 78.5243 208.724 80.3397 209.06C82.1551 209.397 83.3924 205.818 83.1034 201.068Z" stroke="white" stroke-width="2"/>
<path opacity="0.98" d="M118.752 215.229C118.752 209.319 120.219 204.527 122.029 204.527C123.838 204.527 125.306 209.319 125.306 215.229C125.306 221.14 123.838 225.931 122.029 225.931C120.219 225.931 118.752 221.14 118.752 215.229Z" stroke="white" stroke-width="2"/>
<path opacity="0.98" d="M110.531 209.98C113.557 206.306 117.361 203.973 119.027 204.768C120.694 205.563 119.591 209.185 116.565 212.859C113.539 216.532 109.735 218.865 108.069 218.07C106.403 217.275 107.505 213.653 110.531 209.98Z" stroke="white" stroke-width="2"/>
<path opacity="0.98" d="M133.495 209.98C130.469 206.306 126.665 203.973 124.999 204.768C123.333 205.563 124.435 209.185 127.461 212.859C130.487 216.532 134.291 218.866 135.957 218.07C137.624 217.275 136.521 213.653 133.495 209.98Z" stroke="white" stroke-width="2"/>
<path opacity="0.98" d="M170.659 200.482C167.185 195.701 165.556 190.962 167.02 189.898C168.484 188.834 172.487 191.848 175.962 196.63C179.436 201.412 181.065 206.15 179.601 207.214C178.137 208.278 174.133 205.264 170.659 200.482Z" stroke="white" stroke-width="2"/>
<path opacity="0.98" d="M160.923 201.068C161.212 196.317 162.918 192.194 164.733 191.857C166.549 191.521 167.786 195.1 167.497 199.85C167.208 204.601 165.502 208.724 163.687 209.06C161.871 209.397 160.634 205.818 160.923 201.068Z" stroke="white" stroke-width="2"/>
<path opacity="0.98" d="M179.502 187.57C174.895 186.376 170.446 186.725 169.565 188.347C168.685 189.97 171.706 192.252 176.313 193.446C180.92 194.639 185.369 194.29 186.25 192.668C187.131 191.045 184.11 188.763 179.502 187.57Z" stroke="white" stroke-width="2"/>
<path opacity="0.98" d="M203.986 158.041C198.365 156.215 194.261 153.339 194.821 151.618C195.38 149.896 200.39 149.982 206.011 151.808C211.633 153.634 215.736 156.51 215.177 158.232C214.618 159.953 209.607 159.868 203.986 158.041Z" stroke="white" stroke-width="2"/>
<path opacity="0.98" d="M196.454 164.237C193.896 160.224 192.852 155.886 194.123 154.547C195.394 153.208 198.499 155.375 201.057 159.389C203.615 163.402 204.659 167.74 203.388 169.079C202.117 170.418 199.013 168.251 196.454 164.237Z" stroke="white" stroke-width="2"/>
<path opacity="0.98" d="M203.55 142.397C199.121 144.14 195.727 147.037 195.968 148.867C196.209 150.698 199.995 150.768 204.424 149.026C208.852 147.283 212.247 144.386 212.006 142.556C211.764 140.725 207.979 140.654 203.55 142.397Z" stroke="white" stroke-width="2"/>
<path opacity="0.98" d="M206.003 104.117C200.381 105.943 195.371 106.028 194.812 104.307C194.252 102.586 198.356 99.7098 203.977 97.8834C209.598 96.0569 214.609 95.9717 215.168 97.6929C215.727 99.4142 211.624 102.29 206.003 104.117Z" stroke="white" stroke-width="2"/>
<path opacity="0.98" d="M203.551 113.557C199.122 111.814 195.728 108.917 195.969 107.087C196.21 105.257 199.996 105.186 204.425 106.929C208.853 108.671 212.248 111.568 212.007 113.399C211.765 115.229 207.98 115.3 203.551 113.557Z" stroke="white" stroke-width="2"/>
<path opacity="0.98" d="M196.454 91.7167C193.896 95.7298 192.852 100.069 194.123 101.408C195.394 102.747 198.499 100.579 201.057 96.5657C203.615 92.5526 204.659 88.2139 203.388 86.8748C202.117 85.5358 199.013 87.7036 196.454 91.7167Z" stroke="white" stroke-width="2"/>
<path opacity="0.98" d="M175.938 59.3058C172.464 64.0875 168.46 67.1014 166.996 66.0376C165.532 64.9738 167.161 60.2351 170.635 55.4534C174.109 50.6717 178.113 47.6578 179.577 48.7216C181.041 49.7854 179.412 54.5241 175.938 59.3058Z" stroke="white" stroke-width="2"/>
<path opacity="0.98" d="M179.501 68.3846C174.894 69.5777 170.445 69.2295 169.564 67.6069C168.684 65.9843 171.705 63.7017 176.312 62.5086C180.919 61.3155 185.368 61.6637 186.249 63.2863C187.13 64.9089 184.109 67.1915 179.501 68.3846Z" stroke="white" stroke-width="2"/>
<path opacity="0.98" d="M160.924 54.8866C161.213 59.637 162.919 63.7606 164.734 64.0968C166.55 64.433 167.787 60.8545 167.498 56.104C167.209 51.3535 165.503 47.2299 163.688 46.8937C161.872 46.5576 160.635 50.1361 160.924 54.8866Z" stroke="white" stroke-width="2"/>
<path d="M83.0699 116.9C82.9099 116.74 82.7499 116.36 82.5899 115.76C82.4699 115.16 82.4099 114.6 82.4099 114.08C82.4499 113.56 82.4099 112.88 82.2899 112.04C82.3299 111.88 82.3499 111.44 82.3499 110.72C82.3499 109.96 82.3099 109.22 82.2299 108.5C82.1499 107.74 82.1099 107.14 82.1099 106.7C82.1499 106.22 82.1499 105.7 82.1099 105.14C82.1499 104.86 82.2299 104.38 82.3499 103.7C82.3099 103.66 82.2899 103.16 82.2899 102.2C82.2899 101.2 82.3699 100.4 82.5299 99.8C82.5299 98.68 82.6299 97.46 82.8299 96.14V95.12C83.1099 93.4 83.2899 92.18 83.3699 91.46C83.4099 90.58 83.5299 89.86 83.7299 89.3C83.5699 88.78 83.7499 87.66 84.2699 85.94C84.4299 85.54 84.9699 85.16 85.8899 84.8L85.8299 84.86C86.0699 84.7 86.5699 84.64 87.3299 84.68C88.0899 84.72 88.5899 84.8 88.8299 84.92C89.1099 85.04 89.5899 85.2 90.2699 85.4C91.1899 85.64 91.4299 87.86 90.9899 92.06C90.9899 92.46 90.8699 93.46 90.6299 95.06C90.6299 95.86 90.5699 96.68 90.4499 97.52V98.66L90.3299 100.16C90.3299 100.52 90.3099 100.86 90.2699 101.18C90.2699 101.5 90.2499 102 90.2099 102.68C90.2099 103.32 90.1499 103.82 90.0299 104.18C89.9499 104.54 89.9099 104.78 89.9099 104.9C89.7899 105.02 89.7099 105.36 89.6699 105.92C89.6299 106.6 89.5099 107.42 89.3099 108.38C89.1099 108.74 89.1899 110.84 89.5499 114.68C89.6299 115.88 89.9099 116.68 90.3899 117.08C90.8699 117.44 91.5299 117.32 92.3699 116.72C92.6099 116.48 92.7499 116.32 92.7899 116.24L93.0299 115.34C93.1899 115.34 93.4099 114.94 93.6899 114.14L94.3499 112.94L94.5299 112.22C94.5299 111.9 94.6899 111.46 95.0099 110.9C95.3699 110.3 95.5899 109.9 95.6699 109.7L96.5699 106.7L96.9299 105.2C96.9299 104.96 97.0899 104.52 97.4099 103.88C97.4099 103.68 97.5099 103.16 97.7099 102.32C97.7099 101.56 97.6899 101.02 97.6499 100.7C97.6899 100.7 97.7099 100.58 97.7099 100.34C97.7499 100.1 97.8499 99.72 98.0099 99.2C98.2099 98.64 98.3099 97.96 98.3099 97.16C98.3099 97.04 98.4899 96.64 98.8499 95.96C98.8499 94.92 99.2299 93.54 99.9899 91.82C99.9499 91.86 99.9499 91.82 99.9899 91.7C100.03 91.54 100.05 91.42 100.05 91.34C100.09 91.22 100.13 91.1 100.17 90.98C100.21 90.86 100.23 90.74 100.23 90.62C100.11 90.38 100.13 90.08 100.29 89.72C100.45 89.36 100.59 88.98 100.71 88.58C100.83 88.18 100.97 87.78 101.13 87.38L102.57 86.42C102.77 86.42 103.03 86.4 103.35 86.36C103.71 86.28 104.51 86.28 105.75 86.36C106.23 86.52 106.61 86.96 106.89 87.68C107.33 88.36 107.39 89.36 107.07 90.68C107.07 90.96 106.91 91.94 106.59 93.62C106.59 93.9 106.47 94.56 106.23 95.6C105.99 96.64 105.81 97.58 105.69 98.42C105.61 99.22 105.51 99.76 105.39 100.04C105.31 100.6 105.29 101.06 105.33 101.42L104.97 104C104.97 104.64 104.91 105.6 104.79 106.88C104.67 108.16 104.53 109.16 104.37 109.88C104.25 110.56 104.45 111.94 104.97 114.02L105.69 117.92C105.69 118.52 105.79 119.04 105.99 119.48C106.19 119.88 106.29 120.08 106.29 120.08V120.38C107.41 122.58 107.03 123.86 105.15 124.22C104.23 124.46 103.67 124.62 103.47 124.7C103.27 124.82 102.83 124.78 102.15 124.58C101.51 124.42 100.91 124.06 100.35 123.5C100.19 123.26 99.9699 122.54 99.6899 121.34C99.5699 121.1 99.4299 120.4 99.2699 119.24C99.1499 119.12 99.0099 118.66 98.8499 117.86C98.9299 117.7 98.8499 117.44 98.6099 117.08C98.3299 117.64 98.1299 118 98.0099 118.16C97.7299 118.6 97.5499 118.92 97.4699 119.12C97.4299 119.28 97.2899 119.68 97.0499 120.32L95.9699 122.24C95.1299 123.8 94.0899 124.5 92.8499 124.34C92.8099 124.3 92.4099 124.26 91.6499 124.22C91.4899 124.06 90.9299 123.92 89.9699 123.8C89.8099 123.76 89.6099 123.72 89.3699 123.68C89.1299 123.68 88.8099 123.66 88.4099 123.62C88.3299 123.5 88.0299 123.28 87.5099 122.96C86.3099 122.52 85.4899 121.92 85.0499 121.16C84.6899 121.08 84.4299 120.8 84.2699 120.32C84.1899 120.08 83.9299 119.52 83.4899 118.64L83.0699 116.9ZM120.859 85.28C121.419 85.04 122.579 84.96 124.339 85.04C126.099 85.08 127.359 85.24 128.119 85.52L129.619 86C130.859 86.84 131.559 87.26 131.719 87.26C133.359 88.54 134.299 90.22 134.539 92.3C134.779 93.18 134.819 93.98 134.659 94.7C134.659 94.94 134.579 95.46 134.419 96.26L133.819 97.64L133.099 98.66C132.859 98.7 132.719 98.72 132.679 98.72C131.199 98.96 130.059 99 129.259 98.84C128.459 98.64 127.759 98.2 127.159 97.52C127.039 97.28 126.979 97.06 126.979 96.86C127.019 96.66 127.079 96.48 127.159 96.32L127.459 95.36C127.979 94.08 127.939 93 127.339 92.12C127.339 92 127.139 91.78 126.739 91.46C126.339 91.14 126.019 90.9 125.779 90.74C125.579 90.58 125.199 90.56 124.639 90.68C123.679 91.08 122.859 92.3 122.179 94.34C121.379 95.38 120.819 96.74 120.499 98.42C120.019 101.42 119.779 103.12 119.779 103.52L119.719 104.84V105.38C119.639 105.46 119.679 107.2 119.839 110.6C119.879 110.8 119.959 111.08 120.079 111.44C120.199 111.88 120.379 112.6 120.619 113.6L121.399 114.92C121.599 115.04 121.859 115.4 122.179 116C122.379 116 122.539 116.14 122.659 116.42C122.939 116.7 123.059 116.86 123.019 116.9C123.219 116.94 123.519 117.06 123.919 117.26C124.999 117.82 125.939 117.7 126.739 116.9C127.019 116.62 127.359 116.24 127.759 115.76C128.199 115.24 128.519 114.84 128.719 114.56C128.959 114.24 129.319 113.94 129.799 113.66C131.119 112.66 132.259 112.7 133.219 113.78C133.419 114.1 133.439 114.88 133.279 116.12C133.159 117.32 132.599 118.58 131.599 119.9C131.519 120.14 131.259 120.54 130.819 121.1C130.379 121.62 129.919 122.04 129.439 122.36C129.359 122.64 127.839 122.84 124.879 122.96C124.719 122.96 124.399 122.92 123.919 122.84C123.479 122.96 122.879 122.9 122.119 122.66C121.399 122.42 120.999 122.3 120.919 122.3L120.139 122.12C119.819 122.12 119.499 122.02 119.179 121.82C118.859 121.62 118.319 121.28 117.559 120.8C116.839 120.28 116.279 119.86 115.879 119.54C114.679 118.58 113.819 117.48 113.299 116.24C113.139 115.96 113.039 115.58 112.999 115.1C112.959 114.58 112.879 114.2 112.759 113.96C112.439 113.64 112.279 113.12 112.279 112.4C112.319 111.68 112.279 110.8 112.159 109.76C112.159 109.28 112.179 109 112.219 108.92C112.019 108.72 111.939 108.38 111.979 107.9C112.019 107.38 112.039 106.68 112.039 105.8C112.159 105.56 112.199 104.86 112.159 103.7C112.159 102.5 112.199 101.6 112.279 101C112.119 100.64 112.099 100.12 112.219 99.44L112.279 97.64C112.319 96.92 112.499 96.16 112.819 95.36C112.859 95 112.939 94.58 113.059 94.1C113.179 93.58 113.699 92.56 114.619 91.04C114.619 90.72 114.919 90.32 115.519 89.84C115.519 89.68 115.679 89.44 115.999 89.12C116.319 88.8 116.679 88.4 117.079 87.92C117.639 87.24 118.259 86.74 118.939 86.42C119.619 86.1 120.259 85.72 120.859 85.28ZM149.44 96.02C149.16 97.38 149.02 98.56 149.02 99.56C148.94 100.12 148.84 100.5 148.72 100.7C148.64 100.9 148.6 101.36 148.6 102.08C148.6 102.8 148.82 103.22 149.26 103.34C149.7 103.34 150.34 103.1 151.18 102.62L152.44 101.48C152.88 101.12 153.9 100.46 155.5 99.5L157 98.06L157.6 97.28L157.84 96.74C158.16 96.22 158.26 95.68 158.14 95.12L158.02 94.1C157.74 92.86 157.54 92.14 157.42 91.94C157.34 91.7 157.2 91.46 157 91.22C156.8 90.94 156.58 90.7 156.34 90.5C156.1 90.3 155.96 90.16 155.92 90.08L154.06 89.18C154.02 89.14 153.78 89.08 153.34 89C152.66 88.72 151.7 88.68 150.46 88.88L150.1 90.8C150.1 91.04 149.98 91.46 149.74 92.06C149.54 92.66 149.5 93.1 149.62 93.38C149.58 93.5 149.56 93.74 149.56 94.1C149.56 94.42 149.52 94.86 149.44 95.42V96.02ZM148.3 107.66C147.98 107.82 147.78 107.9 147.7 107.9C147.66 108.02 147.64 108.24 147.64 108.56V109.28C147.64 109.56 147.46 110.42 147.1 111.86V112.46C147.1 113.06 147 113.54 146.8 113.9L146.56 116.54L146.2 118.04C146.12 118.28 146.1 118.5 146.14 118.7C146.22 118.9 146.28 119.64 146.32 120.92C146.4 122.16 146.36 123.06 146.2 123.62L145.84 124.16C145.04 124.4 144.52 124.46 144.28 124.34C144.04 124.22 143.64 124.14 143.08 124.1C142.52 124.06 142.2 124.02 142.12 123.98C142.08 123.98 141.88 123.9 141.52 123.74C141.2 123.62 140.98 123.52 140.86 123.44C140.78 123.36 140.64 123.24 140.44 123.08C139.92 122.72 139.66 121.94 139.66 120.74C139.58 120.5 139.6 120.22 139.72 119.9C139.48 119.78 139.4 119.46 139.48 118.94C139.6 118.7 139.66 118.32 139.66 117.8C139.66 117.28 139.72 116.86 139.84 116.54V115.58C139.84 115.22 139.98 114.48 140.26 113.36C140.26 113.04 140.32 112.76 140.44 112.52C140.36 112.44 140.46 112.1 140.74 111.5C140.66 111.38 140.76 110.8 141.04 109.76C140.92 109.64 140.9 109.28 140.98 108.68C141.06 108.04 141.16 107.54 141.28 107.18C141.28 106.42 141.34 105.96 141.46 105.8C141.42 105.68 141.36 105.3 141.28 104.66L141.4 103.94C141.4 103.46 141.58 102.72 141.94 101.72C142.26 99.44 142.42 98.2 142.42 98C142.98 95.68 143.26 94.24 143.26 93.68C143.38 93.64 143.5 93.26 143.62 92.54C143.74 91.78 143.7 91.24 143.5 90.92C141.7 91.6 140.2 92.4 139 93.32C138.2 94 137.66 94.26 137.38 94.1C136.82 93.78 136.54 93.32 136.54 92.72L136.3 91.76C136.26 91.72 136.16 91.5 136 91.1C135.8 90.66 135.72 90.34 135.76 90.14C135.76 89.94 135.74 89.68 135.7 89.36C135.62 89 135.62 88.76 135.7 88.64C136.06 87.96 136.54 87.46 137.14 87.14L138.58 86.12L139.6 85.52C139.68 85.52 140.44 85.1 141.88 84.26C141.96 84.1 142.26 83.96 142.78 83.84C143.3 83.72 144.46 83.36 146.26 82.76C147.46 82.64 148.16 82.58 148.36 82.58C149.64 82.42 150.72 82.54 151.6 82.94C152.2 83.1 152.54 83.18 152.62 83.18C152.74 83.14 152.88 83.14 153.04 83.18C153.24 83.22 153.38 83.24 153.46 83.24C153.46 83.32 153.64 83.36 154 83.36L155.14 83.78C155.34 83.78 155.6 83.88 155.92 84.08C156.16 84.04 156.48 84.14 156.88 84.38C157.32 84.58 157.94 84.88 158.74 85.28C159.58 85.68 160 86.02 160 86.3C160.24 86.38 160.5 86.6 160.78 86.96L161.5 87.68L162.64 89.18C162.72 89.22 162.9 89.42 163.18 89.78C163.58 90.46 163.8 90.86 163.84 90.98C163.88 91.1 163.92 91.22 163.96 91.34C164 91.42 164.16 91.76 164.44 92.36C165 93.48 165.22 94.46 165.1 95.3C165.1 95.34 164.9 95.96 164.5 97.16C163.78 99.28 162.68 100.96 161.2 102.2C160.88 102.44 160.46 102.76 159.94 103.16C159.42 103.52 159 103.84 158.68 104.12C157.16 105.04 156.26 105.62 155.98 105.86C155.74 106.1 155.52 106.3 155.32 106.46L154.66 106.76L154.78 107.12C154.78 106.96 154.88 107.04 155.08 107.36C155.32 107.64 155.48 107.86 155.56 108.02C155.56 108.22 155.76 108.46 156.16 108.74C156.24 108.7 156.34 108.74 156.46 108.86C156.7 109.1 156.82 109.48 156.82 110C157.1 110.16 157.52 110.64 158.08 111.44C158.64 111.84 159.12 112.4 159.52 113.12C159.8 113.44 160.02 113.66 160.18 113.78C160.34 114.02 160.66 114.34 161.14 114.74C161.62 115.14 161.94 115.42 162.1 115.58C162.26 115.7 162.44 115.84 162.64 116C163.36 116.56 163.86 116.98 164.14 117.26L164.86 117.74C166.34 119.18 167.12 119.96 167.2 120.08C167.16 120.36 166.88 120.78 166.36 121.34C166.32 121.98 165.4 122.52 163.6 122.96C163 122.96 162.18 122.68 161.14 122.12C160.1 121.6 159.3 121.04 158.74 120.44C156.98 119.16 155.82 118.16 155.26 117.44C153.62 115.8 152.44 114.22 151.72 112.7C151.56 112.58 151.36 112.38 151.12 112.1C150.92 111.82 150.72 111.6 150.52 111.44L149.74 109.94C149.02 108.94 148.66 108.44 148.66 108.44L148.3 107.66Z" fill="white"/>
<path d="M97.0551 175.62C96.7751 175.9 95.9151 176.04 94.4751 176.04C93.4751 176.24 92.2951 176.08 90.9351 175.56L89.6751 175.14L87.8151 174.24C87.6551 174.24 87.5551 174.24 87.5151 174.24C87.4751 174.28 87.3751 174.24 87.2151 174.12C86.9751 173.92 86.6951 173.76 86.3751 173.64C85.5751 173.08 85.0151 172.58 84.6951 172.14C83.4151 170.1 82.7751 168.4 82.7751 167.04C82.7751 166.88 82.9751 166.58 83.3751 166.14C84.1751 165.18 85.1751 164.7 86.3751 164.7C86.8551 164.74 87.2351 164.9 87.5151 165.18L89.4951 167.76C89.8151 168.08 90.1751 168.4 90.5751 168.72L91.3551 169.56L92.5551 170.58C92.7151 170.66 92.8751 170.7 93.0351 170.7C93.1951 170.78 93.6351 170.88 94.3551 171C95.1551 170.8 95.8351 170.58 96.3951 170.34C96.7551 169.98 97.0751 169.7 97.3551 169.5L98.1951 168.54C98.2751 168.46 98.4151 168.14 98.6151 167.58C98.6151 167.06 98.6151 166.72 98.6151 166.56C98.6551 166.36 98.5951 165.86 98.4351 165.06C98.3951 164.94 98.1151 164.62 97.5951 164.1C97.3551 163.62 97.0151 163.1 96.5751 162.54C96.3351 162.3 95.1751 161.66 93.0951 160.62L91.9551 159.96L90.8751 159C90.3551 158.84 89.6151 158.3 88.6551 157.38C88.2551 157.1 87.9551 156.88 87.7551 156.72C87.5151 156.64 86.8551 155.96 85.7751 154.68C85.7751 154.6 85.4351 153.84 84.7551 152.4L84.2151 150.06L84.4551 148.5C84.2151 147.46 84.1351 146.68 84.2151 146.16C84.3751 145.92 84.5751 145.44 84.8151 144.72C84.6951 144.12 85.2351 142.94 86.4351 141.18C86.4351 140.94 87.3151 139.98 89.0751 138.3L91.1151 137.22L92.0751 136.8C92.4351 136.76 92.9151 136.7 93.5151 136.62C94.1551 136.54 95.0951 136.54 96.3351 136.62C97.5751 136.7 98.3551 136.86 98.6751 137.1C98.9551 137.22 99.7551 137.76 101.075 138.72C102.835 140.28 103.795 141.68 103.955 142.92C104.635 144.96 104.675 147.14 104.075 149.46C104.075 149.62 103.515 149.94 102.395 150.42L100.895 150.36C99.6151 150.2 98.3951 149.54 97.2351 148.38C96.9151 148.18 96.6751 147.62 96.5151 146.7C96.4751 145.74 96.2751 145.16 95.9151 144.96C95.8751 144.92 95.7151 144.56 95.4351 143.88C94.7551 143 94.2951 142.56 94.0551 142.56C93.8551 142.56 93.6151 142.62 93.3351 142.74C91.8951 143.9 91.1351 145.2 91.0551 146.64C90.7751 147.8 91.1351 149.22 92.1351 150.9C92.5751 151.54 92.8551 151.86 92.9751 151.86C93.2151 152.26 93.6751 152.76 94.3551 153.36L95.1951 154.26L97.7151 156.12L98.7351 157.14L99.8751 157.86C100.515 158.14 101.135 158.52 101.735 159C102.535 159.6 103.515 160.72 104.675 162.36C104.915 162.72 105.235 163.8 105.635 165.6V167.94L105.335 169.32C105.135 169.52 104.915 169.92 104.675 170.52C104.675 170.56 104.455 171.1 104.015 172.14C103.895 172.34 103.415 172.76 102.575 173.4C101.375 174.36 100.035 175.08 98.5551 175.56C98.2351 175.64 97.7351 175.66 97.0551 175.62ZM118.754 157.8C118.834 157.72 119.294 157.64 120.134 157.56C121.014 157.44 122.034 157.08 123.194 156.48C123.234 156.48 123.214 156 123.134 155.04C123.014 153.36 122.914 152.16 122.834 151.44C122.754 150.48 122.674 149.8 122.594 149.4C122.594 148.64 122.294 147.06 121.694 144.66L119.054 153.6C118.494 156.08 118.274 157.6 118.394 158.16L118.754 157.8ZM110.654 159.54L111.014 156.9C111.014 156.38 111.094 155.86 111.254 155.34C111.254 154.66 111.594 153.64 112.274 152.28C112.274 152.2 112.454 151.68 112.814 150.72C112.814 150.64 113.194 149.46 113.954 147.18L114.674 145.44C114.674 145.28 114.774 144.98 114.974 144.54C115.174 144.06 115.314 143.6 115.394 143.16C115.514 142.68 115.654 142.22 115.814 141.78C116.374 140.7 116.874 139.78 117.314 139.02C118.154 137.42 119.714 136.7 121.994 136.86L123.914 137.04C125.114 137.36 126.034 137.7 126.674 138.06C127.594 138.42 128.214 138.82 128.534 139.26C128.854 139.66 128.994 140.34 128.954 141.3C128.994 141.78 129.114 143.86 129.314 147.54C129.514 151.22 129.614 153.08 129.614 153.12L129.914 155.7C129.914 155.94 130.354 158.82 131.234 164.34L132.554 168.54C133.354 170.78 133.774 171.96 133.814 172.08C133.894 172.16 134.074 172.58 134.354 173.34C134.794 174.66 134.414 175.54 133.214 175.98C132.134 176.14 131.334 176.04 130.814 175.68C130.614 175.68 130.154 175.5 129.434 175.14C129.354 174.94 129.114 174.74 128.714 174.54C128.354 174.38 128.114 174.24 127.994 174.12C127.554 174 127.154 173.38 126.794 172.26C126.674 172.18 126.454 171.86 126.134 171.3C125.854 170.74 125.774 170.28 125.894 169.92C125.614 169.56 125.474 168.82 125.474 167.7C125.114 167.1 124.934 166.16 124.934 164.88C124.934 163.6 124.734 162.6 124.334 161.88C122.294 162.8 120.114 163.3 117.794 163.38C117.354 163.38 117.134 163.46 117.134 163.62C117.134 163.98 117.014 164.62 116.774 165.54L115.754 172.14C116.154 175.1 115.794 176.66 114.674 176.82C114.354 176.82 113.814 176.9 113.054 177.06C112.334 177.22 111.734 177.08 111.254 176.64C110.334 176.12 109.674 175.58 109.274 175.02C108.914 174.5 108.754 173.9 108.794 173.22C108.834 172.66 108.934 171.46 109.094 169.62C109.174 169.54 109.194 169.1 109.154 168.3C109.154 167.46 109.214 166.82 109.334 166.38L110.294 162.66C110.414 162.58 110.574 161.98 110.774 160.86C110.734 160.78 110.714 160.58 110.714 160.26L110.654 159.54ZM142.021 146.52C142.021 146.28 142.041 145.98 142.081 145.62C142.161 145.26 142.201 144.98 142.201 144.78C142.201 144.54 142.121 144.36 141.961 144.24C141.601 144 141.141 143.8 140.581 143.64C140.101 143.44 139.361 142.98 138.361 142.26C138.121 142.14 137.941 141.92 137.821 141.6C137.701 141.28 137.741 140.98 137.941 140.7C138.141 140.42 138.281 140.1 138.361 139.74C138.481 139.34 138.641 139.08 138.841 138.96C139.041 138.84 139.621 138.8 140.581 138.84C141.301 138.96 141.921 138.82 142.441 138.42C142.481 138.38 142.801 138.28 143.401 138.12L144.061 137.7C144.501 137.38 145.061 137.22 145.741 137.22C146.421 137.18 147.021 137.04 147.541 136.8C148.101 136.56 148.601 136.42 149.041 136.38C149.481 136.34 149.981 136.22 150.541 136.02C150.821 135.78 151.181 135.62 151.621 135.54C151.821 135.38 152.361 135.24 153.241 135.12C153.921 134.92 154.281 134.82 154.321 134.82C154.361 134.82 154.441 134.8 154.561 134.76C154.841 134.6 155.281 134.46 155.881 134.34C156.361 134.26 156.841 134.06 157.321 133.74C158.001 133.34 159.421 132.98 161.581 132.66C161.821 132.66 162.041 132.86 162.241 133.26C162.601 133.7 162.841 133.92 162.961 133.92C163.081 133.92 163.261 134.18 163.501 134.7C163.781 135.18 163.941 135.64 163.981 136.08C164.061 136.52 164.241 136.9 164.521 137.22C164.761 137.62 164.881 137.88 164.881 138C164.921 138.08 164.841 138.18 164.641 138.3C164.481 138.42 164.281 138.48 164.041 138.48C163.801 138.48 163.221 138.68 162.301 139.08C161.261 139.64 160.401 139.98 159.721 140.1C159.081 140.22 158.281 140.5 157.321 140.94C156.801 141.1 155.941 141.36 154.741 141.72C153.541 142.08 152.401 142.5 151.321 142.98C150.801 143.3 150.101 143.6 149.221 143.88C149.021 143.96 148.901 144.22 148.861 144.66V145.86C148.781 147.3 148.741 148.08 148.741 148.2C148.741 148.32 148.561 149.48 148.201 151.68C147.881 153.88 147.881 154.98 148.201 154.98C148.401 154.9 149.061 154.68 150.181 154.32C151.341 153.92 152.101 153.68 152.461 153.6C152.861 153.48 153.101 153.38 153.181 153.3C153.381 152.9 153.981 152.48 154.981 152.04C156.021 151.56 156.761 151.32 157.201 151.32C157.681 151.32 158.081 151.2 158.401 150.96C158.721 150.72 159.141 150.76 159.661 151.08C160.181 151.36 160.421 152 160.381 153C160.301 154.76 159.541 155.96 158.101 156.6C157.861 157.04 157.061 157.46 155.701 157.86C154.381 158.22 153.421 158.56 152.821 158.88C152.221 159.16 151.681 159.44 151.201 159.72C150.241 160.28 149.601 160.64 149.281 160.8C148.921 160.88 148.621 161 148.381 161.16C148.141 161.24 147.881 161.3 147.601 161.34C147.321 161.34 147.141 161.44 147.061 161.64C146.981 161.84 146.921 162.36 146.881 163.2C146.921 165.12 146.881 166.76 146.761 168.12C146.641 169.48 146.581 170.78 146.581 172.02C146.581 173.22 146.421 174.1 146.101 174.66C145.781 175.26 145.161 175.6 144.241 175.68C143.921 175.72 143.681 175.66 143.521 175.5C143.401 175.26 142.841 175.16 141.841 175.2C140.881 175.28 140.281 175.26 140.041 175.14C139.801 175.02 139.621 174.72 139.501 174.24C139.061 172.08 138.881 170.88 138.961 170.64C139.041 170.4 139.081 170.08 139.081 169.68C139.081 169.28 139.141 168.84 139.261 168.36C139.261 167.84 139.281 167.54 139.321 167.46C139.441 167.42 139.501 166.92 139.501 165.96L139.621 161.16C139.621 160.12 139.761 159.16 140.041 158.28C140.321 157.36 140.461 156.48 140.461 155.64L141.001 153.18C141.081 152.34 141.161 151.72 141.241 151.32C141.441 150.32 141.541 149.74 141.541 149.58C141.741 149.06 141.841 148.44 141.841 147.72L142.021 146.52Z" fill="white"/>
</svg>
